<svg xmlns="http://www.w3.org/2000/svg" viewBox="0 0 48.03 50.13"><defs><style>.cls-1{fill:#ffcc05;}.cls-2{fill:#6abc46;}.cls-3{fill:#fff;}.cls-4{fill:#009444;}</style></defs><title>Recurso 3</title><g id="Capa_2" data-name="Capa 2"><g id="Layer_1" data-name="Layer 1"><path class="cls-1" d="M7.91,39.31a4,4,0,0,1-7.91,0c0-.13,0-.26,0-.38a2.72,2.72,0,0,1,0-.3,3,3,0,0,1,.1-.43v-.05h0a.08.08,0,0,1,0,0h0l0-.11,0,0s0,0,0-.05a4,4,0,0,1,2.16-2.25l.3-.11.38-.1.36-.07h0a4.07,4.07,0,0,1,.5,0A4,4,0,0,1,7.91,39.31Z"/><path class="cls-2" d="M45.82,9.88a9.88,9.88,0,0,1-19.76,0c0-.32,0-.64,0-1s.06-.5.1-.75.15-.72.25-1.07l0-.11h0s0-.07,0-.11h0l.09-.27,0-.11a.76.76,0,0,1,0-.11A9.88,9.88,0,0,1,32.09.78c.24-.1.48-.2.73-.28s.64-.19,1-.27.58-.11.88-.15h0A10.39,10.39,0,0,1,35.94,0,9.88,9.88,0,0,1,45.82,9.88Z"/><path class="cls-3" d="M14.08,24.93l24.11-5.17,4.08,1,3.29,16.34-1.08,6.46-9.19,3.9-5.47-1.27s-10.17-4.77-10.5-4.5-7.15-8.09-7.15-8.09Z"/><ellipse class="cls-3" cx="40.02" cy="44.36" rx="5.8" ry="4.32" transform="translate(-12.52 15.93) rotate(-19.53)"/><path class="cls-4" d="M39,49.51c-2.35,0-4.38-1.11-5.05-3C33,43.93,35,40.87,38.36,39.68s6.82-.06,7.73,2.52a4.43,4.43,0,0,1-.65,4A7.59,7.59,0,0,1,41.68,49h0A8.11,8.11,0,0,1,39,49.51Zm2.47-1.08h0Zm-.39-8a6.71,6.71,0,0,0-2.28.41c-2.69,1-4.32,3.28-3.64,5.19s3.41,2.7,6.1,1.74a6.21,6.21,0,0,0,3.12-2.31,3.2,3.2,0,0,0,.51-2.88C44.4,41.27,42.88,40.48,41.07,40.48Z"/><path class="cls-3" d="M42.74,19.38S37.59,11.45,30.45,8.13,13.83,6.19,8.92,11.3,2.62,23.56,5.3,36.9l3.17-.54,1.64,1.83L11,37.6"/><path class="cls-4" d="M10.11,38.83a.63.63,0,0,1-.48-.21l-1.4-1.57-2.82.49A.64.64,0,0,1,4.67,37C2,24,3.14,16.39,8.45,10.86c5.1-5.3,14.87-6.75,22.27-3.31C38,10.91,43.06,18.7,43.28,19a.64.64,0,0,1-.19.88.64.64,0,0,1-.89-.19c-.05-.07-5.14-7.81-12-11s-16.07-1.89-20.8,3c-4.9,5.1-6,12.2-3.57,24.41l2.55-.44a.66.66,0,0,1,.59.21l1.27,1.42.42-.29a.64.64,0,1,1,.72,1.07l-.9.6A.62.62,0,0,1,10.11,38.83Z"/><path class="cls-3" d="M31.87,25.69S29,22.93,27.09,22.85s-3.4,5.58-3.4,5.58"/><path class="cls-4" d="M23.69,29.07l-.17,0a.65.65,0,0,1-.45-.79c.39-1.43,1.8-6.05,4-6.05h.06c2.06.08,4.88,2.71,5.19,3a.65.65,0,0,1,0,.91.64.64,0,0,1-.91,0c-.76-.72-3-2.6-4.36-2.65h0c-.81,0-2.1,2.68-2.75,5.1A.64.64,0,0,1,23.69,29.07Z"/><path class="cls-3" d="M19.53,11.05c.19,0,9.91,8.56,9.91,8.56l4.44-1L24,10.09l-4.65.85"/><path class="cls-4" d="M29.44,20.25a.62.62,0,0,1-.43-.16c-3.48-3.06-9.15-8-9.77-8.46l-.11-.07a.66.66,0,0,1-.44-.5.65.65,0,0,1,.52-.75l4.64-.85a.63.63,0,0,1,.54.14l9.9,8.49a.63.63,0,0,1,.21.64.65.65,0,0,1-.48.48l-4.44,1Zm-8.57-8.94c1.22,1,3.66,3.12,8.74,7.6l2.88-.67-8.71-7.46Z"/><line class="cls-3" x1="23.98" y1="10.47" x2="23.85" y2="13.99"/><path class="cls-4" d="M23.85,14.63h0a.63.63,0,0,1-.62-.67l.12-3.52A.66.66,0,0,1,24,9.82h0a.66.66,0,0,1,.63.67L24.49,14A.64.64,0,0,1,23.85,14.63Z"/><ellipse class="cls-3" cx="32.7" cy="37.13" rx="1.23" ry="2.18"/><path class="cls-4" d="M32.7,40c-1.07,0-1.88-1.22-1.88-2.82s.81-2.82,1.88-2.82,1.88,1.21,1.88,2.82S33.77,40,32.7,40Zm0-4.36c-.18,0-.59.58-.59,1.54s.41,1.53.59,1.53.59-.58.59-1.53S32.88,35.59,32.7,35.59Z"/><line class="cls-3" x1="38.49" y1="43.59" x2="38.49" y2="46.22"/><path class="cls-4" d="M38.49,46.87a.65.65,0,0,1-.64-.65V43.59a.65.65,0,1,1,1.29,0v2.63A.65.65,0,0,1,38.49,46.87Z"/><line class="cls-3" x1="42.27" y1="42.46" x2="42.27" y2="45.09"/><path class="cls-4" d="M42.27,45.74a.65.65,0,0,1-.65-.65V42.46a.65.65,0,1,1,1.29,0v2.63A.65.65,0,0,1,42.27,45.74Z"/><path class="cls-4" d="M6.6,15l-.18,0a5.23,5.23,0,0,1-3.18-2.51,3.8,3.8,0,0,1-1.6-1.35,4.31,4.31,0,0,1,0-4.58.64.64,0,0,1,1.13.62,3,3,0,0,0,0,3.24,2.09,2.09,0,0,0,.23.29,1.24,1.24,0,0,1,0-.27A2.91,2.91,0,0,1,5.14,7.64a2.55,2.55,0,0,1,2.62.91A2.44,2.44,0,0,1,8,11a3.29,3.29,0,0,1-2.54,1.78l-.34,0a5.06,5.06,0,0,0,1.67.92A.64.64,0,0,1,6.6,15ZM4.25,11.42a3.2,3.2,0,0,0,1,.05,2,2,0,0,0,1.53-1.05,1.12,1.12,0,0,0-.13-1.17,1.34,1.34,0,0,0-1.26-.36c-.64.14-1,.72-1.19,1.67A2.24,2.24,0,0,0,4.25,11.42Z"/><path class="cls-3" d="M45.64,43V40.87s4.06-4.56-.21-15.58c0,0,1.9-4.86,1-5.95s-5.59.65-5.59.65"/><path class="cls-4" d="M45.64,43.66A.65.65,0,0,1,45,43V40.87a.63.63,0,0,1,.17-.43s3.72-4.47-.33-14.91a.64.64,0,0,1,0-.47c.92-2.36,1.44-4.89,1.09-5.3s-2.49-.06-4.88.83a.65.65,0,1,1-.45-1.21c1.53-.57,5.21-1.75,6.31-.46s-.14,4.69-.78,6.37c3.78,10,.91,14.78.16,15.8V43A.64.64,0,0,1,45.64,43.66Z"/><ellipse class="cls-3" cx="43.38" cy="34.24" rx="1.11" ry="2.18"/><path class="cls-4" d="M43.38,37.06c-1,0-1.76-1.21-1.76-2.82s.76-2.82,1.76-2.82,1.75,1.21,1.75,2.82S44.37,37.06,43.38,37.06Zm0-4.36a2.17,2.17,0,0,0-.45,1.54,2,2,0,0,0,.48,1.53,2.14,2.14,0,0,0,.45-1.53A2,2,0,0,0,43.36,32.7Z"/><path class="cls-3" d="M6.71,30.2S9.65,38,15.89,40.89c0,0-.09,4.27,1.6,7l2.76-.16L22,49.48s2.14-1.53,4.19-3.37c0,0-.54,1.37,7.93,1.77l2.85.86"/><path class="cls-4" d="M22,50.13a.68.68,0,0,1-.46-.19L20,48.37l-2.48.15a.63.63,0,0,1-.58-.3,14.78,14.78,0,0,1-1.7-6.92c-6.15-3-9-10.55-9.14-10.87a.64.64,0,0,1,.37-.83.65.65,0,0,1,.83.37c0,.08,2.93,7.63,8.84,10.34a.63.63,0,0,1,.38.6,15,15,0,0,0,1.32,6.31l2.37-.15a.69.69,0,0,1,.49.19l1.39,1.38c.72-.54,2.24-1.7,3.7-3a.65.65,0,0,1,.79,0,.6.6,0,0,1,.27.44c.23.19,1.49.93,7.33,1.21a.4.4,0,0,1,.15,0l2.85.85a.64.64,0,1,1-.37,1.23l-2.77-.83c-5.53-.27-7.31-1-7.95-1.44C24.24,48.69,22.49,50,22.41,50A.63.63,0,0,1,22,50.13Zm4.78-3.78Zm0,0Z"/></g></g></svg>