<?xml version="1.0" encoding="utf-8"?>
<!-- Generator: Adobe Illustrator 24.0.2, SVG Export Plug-In . SVG Version: 6.00 Build 0)  -->
<svg version="1.1" id="Capa_1" xmlns="http://www.w3.org/2000/svg" xmlns:xlink="http://www.w3.org/1999/xlink" x="0px" y="0px"
	 viewBox="0 0 943.1 211.9" style="enable-background:new 0 0 943.1 211.9;" xml:space="preserve">
<style type="text/css">
	.st0{fill:#0A9C49;}
	.st1{fill:#FFCD05;}
	.st2{fill:url(#SVGID_1_);}
	.st3{fill:#6BBE47;}
	.st4{fill:#2A9546;}
	.st5{fill:#D22027;}
</style>
<title>Asset 3</title>
<g id="Layer_2">
	<g id="Layer_1-2">
		<path class="st0" d="M164.3,75.2l-34.1-42.9c-0.6-0.6-1.5-0.6-2.1,0c-0.1,0.1-0.1,0.1-0.2,0.2L3.5,185.7c-0.5,0.7-1.4,0.8-2.1,0.3
			c-0.6-0.4-0.8-1.2-0.5-1.8l125.8-182l1.1-1.4c0.5-0.6,1.3-0.7,1.9-0.2c0.1,0,0.1,0.1,0.2,0.2l36.7,72.6c0.3,0.8,0,1.6-0.8,2
			C165.3,75.7,164.7,75.6,164.3,75.2z"/>
		<path class="st1" d="M65.2,82.4c-16.3-6.9-23.9-25.7-17-42s25.7-23.9,42-17c4.3,1.8,8.1,4.5,11.2,7.9"/>
		
			<linearGradient id="SVGID_1_" gradientUnits="userSpaceOnUse" x1="158.0026" y1="288.9041" x2="168.802" y2="165.2595" gradientTransform="matrix(1 0 0 1 0 -74)">
			<stop  offset="0" style="stop-color:#0A9C49"/>
			<stop  offset="0.8" style="stop-color:#6BBE47"/>
		</linearGradient>
		<path class="st2" d="M236.5,178.2L194.6,95c-0.8-1.5-2.7-2.2-4.2-1.4c-0.6,0.3-1.1,0.8-1.4,1.4l-27.8,55.2L133.3,95
			c-0.8-1.5-2.7-2.2-4.2-1.4c-0.6,0.3-1.1,0.8-1.4,1.4l-42,83.2c-0.8,1.5-0.2,3.5,1.4,4.2c0.4,0.2,0.9,0.3,1.4,0.3h33.8l-0.1,27.5
			c0,0.9,0.7,1.6,1.5,1.6l0,0h13.5c0.9,0,1.5-0.7,1.5-1.5l0,0v-27.6h44.7l-0.1,27.5c0,0.9,0.7,1.6,1.6,1.6l0,0h13.5
			c0.9,0,1.6-0.7,1.6-1.6l0,0v-27.5h33.6c1.7,0,3.2-1.4,3.2-3.1C236.8,179.1,236.7,178.7,236.5,178.2z"/>
		<path class="st3" d="M309.7,119.9c-2.7-1.6-5.9-2.5-9.1-2.6c-3.1,0-6.1,0.8-8.7,2.4c-2.6,1.7-4.7,4-6.1,6.8c-3,6.2-3,13.4,0,19.5
			c1.4,2.8,3.5,5.2,6.1,6.9c2.6,1.7,5.6,2.5,8.7,2.5c3.1-0.1,6-0.8,8.7-2.3c3.1-1.5,6-3.6,8.3-6.1l12.3,13.1
			c-3.9,4.3-8.7,7.7-14,10.1c-11.4,5.4-24.6,5-35.7-1.1c-5.7-3.1-10.4-7.8-13.5-13.4c-3.3-5.9-5-12.5-4.9-19.2
			c-0.1-6.6,1.6-13.1,5-18.9c3.3-5.6,8.1-10.2,13.8-13.2c11.1-5.9,24.4-6.4,35.9-1.3c5.1,2.1,9.7,5.3,13.5,9.3l-12.3,14.6
			C315.6,124,312.8,121.6,309.7,119.9z"/>
		<path class="st3" d="M390.3,104.4c5.8,3.1,10.6,7.6,14,13.2c3.4,5.7,5.2,12.3,5.1,19c0.1,6.7-1.6,13.4-5.1,19.2
			c-3.3,5.7-8.2,10.3-14,13.4c-12.6,6.5-27.5,6.5-40,0c-5.8-3.1-10.6-7.7-14-13.4c-3.4-5.8-5.1-12.4-5-19.2
			c-0.1-6.7,1.6-13.2,5.1-19c3.4-5.6,8.2-10.2,14-13.2C362.8,98,377.7,98,390.3,104.4L390.3,104.4z M361.8,119.8
			c-2.7,1.7-4.9,4.1-6.4,7c-1.6,3-2.4,6.4-2.4,9.9c0,3.5,0.8,6.9,2.4,9.9c1.5,2.9,3.7,5.3,6.4,7.1c2.6,1.7,5.6,2.6,8.7,2.6
			c3.1,0,6-0.9,8.5-2.6c2.6-1.8,4.8-4.2,6.2-7c3-6.3,3-13.6,0-19.8c-1.4-2.8-3.5-5.3-6.1-7c-2.5-1.7-5.5-2.6-8.6-2.6
			C367.5,117.2,364.4,118.1,361.8,119.8z"/>
		<path class="st3" d="M471.7,104.4c5.8,3.1,10.6,7.6,14,13.2c3.4,5.7,5.2,12.3,5.1,19c0.1,6.7-1.6,13.4-5.1,19.2
			c-3.3,5.7-8.2,10.3-14,13.4c-12.6,6.5-27.5,6.5-40,0c-5.8-3.1-10.6-7.7-14-13.4c-3.4-5.8-5.2-12.4-5.1-19.2
			c-0.2-13.5,7.1-25.9,19-32.2C444.2,98,459.1,98,471.7,104.4L471.7,104.4z M443.2,119.8c-2.7,1.7-4.9,4.1-6.4,7
			c-1.6,3-2.4,6.4-2.4,9.9c0,3.5,0.8,6.9,2.4,9.9c1.5,2.9,3.7,5.3,6.4,7.1c2.6,1.7,5.6,2.6,8.7,2.6c3.1,0,6-0.9,8.5-2.6
			c2.6-1.8,4.8-4.2,6.2-7c3-6.3,3-13.6,0-19.8c-1.4-2.8-3.5-5.3-6.1-7c-2.5-1.7-5.5-2.6-8.6-2.6
			C448.9,117.2,445.8,118.1,443.2,119.8z"/>
		<path class="st3" d="M552.7,107.5c5.1,4.4,7.6,10.7,7.6,18.8c0,8.5-2.5,15.1-7.6,19.8s-12.3,7-21.5,7l-11.2,0.1v19.2h-21.3v-71.7
			h32.5C540.5,100.9,547.7,103.1,552.7,107.5z M537.6,134.3c1.7-1.7,2.6-4.2,2.6-7.4c0-3.2-0.9-5.5-2.6-7.2
			c-1.7-1.7-4.2-2.5-7.4-2.5H520v19.6h10.2C533.4,136.9,535.9,136,537.6,134.3L537.6,134.3z"/>
		<path class="st4" d="M618.2,103.1c3.7,1.2,7,3.3,9.6,6.3c2.2,2.7,3.4,6.1,3.4,9.6c0,3.5-1.1,6.9-3.3,9.6c-2.3,2.9-5.4,4.9-8.9,5.8
			c4.1,0.8,7.9,3,10.5,6.3c2.6,3.4,4,7.5,3.9,11.8c0.1,3.8-1.2,7.6-3.5,10.6c-2.6,3.2-6,5.6-9.9,7c-4.8,1.7-9.8,2.6-14.9,2.4h-36.7
			v-71.7h35.2C608.7,100.8,613.6,101.5,618.2,103.1z M607.6,127.3c1.3-1.2,1.9-2.8,1.8-4.6c0.1-1.6-0.6-3.3-1.8-4.4
			c-1.4-1.1-3.2-1.7-5-1.6h-12.9V129h12.9C604.4,129.1,606.2,128.5,607.6,127.3L607.6,127.3z M609.1,154.9c1.6-1.2,2.5-3,2.4-5
			c0-1.9-0.8-3.6-2.4-4.6c-1.9-1.2-4.2-1.8-6.5-1.6h-12.9v13h12.9C604.9,156.8,607.2,156.2,609.1,154.9L609.1,154.9z"/>
		<path class="st4" d="M665.8,152.6c2.2,2.4,5.4,3.8,8.7,3.7c3.2,0.1,6.3-1.2,8.4-3.6c2.2-2.4,3.3-5.7,3.3-9.8v-42h21.3v42
			c0.1,5.7-1.2,11.4-4,16.4c-2.7,4.7-6.7,8.4-11.5,10.8c-5.4,2.7-11.4,4-17.4,3.9c-6.1,0.1-12.1-1.2-17.6-3.8
			c-4.9-2.4-8.9-6.2-11.7-10.8c-2.9-5-4.3-10.7-4.1-16.4v-42.1h21.3v42C662.1,146.5,663.4,150,665.8,152.6z"/>
		<path class="st4" d="M718.3,100.9h58.6v16.3h-37.3v11.3h33.9v16.4h-33.9v11.4h38.4v16.4h-59.6V100.9z"/>
		<path class="st4" d="M836.7,100.9h19.4v71.7h-18.1l-30.4-39.9v39.9h-19.5v-71.7h18.2l30.4,40L836.7,100.9z"/>
		<path class="st4" d="M923.2,104.4c5.8,3.1,10.6,7.6,14,13.2c3.4,5.7,5.2,12.3,5.1,19c0.1,6.7-1.6,13.4-5.1,19.2
			c-3.3,5.7-8.2,10.3-14,13.4c-12.6,6.5-27.5,6.5-40,0c-5.8-3.1-10.6-7.7-14-13.4c-3.4-5.8-5.2-12.4-5.1-19.2
			c-0.1-6.7,1.6-13.2,5.1-19c3.4-5.6,8.2-10.2,14-13.2C895.7,98,910.6,98,923.2,104.4z M894.8,119.8c-2.7,1.7-4.9,4.1-6.4,7
			c-1.6,3-2.4,6.4-2.4,9.9c0,3.5,0.8,6.9,2.4,9.9c1.5,2.9,3.7,5.3,6.4,7.1c2.6,1.7,5.6,2.6,8.7,2.6c3.1,0,6-0.9,8.5-2.6
			c2.6-1.8,4.8-4.2,6.2-7c3-6.3,3-13.6,0-19.8c-1.4-2.8-3.5-5.3-6.1-7c-2.5-1.7-5.5-2.6-8.6-2.6
			C900.4,117.2,897.4,118.1,894.8,119.8L894.8,119.8z"/>
		<path class="st5" d="M588.2,207.4l-1.8-4.3h-9.9l-1.8,4.3h-4l8.9-20.2h4l8.8,20.2H588.2z M577.9,199.8h7.1l-3.5-8.5L577.9,199.8z"
			/>
		<path class="st5" d="M609,189c1.4,1.3,2.2,3.2,2.1,5.1c0.1,2-0.7,4-2.1,5.4c-1.6,1.4-3.8,2.1-5.9,1.9h-4.4v6h-3.9v-20.2h8.3
			C605.2,187.1,607.3,187.7,609,189z M606.2,197.1c0.8-0.7,1.2-1.7,1.2-2.8c0.1-1.1-0.4-2.1-1.2-2.8c-1-0.7-2.2-1-3.4-0.9h-4.2v7.5
			h4.2C604.1,198.1,605.3,197.8,606.2,197.1L606.2,197.1z"/>
		<path class="st5" d="M628.9,188.3c5,2.8,6.8,9.1,4,14.1c0,0.1-0.1,0.1-0.1,0.2c-0.9,1.6-2.3,2.9-3.9,3.8c-3.4,1.9-7.6,1.9-11,0
			c-1.6-0.9-3-2.2-3.9-3.8c-2.9-4.8-1.3-11.1,3.5-14c0.1-0.1,0.2-0.1,0.4-0.2C621.4,186.5,625.5,186.5,628.9,188.3z M620.1,191.3
			c-1,0.6-1.9,1.5-2.5,2.5c-1.3,2.2-1.3,4.8,0,7c0.6,1,1.5,1.9,2.5,2.5s2.2,0.9,3.4,0.9c1.2,0,2.3-0.3,3.4-0.9
			c1-0.6,1.9-1.5,2.5-2.5c1.2-2.2,1.2-4.8,0-7c-1.2-2.1-3.4-3.4-5.8-3.4C622.3,190.4,621.1,190.7,620.1,191.3L620.1,191.3z"/>
		<path class="st5" d="M653.8,187.2l-7.4,13.6v6.6h-3.9V201l-7.5-13.8h3.9l5.5,9.5l5.4-9.5L653.8,187.2z"/>
		<path class="st5" d="M669.7,207.4l-1.8-4.3h-9.9l-1.8,4.3h-4l8.9-20.2h4l8.7,20.2H669.7z M659.5,199.8h7.1l-3.5-8.5L659.5,199.8z"
			/>
		<path class="st5" d="M690.4,187.2h3.8v20.2h-3.7l-10.4-13.9v13.9h-3.8v-20.2h3.7l10.4,14V187.2z"/>
		<path class="st5" d="M713,188.5c1.5,0.8,2.9,2.1,3.8,3.6c0.9,1.6,1.4,3.4,1.4,5.2c0,1.8-0.4,3.6-1.4,5.2c-0.9,1.5-2.2,2.8-3.8,3.6
			c-1.7,0.9-3.6,1.3-5.5,1.3h-8.3v-20.2h8.4C709.5,187.2,711.3,187.6,713,188.5z M711,203.2c1-0.6,1.8-1.4,2.3-2.4
			c1.1-2.2,1.1-4.8,0-6.9c-0.6-1-1.4-1.8-2.4-2.4c-1-0.6-2.2-0.9-3.4-0.8H703V204h4.6C708.8,204,710,203.7,711,203.2L711,203.2z"/>
		<path class="st5" d="M735.4,188.3c5,2.8,6.8,9.1,4,14.1c0,0.1-0.1,0.1-0.1,0.2c-0.9,1.6-2.3,2.9-3.9,3.8c-3.4,1.9-7.6,1.9-11,0
			c-1.6-0.9-3-2.2-3.9-3.8c-2.9-4.8-1.3-11.1,3.5-14c0.1-0.1,0.2-0.1,0.4-0.2C727.9,186.5,732,186.5,735.4,188.3z M726.6,191.3
			c-2.2,1.2-3.5,3.5-3.4,6c0,1.2,0.3,2.4,0.9,3.5c0.6,1,1.5,1.9,2.5,2.5c1,0.6,2.2,0.9,3.4,0.9c1.2,0,2.4-0.3,3.4-0.9
			c1-0.6,1.9-1.5,2.5-2.5c1.2-2.2,1.2-4.8,0-7c-0.6-1-1.4-1.9-2.5-2.5c-1-0.6-2.2-0.9-3.4-0.9C728.8,190.4,727.6,190.7,726.6,191.3
			L726.6,191.3z"/>
		<path class="st5" d="M749,187.2h16.5v3.4h-6.3v16.8h-3.9v-16.8H749L749,187.2z"/>
		<path class="st5" d="M773,202.9c1,0.9,2.3,1.4,3.6,1.4c1.3,0.1,2.6-0.4,3.6-1.4c0.9-1,1.4-2.4,1.3-3.8v-11.9h3.9v11.9
			c0,1.6-0.3,3.2-1.1,4.6c-0.7,1.3-1.7,2.3-3.1,3c-1.5,0.7-3.1,1.1-4.7,1c-1.6,0-3.3-0.3-4.7-1c-1.3-0.7-2.4-1.7-3.1-3
			c-0.8-1.4-1.1-3-1.1-4.6v-11.9h3.9v11.9C771.6,200.5,772.1,201.9,773,202.9z"/>
		<path class="st5" d="M799.5,191c-0.9-0.3-1.9-0.5-2.9-0.5c-0.8,0-1.5,0.1-2.2,0.5c-0.5,0.3-0.8,0.8-0.8,1.5c0,0.5,0.2,1,0.6,1.4
			c0.4,0.4,0.9,0.7,1.4,0.9c0.8,0.3,1.5,0.6,2.3,0.8c1.1,0.3,2.3,0.7,3.4,1.2c0.9,0.4,1.6,1,2.2,1.8c0.7,0.9,1,2,0.9,3.1
			c0,1.2-0.3,2.3-1,3.2c-0.7,0.9-1.6,1.7-2.7,2.1c-1.3,0.5-2.6,0.8-4,0.7c-1.6,0-3.1-0.3-4.6-0.9c-1.4-0.6-2.8-1.4-3.9-2.3l1.6-3.3
			c1,0.9,2.2,1.7,3.4,2.2c1.1,0.5,2.3,0.8,3.5,0.8c0.9,0,1.8-0.2,2.5-0.6c0.9-0.6,1.2-1.9,0.6-2.9c-0.1-0.1-0.1-0.2-0.2-0.3
			c-0.4-0.4-0.9-0.7-1.4-0.9c-0.6-0.2-1.4-0.5-2.4-0.8c-1.1-0.3-2.3-0.7-3.4-1.2c-0.9-0.4-1.6-1-2.2-1.7c-0.7-0.9-1-2-0.9-3.1
			c0-1.1,0.3-2.2,0.9-3.1c0.7-0.9,1.6-1.6,2.7-2c1.3-0.5,2.6-0.8,4-0.7c1.3,0,2.6,0.2,3.9,0.6c1.2,0.4,2.3,0.9,3.4,1.5l-1.5,3.4
			C801.7,191.8,800.6,191.3,799.5,191z"/>
		<path class="st5" d="M824.7,191c-0.9-0.3-1.9-0.5-2.9-0.5c-0.8,0-1.5,0.1-2.2,0.5c-0.5,0.3-0.8,0.8-0.8,1.5c0,0.5,0.2,1,0.6,1.4
			c0.4,0.4,0.9,0.7,1.4,0.9c0.8,0.3,1.5,0.6,2.3,0.8c1.1,0.3,2.3,0.7,3.4,1.2c0.9,0.4,1.6,1,2.2,1.8c0.7,0.9,1,2,0.9,3.1
			c0,1.2-0.3,2.3-1,3.2c-0.7,0.9-1.6,1.7-2.7,2.1c-1.3,0.5-2.6,0.8-4,0.7c-1.6,0-3.1-0.3-4.6-0.9c-1.4-0.6-2.8-1.4-3.9-2.3l1.6-3.3
			c1,0.9,2.2,1.7,3.4,2.2c1.1,0.5,2.3,0.8,3.6,0.8c0.9,0,1.8-0.2,2.5-0.6c0.6-0.4,0.9-1,0.9-1.7c0-0.5-0.2-1-0.6-1.4
			c-0.4-0.4-0.9-0.7-1.4-0.9c-0.6-0.2-1.4-0.5-2.4-0.8c-1.1-0.3-2.3-0.7-3.3-1.2c-0.9-0.4-1.6-1-2.2-1.7c-0.7-0.9-1-2-0.9-3.1
			c0-1.1,0.3-2.2,0.9-3.1c0.7-0.9,1.6-1.6,2.7-2c1.3-0.5,2.6-0.8,4-0.7c1.3,0,2.6,0.2,3.9,0.6c1.2,0.4,2.4,0.9,3.4,1.5l-1.5,3.4
			C826.9,191.8,825.9,191.3,824.7,191z"/>
		<path class="st5" d="M838.2,202.9c1,0.9,2.3,1.4,3.6,1.4c1.3,0.1,2.6-0.4,3.6-1.4c0.9-1,1.4-2.4,1.3-3.8v-11.9h3.9v11.9
			c0,1.6-0.3,3.2-1.1,4.6c-0.7,1.3-1.7,2.3-3.1,3c-1.5,0.7-3.1,1.1-4.7,1c-1.6,0-3.3-0.3-4.7-1c-1.3-0.7-2.4-1.7-3.1-3
			c-0.7-1.4-1.1-3-1.1-4.6v-11.9h3.9v11.9C836.7,200.5,837.2,201.9,838.2,202.9z"/>
		<path class="st5" d="M855.1,187.2h14.8v3.4h-11v5h9.8v3.4H859v5.1h11.3v3.4h-15.1L855.1,187.2L855.1,187.2z"/>
		<path class="st5" d="M888.3,187.2h3.8v20.2h-3.7L878,193.5v13.9h-3.8v-20.2h3.7l10.4,14L888.3,187.2z M885.7,185.6
			c-0.4,0-0.8-0.1-1.2-0.2c-0.5-0.2-0.9-0.4-1.3-0.6c-0.4-0.3-0.8-0.4-1.3-0.5c-0.2,0-0.5,0.1-0.6,0.3c-0.1,0.3-0.2,0.7-0.2,1h-2.4
			c0-2.7,0.8-4.1,2.5-4.1c0.4,0,0.8,0.1,1.2,0.2c0.5,0.2,0.9,0.4,1.3,0.6c0.4,0.3,0.8,0.4,1.3,0.5c0.2,0,0.5-0.1,0.6-0.3
			c0.1-0.3,0.2-0.6,0.2-0.9h2.4C888.2,184.2,887.4,185.6,885.7,185.6z"/>
		<path class="st5" d="M911.7,188.3c1.6,0.9,3,2.2,3.9,3.7c1.9,3.2,1.9,7.3,0,10.5c-0.9,1.6-2.3,2.9-3.9,3.8c-3.4,1.9-7.6,1.9-11,0
			c-1.6-0.9-3-2.2-3.9-3.8c-2.9-4.8-1.3-11.1,3.5-14c0.1-0.1,0.2-0.1,0.4-0.2C904.2,186.5,908.3,186.5,911.7,188.3L911.7,188.3z
			 M902.8,191.3c-3.3,1.9-4.4,6.1-2.5,9.4c0.6,1,1.5,1.9,2.5,2.5c1,0.6,2.2,0.9,3.4,0.9c1.2,0,2.4-0.3,3.4-0.9
			c1-0.6,1.9-1.5,2.5-2.5c1.2-2.2,1.2-4.8,0-7c-0.6-1-1.4-1.9-2.5-2.5c-1-0.6-2.2-0.9-3.4-0.9C905.1,190.4,903.9,190.7,902.8,191.3
			L902.8,191.3z"/>
		<path class="st5" d="M929.9,191c-0.9-0.3-1.9-0.5-2.9-0.5c-0.8,0-1.5,0.1-2.2,0.5c-0.5,0.3-0.8,0.8-0.8,1.5c0,0.5,0.2,1,0.6,1.4
			c0.4,0.4,0.9,0.7,1.4,0.9c0.8,0.3,1.5,0.6,2.3,0.8c1.1,0.3,2.3,0.7,3.4,1.2c0.9,0.4,1.6,1,2.2,1.8c0.7,0.9,1,2,0.9,3.1
			c0,1.2-0.3,2.3-1,3.2c-0.7,0.9-1.6,1.7-2.7,2.1c-1.3,0.5-2.6,0.8-4,0.7c-1.6,0-3.1-0.3-4.6-0.9c-1.4-0.6-2.8-1.4-3.9-2.3l1.6-3.3
			c1,0.9,2.2,1.7,3.4,2.2c1.1,0.5,2.3,0.8,3.6,0.8c0.9,0,1.8-0.2,2.5-0.6c0.9-0.6,1.2-1.9,0.6-2.9c-0.1-0.1-0.1-0.2-0.2-0.3
			c-0.4-0.4-0.9-0.7-1.4-0.9c-0.6-0.2-1.4-0.5-2.4-0.8c-1.1-0.3-2.3-0.7-3.3-1.2c-0.9-0.4-1.6-1-2.2-1.7c-0.7-0.9-1-2-0.9-3.1
			c0-1.1,0.3-2.2,0.9-3.1c0.7-0.9,1.6-1.6,2.7-2c1.3-0.5,2.6-0.8,4-0.7c1.3,0,2.6,0.2,3.9,0.6c1.2,0.4,2.4,0.9,3.4,1.5l-1.5,3.4
			C932.2,191.9,931.1,191.3,929.9,191z"/>
	</g>
</g>
</svg>
