<svg xmlns="http://www.w3.org/2000/svg" viewBox="0 0 943.09 211.92"><defs><style>.cls-1{fill:#fff;}</style></defs><title>Asset 4</title><g id="Layer_2" data-name="Layer 2"><g id="Layer_1-2" data-name="Layer 1"><path class="cls-1" d="M163.71,74.92,129.56,32a1.47,1.47,0,0,0-2.27.19L2.71,185.73a1.48,1.48,0,0,1-2.53-1.51L126.24,1.86,127.32.5a1.32,1.32,0,0,1,2.05,0l36.72,72.75A1.48,1.48,0,0,1,163.71,74.92Z"/><path class="cls-1" d="M64.53,82.22A32.13,32.13,0,1,1,100.81,31"/><path class="cls-1" d="M236.09,178.18l-42-83.37a3.16,3.16,0,0,0-5.64,0L160.55,150.1,132.67,94.81a3.16,3.16,0,0,0-5.64,0L85,178.18a3.16,3.16,0,0,0,2.83,4.59h33.82l-.13,27.58a1.56,1.56,0,0,0,1.56,1.57h13.54a1.56,1.56,0,0,0,1.56-1.57V182.77H183l-.14,27.58a1.57,1.57,0,0,0,1.57,1.57H198a1.57,1.57,0,0,0,1.57-1.57V182.77h33.68A3.17,3.17,0,0,0,236.09,178.18Z"/><path class="cls-1" d="M309.41,119.72a18.55,18.55,0,0,0-9.07-2.62,15.92,15.92,0,0,0-8.7,2.46,17.21,17.21,0,0,0-6.15,6.81,22.4,22.4,0,0,0,0,19.57,17.56,17.56,0,0,0,6.15,6.86,15.64,15.64,0,0,0,8.7,2.51,20.25,20.25,0,0,0,8.76-2.25,28.44,28.44,0,0,0,8.35-6.15L329.74,160a43.49,43.49,0,0,1-14.08,10.14,39.24,39.24,0,0,1-35.75-1.07,35.2,35.2,0,0,1-13.57-13.47,38.12,38.12,0,0,1-4.92-19.26,36.3,36.3,0,0,1,5-18.9,35.57,35.57,0,0,1,13.83-13.26,41.22,41.22,0,0,1,36-1.33,39.53,39.53,0,0,1,13.52,9.32l-12.29,14.65A25.56,25.56,0,0,0,309.41,119.72Z"/><path class="cls-1" d="M390.12,104.2a35.73,35.73,0,0,1,14,13.26,36.24,36.24,0,0,1,5.07,19,36.94,36.94,0,0,1-5.07,19.21,35.84,35.84,0,0,1-14,13.42,43.79,43.79,0,0,1-40.1,0,36,36,0,0,1-14-13.42A36.94,36.94,0,0,1,331,136.46a36.24,36.24,0,0,1,5.07-19,35.84,35.84,0,0,1,14-13.26,44.11,44.11,0,0,1,40.1,0Zm-28.47,15.47a18.43,18.43,0,0,0-6.45,7,20.42,20.42,0,0,0-2.41,9.89,20.66,20.66,0,0,0,2.41,9.93,18.75,18.75,0,0,0,6.45,7.12,15.84,15.84,0,0,0,8.76,2.61,15.2,15.2,0,0,0,8.55-2.61,18.14,18.14,0,0,0,6.2-7.07,23.06,23.06,0,0,0,0-19.87,17.8,17.8,0,0,0-6.15-7,15.29,15.29,0,0,0-8.6-2.57A16,16,0,0,0,361.65,119.67Z"/><path class="cls-1" d="M471.66,104.2a35.77,35.77,0,0,1,14,13.26,36.24,36.24,0,0,1,5.07,19,36.94,36.94,0,0,1-5.07,19.21,35.88,35.88,0,0,1-14,13.42,43.79,43.79,0,0,1-40.1,0,36,36,0,0,1-14-13.42,36.94,36.94,0,0,1-5.07-19.21,35.76,35.76,0,0,1,19.06-32.26,44.11,44.11,0,0,1,40.1,0Zm-28.48,15.47a18.43,18.43,0,0,0-6.45,7,20.42,20.42,0,0,0-2.41,9.89,20.66,20.66,0,0,0,2.41,9.93,18.75,18.75,0,0,0,6.45,7.12,15.87,15.87,0,0,0,8.76,2.61,15.2,15.2,0,0,0,8.55-2.61,18.06,18.06,0,0,0,6.2-7.07,23.06,23.06,0,0,0,0-19.87,17.72,17.72,0,0,0-6.15-7,15.29,15.29,0,0,0-8.6-2.57A16.07,16.07,0,0,0,443.18,119.67Z"/><path class="cls-1" d="M552.88,107.37q7.64,6.66,7.64,18.85,0,12.81-7.64,19.87t-21.56,7.07l-11.26.1v19.26H498.75v-71.8h32.57Q545.26,100.72,552.88,107.37Zm-15.16,26.84c1.75-1.71,2.62-4.16,2.62-7.37s-.87-5.55-2.62-7.23-4.21-2.51-7.42-2.51H520.06v19.67H530.3Q535.12,136.77,537.72,134.21Z"/><path class="cls-1" d="M618.49,102.92a21.29,21.29,0,0,1,9.63,6.3,14.68,14.68,0,0,1,3.38,9.63,15.15,15.15,0,0,1-3.28,9.62,16.84,16.84,0,0,1-8.91,5.84,17.38,17.38,0,0,1,10.5,6.3,18.47,18.47,0,0,1,3.94,11.83,17,17,0,0,1-3.48,10.6,22,22,0,0,1-9.88,7,41.46,41.46,0,0,1-14.91,2.46H568.71v-71.8H604A43.63,43.63,0,0,1,618.49,102.92Zm-10.65,24.27a5.85,5.85,0,0,0,1.84-4.55,5.45,5.45,0,0,0-1.84-4.36,7.44,7.44,0,0,0-5-1.59H589.91v12.19h12.91A7.14,7.14,0,0,0,607.84,127.19Zm1.48,27.61a6,6,0,0,0,2.41-5,5.38,5.38,0,0,0-2.41-4.66,10.59,10.59,0,0,0-6.5-1.59H589.91v13h12.91A10,10,0,0,0,609.32,154.8Z"/><path class="cls-1" d="M666.12,152.55a11.5,11.5,0,0,0,8.71,3.68,10.82,10.82,0,0,0,8.4-3.63q3.27-3.65,3.27-9.79V100.72h21.31v42.09a32.27,32.27,0,0,1-4,16.44,27.42,27.42,0,0,1-11.52,10.86A37.63,37.63,0,0,1,674.83,174a38.46,38.46,0,0,1-17.62-3.84,28,28,0,0,1-11.73-10.86,31.62,31.62,0,0,1-4.15-16.44V100.72h21.31v42.09A13.62,13.62,0,0,0,666.12,152.55Z"/><path class="cls-1" d="M718.77,100.72h58.69V117.1H740.07v11.27H774v16.39H740.07v11.37h38.42v16.39H718.77Z"/><path class="cls-1" d="M837.38,100.72h19.46v71.8H838.71l-30.42-40v40H788.73v-71.8H807l30.42,40.05Z"/><path class="cls-1" d="M924,104.2a35.77,35.77,0,0,1,14,13.26,36.24,36.24,0,0,1,5.07,19A36.94,36.94,0,0,1,938,155.67a35.88,35.88,0,0,1-14,13.42,43.79,43.79,0,0,1-40.1,0,35.91,35.91,0,0,1-14-13.42,36.94,36.94,0,0,1-5.07-19.21,36.24,36.24,0,0,1,5.07-19,35.8,35.8,0,0,1,14-13.26,44.11,44.11,0,0,1,40.1,0Zm-28.48,15.47a18.43,18.43,0,0,0-6.45,7,20.42,20.42,0,0,0-2.41,9.89,20.66,20.66,0,0,0,2.41,9.93,18.75,18.75,0,0,0,6.45,7.12,15.87,15.87,0,0,0,8.76,2.61,15.2,15.2,0,0,0,8.55-2.61,18.06,18.06,0,0,0,6.2-7.07,23.06,23.06,0,0,0,0-19.87,17.72,17.72,0,0,0-6.15-7,15.29,15.29,0,0,0-8.6-2.57A16.07,16.07,0,0,0,895.51,119.67Z"/><path class="cls-1" d="M588.4,207.45l-1.79-4.28h-9.89l-1.8,4.28h-4l8.88-20.25h4l8.77,20.25Zm-10.29-7.61h7.11l-3.53-8.5Z"/><path class="cls-1" d="M609.24,189a6.47,6.47,0,0,1,2.09,5.15,7,7,0,0,1-2.09,5.4,8.45,8.45,0,0,1-5.92,1.92H598.9v6H595V187.2h8.3A8.77,8.77,0,0,1,609.24,189Zm-2.75,8.1a3.43,3.43,0,0,0,1.17-2.83,3.33,3.33,0,0,0-1.17-2.78,5.31,5.31,0,0,0-3.37-.92H598.9v7.49h4.22A5.19,5.19,0,0,0,606.49,197.12Z"/><path class="cls-1" d="M629.22,188.3a10.35,10.35,0,0,1,3.89,14.27,10.31,10.31,0,0,1-3.89,3.78,11.5,11.5,0,0,1-11,0,10.31,10.31,0,0,1-3.89-3.78,10.25,10.25,0,0,1,3.89-14.27,11.72,11.72,0,0,1,11,0Zm-8.86,3a6.84,6.84,0,0,0-2.52,2.49,7,7,0,0,0,0,7,6.89,6.89,0,0,0,2.51,2.52,6.62,6.62,0,0,0,3.43.93,6.49,6.49,0,0,0,3.38-.93,6.71,6.71,0,0,0,2.47-2.52,7.08,7.08,0,0,0,0-7,6.73,6.73,0,0,0-5.85-3.4A6.86,6.86,0,0,0,620.36,191.32Z"/><path class="cls-1" d="M654.11,187.2l-7.38,13.62v6.63h-3.87V201l-7.55-13.77h3.93l5.52,9.52,5.44-9.52Z"/><path class="cls-1" d="M670.1,207.45l-1.8-4.28h-9.89l-1.79,4.28h-4l8.88-20.25h4l8.76,20.25Zm-10.3-7.61h7.12l-3.53-8.5Z"/><path class="cls-1" d="M690.83,187.2h3.76v20.25h-3.67l-10.41-13.94v13.94h-3.79V187.2h3.67l10.44,14Z"/><path class="cls-1" d="M713.42,188.49a9.51,9.51,0,0,1,3.76,3.6,10.2,10.2,0,0,1,1.36,5.23,9.93,9.93,0,0,1-1.38,5.22,9.48,9.48,0,0,1-3.8,3.6,11.48,11.48,0,0,1-5.52,1.31h-8.27V187.2H708A11.3,11.3,0,0,1,713.42,188.49Zm-2,14.69a6.1,6.1,0,0,0,2.33-2.37,7.47,7.47,0,0,0,0-6.94,6.19,6.19,0,0,0-2.39-2.4,6.78,6.78,0,0,0-3.4-.85h-4.48V204h4.63A6.59,6.59,0,0,0,711.41,203.18Z"/><path class="cls-1" d="M735.9,188.3a10.35,10.35,0,0,1,3.89,14.27,10.31,10.31,0,0,1-3.89,3.78,11.5,11.5,0,0,1-11,0,10.46,10.46,0,0,1-3.89-3.78,10.25,10.25,0,0,1,3.89-14.27,11.72,11.72,0,0,1,11,0Zm-8.86,3a6.78,6.78,0,0,0-3.44,6,6.69,6.69,0,0,0,.94,3.49,6.92,6.92,0,0,0,2.52,2.52,6.61,6.61,0,0,0,3.42.93,6.53,6.53,0,0,0,3.39-.93,6.79,6.79,0,0,0,2.47-2.52,7.15,7.15,0,0,0,0-7,6.78,6.78,0,0,0-2.47-2.49,6.7,6.7,0,0,0-3.39-.91A6.89,6.89,0,0,0,727,191.32Z"/><path class="cls-1" d="M749.45,187.2H766v3.44h-6.31v16.81h-3.9V190.64h-6.31Z"/><path class="cls-1" d="M773.57,202.88a5,5,0,0,0,3.65,1.36,4.81,4.81,0,0,0,3.6-1.36,5.21,5.21,0,0,0,1.31-3.76V187.2H786v11.92a9.42,9.42,0,0,1-1.07,4.58,7.27,7.27,0,0,1-3.05,3,9.84,9.84,0,0,1-4.67,1.05,10.06,10.06,0,0,1-4.73-1.05,7.17,7.17,0,0,1-3.08-3,9.31,9.31,0,0,1-1.07-4.58V187.2h3.87v11.92A5.11,5.11,0,0,0,773.57,202.88Z"/><path class="cls-1" d="M800.1,190.93a9.77,9.77,0,0,0-2.87-.52,4.09,4.09,0,0,0-2.2.52,1.64,1.64,0,0,0-.81,1.45,1.91,1.91,0,0,0,.56,1.4,4.38,4.38,0,0,0,1.42.93,23.59,23.59,0,0,0,2.33.79,25.46,25.46,0,0,1,3.37,1.22,6,6,0,0,1,2.24,1.79,4.91,4.91,0,0,1,.92,3.12,5.38,5.38,0,0,1-1,3.23,6.28,6.28,0,0,1-2.75,2.09,10.28,10.28,0,0,1-4,.73,12.72,12.72,0,0,1-4.62-.88,13.24,13.24,0,0,1-3.94-2.36l1.62-3.3a11.81,11.81,0,0,0,3.45,2.23,9.11,9.11,0,0,0,3.55.81,4.58,4.58,0,0,0,2.55-.62,2.06,2.06,0,0,0,.36-3.13,4.28,4.28,0,0,0-1.43-.91q-.87-.35-2.37-.78a28.53,28.53,0,0,1-3.36-1.18,5.89,5.89,0,0,1-2.23-1.75,4.87,4.87,0,0,1-.92-3.08,5.11,5.11,0,0,1,.94-3.08,6,6,0,0,1,2.66-2,10.24,10.24,0,0,1,4-.73,13.68,13.68,0,0,1,3.89.58,13.41,13.41,0,0,1,3.42,1.56l-1.56,3.39A14.63,14.63,0,0,0,800.1,190.93Z"/><path class="cls-1" d="M825.35,190.93a9.89,9.89,0,0,0-2.88-.52,4.08,4.08,0,0,0-2.19.52,1.64,1.64,0,0,0-.81,1.45,1.91,1.91,0,0,0,.56,1.4,4.38,4.38,0,0,0,1.42.93,22.71,22.71,0,0,0,2.33.79,26,26,0,0,1,3.37,1.22,6,6,0,0,1,2.24,1.79,5,5,0,0,1,.92,3.12,5.32,5.32,0,0,1-1,3.23,6.25,6.25,0,0,1-2.74,2.09,10.31,10.31,0,0,1-4,.73,12.81,12.81,0,0,1-4.63-.88,13.31,13.31,0,0,1-3.93-2.36l1.62-3.3a11.76,11.76,0,0,0,3.44,2.23,9.15,9.15,0,0,0,3.56.81,4.52,4.52,0,0,0,2.54-.62,2,2,0,0,0,.93-1.7,2,2,0,0,0-.56-1.43,4.33,4.33,0,0,0-1.44-.91c-.57-.23-1.37-.49-2.37-.78a28.29,28.29,0,0,1-3.35-1.18,5.89,5.89,0,0,1-2.23-1.75,4.81,4.81,0,0,1-.92-3.08,5.11,5.11,0,0,1,.94-3.08,6,6,0,0,1,2.66-2,10.19,10.19,0,0,1,4-.73,13.63,13.63,0,0,1,3.89.58,13.48,13.48,0,0,1,3.43,1.56l-1.56,3.39A14.63,14.63,0,0,0,825.35,190.93Z"/><path class="cls-1" d="M838.84,202.88a5,5,0,0,0,3.65,1.36,4.81,4.81,0,0,0,3.6-1.36,5.21,5.21,0,0,0,1.31-3.76V187.2h3.88v11.92a9.42,9.42,0,0,1-1.07,4.58,7.21,7.21,0,0,1-3.05,3,9.84,9.84,0,0,1-4.67,1.05,10.06,10.06,0,0,1-4.73-1.05,7.17,7.17,0,0,1-3.08-3,9.42,9.42,0,0,1-1.07-4.58V187.2h3.87v11.92A5.11,5.11,0,0,0,838.84,202.88Z"/><path class="cls-1" d="M855.85,187.2h14.83v3.39h-11v5h9.84V199h-9.84v5.09H871v3.39H855.85Z"/><path class="cls-1" d="M889.08,187.2h3.76v20.25h-3.68l-10.41-13.94v13.94H875V187.2h3.68l10.44,14Zm-2.64-1.65a3.27,3.27,0,0,1-1.23-.23,10.15,10.15,0,0,1-1.31-.63,3.3,3.3,0,0,0-1.3-.52.63.63,0,0,0-.61.33,2.08,2.08,0,0,0-.17,1h-2.4c0-2.72.83-4.08,2.51-4.08a3.4,3.4,0,0,1,1.23.23,12,12,0,0,1,1.32.64,3.41,3.41,0,0,0,1.3.52.63.63,0,0,0,.61-.33,2.19,2.19,0,0,0,.17-.94H889Q889,185.55,886.44,185.55Z"/><path class="cls-1" d="M912.49,188.3a10.25,10.25,0,0,1,3.89,3.73,10.55,10.55,0,0,1,0,10.54,10.46,10.46,0,0,1-3.89,3.78,11.5,11.5,0,0,1-11,0,10.31,10.31,0,0,1-3.89-3.78,10.25,10.25,0,0,1,3.89-14.27,11.72,11.72,0,0,1,11,0Zm-8.87,3a6.93,6.93,0,0,0-2.5,9.47,7,7,0,0,0,2.52,2.52,6.61,6.61,0,0,0,3.42.93,6.5,6.5,0,0,0,3.39-.93,6.79,6.79,0,0,0,2.47-2.52,7.15,7.15,0,0,0,0-7,6.78,6.78,0,0,0-2.47-2.49,6.68,6.68,0,0,0-3.39-.91A6.89,6.89,0,0,0,903.62,191.32Z"/><path class="cls-1" d="M930.73,190.93a9.83,9.83,0,0,0-2.87-.52,4.09,4.09,0,0,0-2.2.52,1.64,1.64,0,0,0-.81,1.45,1.91,1.91,0,0,0,.56,1.4,4.38,4.38,0,0,0,1.42.93,22.71,22.71,0,0,0,2.33.79,25.46,25.46,0,0,1,3.37,1.22,6,6,0,0,1,2.24,1.79,5,5,0,0,1,.92,3.12,5.38,5.38,0,0,1-1,3.23A6.34,6.34,0,0,1,932,207a10.28,10.28,0,0,1-4,.73,12.72,12.72,0,0,1-4.62-.88,13.24,13.24,0,0,1-3.94-2.36l1.62-3.3a11.76,11.76,0,0,0,3.44,2.23,9.19,9.19,0,0,0,3.56.81,4.58,4.58,0,0,0,2.55-.62,2.06,2.06,0,0,0,.36-3.13,4.39,4.39,0,0,0-1.43-.91c-.58-.23-1.37-.49-2.38-.78a29,29,0,0,1-3.35-1.18,5.89,5.89,0,0,1-2.23-1.75,4.87,4.87,0,0,1-.92-3.08,5.11,5.11,0,0,1,.94-3.08,6,6,0,0,1,2.66-2,10.19,10.19,0,0,1,4-.73,13.58,13.58,0,0,1,3.89.58,13.32,13.32,0,0,1,3.43,1.56l-1.56,3.39A14.63,14.63,0,0,0,930.73,190.93Z"/></g></g></svg>