<svg xmlns="http://www.w3.org/2000/svg" viewBox="0 0 45.5 53.5"><defs><style>.cls-1{fill:#ffcc05;}.cls-2{fill:#6abc46;}.cls-3{fill:#fff;}.cls-4{fill:#299446;}</style></defs><title>Recurso 6</title><g id="Capa_2" data-name="Capa 2"><g id="Layer_1" data-name="Layer 1"><path class="cls-1" d="M45.5,45.76a4,4,0,0,1-7.91,0c0-.13,0-.26,0-.39a2.89,2.89,0,0,1,0-.29,3,3,0,0,1,.1-.43v0h0s0,0,0,0h0l0-.11,0,0s0,0,0,0A4,4,0,0,1,40,42.11L40.3,42l.38-.1.36-.07h0a4.07,4.07,0,0,1,.5,0A4,4,0,0,1,45.5,45.76Z"/><path class="cls-2" d="M40.84,11.29a9.88,9.88,0,0,1-19.76,0c0-.32,0-.64,0-1s.06-.49.1-.74.15-.72.25-1.07a.49.49,0,0,1,0-.11h0l0-.1h0L21.63,8l0-.1a.36.36,0,0,1,0-.11,9.9,9.9,0,0,1,5.4-5.63c.24-.1.49-.19.73-.27a8.21,8.21,0,0,1,1-.27,8.72,8.72,0,0,1,.89-.16h0A10.39,10.39,0,0,1,31,1.4,9.88,9.88,0,0,1,40.84,11.29Z"/><path class="cls-3" d="M43.3,34.24a1.47,1.47,0,0,1,.42,1.44c-.1.41-.48,1.17-1.86,1.55l-10,2.85a.45.45,0,0,1,0,.2,16.15,16.15,0,0,1-1.71,4.62l-.22.35a4.23,4.23,0,0,1-3.29,1.55h-.22a3.62,3.62,0,0,1-2.65-1.19,4.82,4.82,0,0,1-.65-3.71l0-.16c-.66.57-1.62,1.39-2.17,1.76a6.38,6.38,0,0,1-3.28,1,4,4,0,0,1-2.27-.64,2.31,2.31,0,0,1-1.1-1.51,2.68,2.68,0,0,1,.13-1.41,4.56,4.56,0,0,1-.62,0,3,3,0,0,1-2.6-1.35,3,3,0,0,1-.38-3.15,4.09,4.09,0,0,1-2.22-1.85,2.49,2.49,0,0,1,0-2.07,5.45,5.45,0,0,1,2-2.41,4.63,4.63,0,0,0,.68-.57L8.5,27.38a.59.59,0,0,1-.14-.18c-2.88-.62-4.81-1.61-7.23-6.37-2.75-5.44.15-9.58,2-10.73A9.51,9.51,0,0,1,8.32,8.52h0a.45.45,0,0,1,.45.39,8.19,8.19,0,0,1,2,.26h0a.45.45,0,0,1,.53-.35c.27,0,.55.12.82.19a26.14,26.14,0,0,1,5.66,2.26c2.76,1.45,4.67,2.4,6.07,3.1,2.95,1.47,3.48,1.74,4.1,2.82a73.59,73.59,0,0,1,2.77,7.51Zm-.45,1.22a.6.6,0,0,0-.16-.56L31.23,26.2l-1-.77-.12-.09-.24-.19c-4.64-3.43-10.36-2.33-12.23-1.83.48.52,1,1.08,1.59,1.64a.79.79,0,0,1,.29-.18,2.89,2.89,0,0,1,2.1.2l.32-.12a.81.81,0,0,1,.7.16c.19.16.19.36,0,.43l-.26.09a1.53,1.53,0,0,1,.41.65c.08.22-.14.38-.49.34a1,1,0,0,1-.53-.22,1.09,1.09,0,0,1-.3-.43,1,1,0,0,0-.67-.43c-.36-.06-.62.07-.51.33s.2.32.3.52h0c.66.66,1.26,1.27,1.73,1.85a8.48,8.48,0,0,1,3.78-.81c3.23,0,5.76,1.48,5.76,3.36s-2.53,3.36-5.76,3.36a9.11,9.11,0,0,1-3.43-.64,3.51,3.51,0,0,1-1.05.83,4,4,0,0,1-1.91.56h-.06l5.8,4.46c.34.26.63.46.87.61l0,0a1.89,1.89,0,0,0,1.84.28l13.43-3.82C42.3,36.17,42.75,35.84,42.85,35.46ZM30.92,40.35l-2.49.7a3.16,3.16,0,0,1-.93.15A2.89,2.89,0,0,1,26,40.75l-1.86.31L24,42a4.07,4.07,0,0,0,.45,3,2.8,2.8,0,0,0,2,.86,3.42,3.42,0,0,0,2.68-1.16,3.13,3.13,0,0,0,.2-.3A15.78,15.78,0,0,0,30.92,40.35Zm0-9.65c0-1.33-2.23-2.46-4.86-2.46a7.8,7.8,0,0,0-3.24.65,2.68,2.68,0,0,1,.49,1.24,5.4,5.4,0,0,1-.19,2.51,8,8,0,0,0,2.94.52C28.73,33.16,31,32,31,30.7Zm-1.44-6.86s0,0,0,0a56.29,56.29,0,0,0-2.31-6.16c-.48-.85-.85-1-3.71-2.46-1.41-.7-3.32-1.65-6.1-3.11A25.3,25.3,0,0,0,12.16,10L8.72,9.21a.48.48,0,0,1-.38.21,8.54,8.54,0,0,0-4.76,1.44c-1.6,1-4.11,4.68-1.64,9.57,2.61,5.15,4.6,5.52,7.6,6.08,2.36.43,3.73,2,5,3.58a19.66,19.66,0,0,0,2,2.1c2.29,2,3.24,2,4.62,1.27s1.39-1.72,1.26-3.26c-.05-.67-1-1.76-2.13-2.88-.31-.33-.64-.65-1-1l-.16-.15c-.8-.78-1.63-1.59-2.31-2.36-.14-.16-.26-.32-.37-.47h0l-.06-.07h0A3.11,3.11,0,0,1,16.16,20l0-.08a.45.45,0,0,1,.44-.37.46.46,0,0,1,.45.46.81.81,0,0,1-.1.35,2.21,2.21,0,0,0,.07,2.14c1.48-.44,7.28-1.86,12.39,1.26h0ZM23.7,40.22,24.93,40l0,0-9.09-7,5.61,6.88a2.89,2.89,0,0,0,2.25.34Zm-1.3,1a3.86,3.86,0,0,1-1.49-.55l-.08,0,0-.06-.68-.82h0l-2,.39a3.68,3.68,0,0,1-.66.06A3.41,3.41,0,0,1,16.35,40l-.17-.08-.67.85a2.08,2.08,0,0,0-.31,1.38,1.5,1.5,0,0,0,.71.93c1.56,1,3.78.21,4.55-.32A22.39,22.39,0,0,0,22.4,41.17ZM19.46,38.9l-6.53-8,0-.15-.07-.2a.3.3,0,0,0,0,.16.36.36,0,0,0,.08.15l0,0,2.31,6.76a2.25,2.25,0,0,0,.83,1.17,2.3,2.3,0,0,0,.58.31,2.4,2.4,0,0,0,1.25.07Zm-4.39.94.33-.4a3.24,3.24,0,0,1-1-1.49l-1-3-.2.18a2.49,2.49,0,0,1-.23.22c-1.14,1-2.07,2.09-.94,3.76a2.41,2.41,0,0,0,2.95.78ZM12.46,29.28l.67.52c-.24-.27-.49-.52-.74-.77a.66.66,0,0,0-.19-.18,6.3,6.3,0,0,0-1.81-1.16l1.48,1.14ZM13,34l-1.23-3.62c-.19.17-.39.32-.6.48a4.6,4.6,0,0,0-1.71,2,1.64,1.64,0,0,0,0,1.35,3.25,3.25,0,0,0,1.71,1.37.51.51,0,0,1,.16.09,8.28,8.28,0,0,1,1-1,2.23,2.23,0,0,0,.22-.21C12.71,34.28,12.88,34.12,13,34Z"/><path class="cls-3" d="M42.69,34.9a.6.6,0,0,1,.16.56c-.1.38-.55.71-1.23.9L28.19,40.18a1.89,1.89,0,0,1-1.84-.28l0,0c-.24-.15-.53-.35-.87-.61l-5.8-4.46h.06a4,4,0,0,0,1.91-.56,3.51,3.51,0,0,0,1.05-.83,9.11,9.11,0,0,0,3.43.64c3.23,0,5.76-1.47,5.76-3.36s-2.53-3.36-5.76-3.36a8.48,8.48,0,0,0-3.78.81c-.47-.58-1.07-1.19-1.73-1.85h0c-.1-.2-.24-.36-.3-.52s.15-.39.51-.33a1,1,0,0,1,.67.43,1.09,1.09,0,0,0,.3.43,1,1,0,0,0,.53.22c.35,0,.57-.12.49-.34a1.53,1.53,0,0,0-.41-.65l.26-.09c.18-.07.18-.27,0-.43a.81.81,0,0,0-.7-.16L21.6,25a2.89,2.89,0,0,0-2.1-.2.79.79,0,0,0-.29.18c-.56-.56-1.11-1.12-1.59-1.64,1.87-.5,7.59-1.6,12.23,1.83l.24.19.12.09,1,.8,0,0ZM34.17,36c.35,0,.57-.12.5-.34a1.75,1.75,0,0,0-.41-.65l.25-.09c.19-.08.19-.27,0-.43a.83.83,0,0,0-.71-.16l-.32.11a2.91,2.91,0,0,0-2.09-.2.65.65,0,0,0-.41,1c.1.18.44.65.28.8s-.78,0-1-.36a.64.64,0,0,0-.26-.34c-.4-.25-1-.18-.94.21a1.05,1.05,0,0,0,.24.47l-.22.07c-.21.08-.24.29-.05.47a.75.75,0,0,0,.71.17l.3-.11.22.11a2.37,2.37,0,0,0,1.71.15.72.72,0,0,0,.55-.64c0-.42-.29-.68-.4-.94s.16-.39.51-.33a1,1,0,0,1,.67.42c.1.15.12.31.3.44A1.2,1.2,0,0,0,34.17,36Z"/><path class="cls-3" d="M34.67,35.65c.07.22-.15.38-.5.34a1.2,1.2,0,0,1-.53-.22c-.18-.13-.2-.29-.3-.44a1,1,0,0,0-.67-.42c-.35-.06-.62.07-.51.33s.43.52.4.94a.72.72,0,0,1-.55.64,2.37,2.37,0,0,1-1.71-.15l-.22-.11-.3.11a.75.75,0,0,1-.71-.17c-.19-.18-.16-.39.05-.47l.22-.07a1.05,1.05,0,0,1-.24-.47c0-.39.54-.46.94-.21a.64.64,0,0,1,.26.34c.18.35.75.56,1,.36s-.18-.62-.28-.8a.65.65,0,0,1,.41-1,2.91,2.91,0,0,1,2.09.2l.32-.11a.83.83,0,0,1,.71.16c.19.16.19.35,0,.43l-.25.09A1.75,1.75,0,0,1,34.67,35.65Z"/><polygon class="cls-3" points="31.23 26.2 31.25 26.23 30.21 25.43 31.23 26.2"/><path class="cls-3" d="M28.43,41.05l2.49-.7a15.78,15.78,0,0,1-1.55,4.08,3.13,3.13,0,0,1-.2.3,3.42,3.42,0,0,1-2.68,1.16,2.8,2.8,0,0,1-2-.86A4.07,4.07,0,0,1,24,42l.16-1L26,40.75a2.89,2.89,0,0,0,1.48.45A3.16,3.16,0,0,0,28.43,41.05Z"/><path class="cls-3" d="M26.1,28.24c2.63,0,4.86,1.13,4.86,2.46s-2.23,2.46-4.86,2.46a8,8,0,0,1-2.94-.52,5.4,5.4,0,0,0,.19-2.51,2.68,2.68,0,0,0-.49-1.24A7.8,7.8,0,0,1,26.1,28.24Z"/><path class="cls-3" d="M29.51,23.8s0,0,0,0l-.08-.05Z"/><path class="cls-3" d="M29.51,23.8h-.07c-5.11-3.12-10.91-1.7-12.39-1.26A2.21,2.21,0,0,1,17,20.39a.81.81,0,0,0,.1-.35.46.46,0,0,0-.45-.46.45.45,0,0,0-.44.37l0,.08a3.11,3.11,0,0,0,.28,3.25h0l.06.07h0c.11.15.23.31.37.47.68.77,1.51,1.58,2.31,2.36l.16.15,0,0,1,.94c1.12,1.12,2.08,2.21,2.13,2.88.13,1.54.11,2.52-1.26,3.26s-2.33.73-4.62-1.27a19.66,19.66,0,0,1-2-2.1c-1.31-1.54-2.68-3.15-5-3.58-3-.56-5-.93-7.6-6.08-2.47-4.89,0-8.56,1.64-9.57A8.54,8.54,0,0,1,8.34,9.42a.48.48,0,0,0,.38-.21l3.44.74a25.3,25.3,0,0,1,5.23,2.12c2.78,1.46,4.69,2.41,6.1,3.11,2.86,1.42,3.23,1.61,3.71,2.46A56.29,56.29,0,0,1,29.51,23.8Z"/><path class="cls-3" d="M24.93,40l-1.23.21h0a2.89,2.89,0,0,1-2.25-.34L15.81,33l9.09,7Z"/><path class="cls-3" d="M20.91,40.62a3.86,3.86,0,0,0,1.49.55,22.39,22.39,0,0,1-1.94,1.57c-.77.53-3,1.34-4.55.32a1.5,1.5,0,0,1-.71-.93,2.08,2.08,0,0,1,.31-1.38l.67-.85.17.08a3.41,3.41,0,0,0,1.06.17,3.68,3.68,0,0,0,.66-.06l2-.39h0l.68.82,0,.06Z"/><path class="cls-3" d="M20.32,27.32l-1-.94,0,0C19.68,26.67,20,27,20.32,27.32Z"/><path class="cls-3" d="M12.93,30.89l6.53,8-1.56.3a2.4,2.4,0,0,1-1.25-.07,2.3,2.3,0,0,1-.58-.31,2.25,2.25,0,0,1-.83-1.17Z"/><path class="cls-3" d="M15.4,39.44l-.33.4-.14,0A2.41,2.41,0,0,1,12,39.08c-1.13-1.67-.2-2.74.94-3.76a2.49,2.49,0,0,0,.23-.22l.2-.18,1,3A3.24,3.24,0,0,0,15.4,39.44Z"/><path class="cls-3" d="M13.13,29.8l-.67-.52a.52.52,0,0,0-.07-.25C12.64,29.28,12.89,29.53,13.13,29.8Z"/><path class="cls-3" d="M11.79,30.35,13,34c-.14.15-.31.31-.49.47a2.23,2.23,0,0,1-.22.21,8.28,8.28,0,0,0-1,1,.51.51,0,0,0-.16-.09,3.25,3.25,0,0,1-1.71-1.37,1.64,1.64,0,0,1,0-1.35,4.6,4.6,0,0,1,1.71-2C11.4,30.67,11.6,30.52,11.79,30.35Z"/><path class="cls-3" d="M12.88,30.74l0,.15,0,0a.36.36,0,0,1-.08-.15Z"/><path class="cls-3" d="M12.81,30.54l.07.2-.06,0A.3.3,0,0,1,12.81,30.54Z"/><path class="cls-3" d="M12.46,29.28l-.59-.45a.42.42,0,0,1,.27,0l.06,0,.19.18A.52.52,0,0,1,12.46,29.28Z"/><path class="cls-3" d="M12.2,28.85l-.06,0a.42.42,0,0,0-.27,0l-1.48-1.14A6.3,6.3,0,0,1,12.2,28.85Z"/><path class="cls-4" d="M15.26,5.88a.46.46,0,0,1-.46-.45v-5A.46.46,0,0,1,15.26,0a.45.45,0,0,1,.45.45v5A.45.45,0,0,1,15.26,5.88Z"/><path class="cls-4" d="M16.74,3.39H13.6a.45.45,0,0,1,0-.9h3.14a.45.45,0,1,1,0,.9Z"/><path class="cls-4" d="M13.12,53.5a.45.45,0,0,1-.45-.45v-5a.45.45,0,0,1,.9,0v5A.45.45,0,0,1,13.12,53.5Z"/><path class="cls-4" d="M14.6,51H11.47a.45.45,0,0,1,0-.9H14.6a.45.45,0,1,1,0,.9Z"/><path class="cls-4" d="M8.63,47a.45.45,0,0,1-.45-.45V44.61a.45.45,0,1,1,.9,0v1.91A.45.45,0,0,1,8.63,47Z"/><path class="cls-4" d="M9.2,46H8a.45.45,0,1,1,0-.9H9.2a.45.45,0,1,1,0,.9Z"/><path class="cls-4" d="M29.52,23.84l-.08-.05h.07S29.52,23.82,29.52,23.84Z"/><path class="cls-4" d="M12.88,30.74l-.06,0a.3.3,0,0,1,0-.16Z"/><path class="cls-4" d="M33.48,34.44l.32-.12a.83.83,0,0,1,.71.16c.19.16.19.35,0,.43l-.25.09a1.8,1.8,0,0,1,.41.64c.07.23-.15.39-.5.35a1.09,1.09,0,0,1-.53-.22c-.18-.13-.2-.29-.3-.43a1,1,0,0,0-.67-.44c-.35,0-.62.08-.51.34s.42.52.4.94a.73.73,0,0,1-.55.64,2.34,2.34,0,0,1-1.7-.15l-.23-.11-.3.11a.73.73,0,0,1-.71-.18c-.18-.17-.16-.38.05-.46l.21-.07a1,1,0,0,1-.23-.47c-.05-.39.54-.46.93-.21a.71.71,0,0,1,.28.33c.17.36.74.57,1,.37s-.19-.61-.28-.8a.65.65,0,0,1,.41-1A2.87,2.87,0,0,1,33.48,34.44Z"/><path class="cls-4" d="M19.35,26.35l0,0,1,.94C20,27,19.68,26.67,19.35,26.35Z"/><path class="cls-4" d="M12.93,30.89l0,0a.6.6,0,0,1-.08-.16.3.3,0,0,1,0-.16l.07.2Z"/><path class="cls-4" d="M12.93,30.89l0,0a.6.6,0,0,1-.08-.16.3.3,0,0,1,0-.16l.07.2Z"/><path class="cls-4" d="M43.3,34.24,30.75,24.7A73.36,73.36,0,0,0,28,17.19c-.62-1.08-1.15-1.35-4.1-2.82-1.4-.7-3.32-1.65-6.08-3.1a24.69,24.69,0,0,0-6.47-2.45.45.45,0,1,0-.18.88,24.13,24.13,0,0,1,6.23,2.37c2.77,1.45,4.69,2.41,6.1,3.11,2.86,1.43,3.23,1.61,3.71,2.46a56.29,56.29,0,0,1,2.31,6.16s0,0,0,0l-.08-.05h0c-5.11-3.12-10.91-1.7-12.39-1.26A2.18,2.18,0,0,1,17,20.39a.81.81,0,0,0,.1-.35.45.45,0,0,0-.89-.09.59.59,0,0,1,0,.08,3.11,3.11,0,0,0,.3,3.25h0l.06.07h0a5,5,0,0,0,.37.46c.68.78,1.51,1.59,2.31,2.37l.16.15c.33.32.66.64,1,1,1.11,1.12,2.07,2.21,2.12,2.88.13,1.54.1,2.52-1.26,3.26s-2.33.73-4.62-1.26a19.69,19.69,0,0,1-2-2.11c-1.31-1.54-2.68-3.14-5-3.58-3-.56-5-.93-7.6-6.08-2.47-4.89,0-8.56,1.64-9.57A8.62,8.62,0,0,1,8.34,9.42.45.45,0,0,0,8.78,9a.46.46,0,0,0-.45-.44h0A9.58,9.58,0,0,0,3.1,10.1c-1.83,1.15-4.72,5.29-2,10.73,2.41,4.76,4.35,5.75,7.23,6.37a.49.49,0,0,0,.14.18l2.81,2.16a4.38,4.38,0,0,1-.66.57,5.4,5.4,0,0,0-2,2.41,2.52,2.52,0,0,0,0,2.08,4.12,4.12,0,0,0,2.21,1.84,3,3,0,0,0,.39,3.15,3,3,0,0,0,2.59,1.35,4.7,4.7,0,0,0,.63,0,2.58,2.58,0,0,0-.13,1.41,2.37,2.37,0,0,0,1.09,1.52,4.11,4.11,0,0,0,2.27.63,6.39,6.39,0,0,0,3.29-1c.55-.37,1.51-1.19,2.17-1.76l0,.16a4.82,4.82,0,0,0,.65,3.71,3.6,3.6,0,0,0,2.65,1.19h.22a4.23,4.23,0,0,0,3.29-1.55l.22-.35a16.59,16.59,0,0,0,1.71-4.61.38.38,0,0,0,0-.21l10-2.85c1.38-.39,1.76-1.14,1.86-1.55A1.47,1.47,0,0,0,43.3,34.24ZM19.46,38.9l-1.56.3a2.5,2.5,0,0,1-1.25-.07,2.3,2.3,0,0,1-.58-.31,2.25,2.25,0,0,1-.83-1.17l-2.31-6.76,0,0a.6.6,0,0,1-.08-.16.3.3,0,0,1,0-.16l.07.2,0,.15ZM10.39,27.69a6.12,6.12,0,0,1,1.81,1.17.45.45,0,0,1,.19.17c.26.24.5.5.74.77l-.68-.52-.59-.45Zm.77,7.9a3.25,3.25,0,0,1-1.71-1.37,1.64,1.64,0,0,1,0-1.35,4.6,4.6,0,0,1,1.71-2,7.42,7.42,0,0,0,.6-.48L13,34l-.5.47a2.23,2.23,0,0,1-.22.21,9.06,9.06,0,0,0-1,1A.38.38,0,0,0,11.16,35.59Zm3.77,4.27c-1.35.39-2.34.13-2.95-.78-1.13-1.67-.2-2.73.94-3.76l.23-.22.2-.18,1,3a3.24,3.24,0,0,0,1,1.49l-.33.4Zm5.53,2.89c-.77.52-3,1.33-4.55.31a1.49,1.49,0,0,1-.71-.94,2.06,2.06,0,0,1,.31-1.37l.67-.84.17.07a3.41,3.41,0,0,0,1.06.17,3.68,3.68,0,0,0,.66-.06l2-.39h0l.67.83,0,.06.08,0a4,4,0,0,0,1.49.55A24.82,24.82,0,0,1,20.46,42.75Zm3.24-2.54h0a2.89,2.89,0,0,1-2.25-.34L15.81,33l9.09,7,0,0Zm5.67,4.22-.2.31a3.41,3.41,0,0,1-2.69,1.15,2.75,2.75,0,0,1-2-.86A4,4,0,0,1,24,42l.16-1,1.86-.3a2.86,2.86,0,0,0,1.47.45,3.17,3.17,0,0,0,.94-.15l2.48-.71A15.23,15.23,0,0,1,29.37,44.43Zm13.48-9c-.1.38-.55.71-1.23.9L28.18,40.18a1.87,1.87,0,0,1-1.83-.28l0,0a9.72,9.72,0,0,1-.87-.61l-5.8-4.46h.05a4,4,0,0,0,1.92-.56,3.67,3.67,0,0,0,1.05-.83,8.92,8.92,0,0,0,3.43.64c3.23,0,5.76-1.47,5.76-3.36s-2.53-3.36-5.76-3.36a8.62,8.62,0,0,0-3.78.81,23.6,23.6,0,0,0-1.74-1.85h0c-.1-.19-.24-.35-.31-.51s.16-.39.52-.33a1,1,0,0,1,.66.43c.1.15.13.3.3.43a1,1,0,0,0,.54.22c.35,0,.56-.12.5-.34a1.79,1.79,0,0,0-.42-.65l.25-.09c.2-.07.2-.27,0-.43a.81.81,0,0,0-.7-.16L21.6,25a2.84,2.84,0,0,0-2.1-.2.79.79,0,0,0-.29.18c-.56-.56-1.12-1.12-1.59-1.65,1.87-.49,7.59-1.59,12.23,1.84l.24.18,1.14.87h0l11.46,8.7A.6.6,0,0,1,42.85,35.46Zm-19.5-5.33a2.68,2.68,0,0,0-.49-1.24,7.77,7.77,0,0,1,3.24-.65c2.63,0,4.86,1.13,4.86,2.46s-2.23,2.46-4.86,2.46a8,8,0,0,1-2.94-.52A5.42,5.42,0,0,0,23.35,30.13Z"/><path class="cls-4" d="M12.39,29l-.19-.17A.45.45,0,0,1,12.39,29Z"/><polygon class="cls-4" points="31.24 26.23 30.09 25.33 31.23 26.2 31.23 26.2 31.24 26.23"/><path class="cls-4" d="M12.45,29.28l-.59-.45a.45.45,0,0,1,.28,0l.06,0a.45.45,0,0,1,.19.17A.42.42,0,0,1,12.45,29.28Z"/></g></g></svg>