<svg xmlns="http://www.w3.org/2000/svg" viewBox="0 0 60.22 51.22"><defs><style>.cls-1{fill:#6abc46;}.cls-2{fill:#ffcc05;}.cls-3{fill:#fff;}.cls-4{fill:#299446;}</style></defs><title>Recurso 12</title><g id="Capa_2" data-name="Capa 2"><g id="Layer_1" data-name="Layer 1"><path class="cls-1" d="M20.15,10.08A10.08,10.08,0,0,1,0,10.08c0-.33,0-.65.05-1a6.31,6.31,0,0,1,.1-.76A10.3,10.3,0,0,1,.4,7.25a.76.76,0,0,1,0-.11h0L.47,7h0l.09-.28,0-.11s0-.07,0-.11A10.08,10.08,0,0,1,6.16.79c.24-.1.49-.2.74-.28a8,8,0,0,1,1-.27,8.44,8.44,0,0,1,.9-.16h0A10.9,10.9,0,0,1,10.08,0,10.07,10.07,0,0,1,20.15,10.08Z"/><path class="cls-2" d="M17.14,43.63a3.95,3.95,0,0,1-7.9,0,2.36,2.36,0,0,1,0-.38c0-.1,0-.2,0-.3a3,3,0,0,1,.09-.43l0,0h0s0,0,0,0h0s0-.07,0-.11v0s0,0,0,0A4,4,0,0,1,11.65,40a1.72,1.72,0,0,1,.29-.11,2.85,2.85,0,0,1,.39-.11,2.25,2.25,0,0,1,.36-.06h0a4,4,0,0,1,.5,0A4,4,0,0,1,17.14,43.63Z"/><path class="cls-3" d="M59.79,31.92V33.7c0,3.11-4.17,5.54-9.54,5.61l-.14,1.43a2.82,2.82,0,0,1-.07.31.57.57,0,0,1,.11.41L50,43.16c-.16,1.06-1.1,1.89-2.57,2.3L28.93,50.72a4.81,4.81,0,0,1-1.29.21c-1,0-1.93-.44-3.53-1.67L2.67,32.85a2.46,2.46,0,0,1-.9-1.68v0l.13-2.36v-.05L2,26.52a2.36,2.36,0,0,1,0-.28v0l.09-1.66h0a1.8,1.8,0,0,1-.17-.71v0L2,21.24a.5.5,0,0,1,0-.12s0,0,0,0a1.61,1.61,0,0,1,0-.37A2,2,0,0,1,3.64,19.3L23.7,13.54c1.56-.44,2.47-.16,4.2,1.32L31,17.18l-.2-.85a.58.58,0,0,1,.19-.58,3.43,3.43,0,0,1-.21-1.19V12.78a.58.58,0,0,1,.21-.44,3.47,3.47,0,0,1-.21-1.19V9.37a.54.54,0,0,1,.32-.51,3.52,3.52,0,0,1-.32-1.46c0-3.15,4.29-5.62,9.78-5.62S50.3,4.25,50.3,7.4A3.52,3.52,0,0,1,50,8.86a.56.56,0,0,1,.32.51v1.78a3.53,3.53,0,0,1-.22,1.19.56.56,0,0,1,.22.44v1.78a3.44,3.44,0,0,1-.22,1.19.59.59,0,0,1,.22.44V18a4.06,4.06,0,0,1-1.44,3c.38,0,.76,0,1.15,0,5.49,0,9.78,2.47,9.78,5.62A3.48,3.48,0,0,1,59.48,28a.55.55,0,0,1,.31.51v1.78a3.43,3.43,0,0,1-.21,1.19A.59.59,0,0,1,59.79,31.92ZM58.66,33.7V33c-1.62,1.76-4.82,2.94-8.57,2.95,0,0,0,.05,0,.09a.54.54,0,0,1,.28.55l-.16,1.64C54.8,38.12,58.66,36.09,58.66,33.7Zm0-3.42V29.21c-1.61,1.73-4.73,2.9-8.42,2.95a2.07,2.07,0,0,1,.21,1.46,2,2,0,0,1-.17.45v0l-.07.64C54.81,34.7,58.66,32.67,58.66,30.28Zm0-3.75c0-2.42-4-4.48-8.65-4.48a17.68,17.68,0,0,0-3.28.3,10.91,10.91,0,0,0-2.81.92h0a4.35,4.35,0,0,0-2.22,2.07l7.66,5.82a.58.58,0,0,1,.39-.13H50C54.7,31,58.66,29,58.66,26.53Zm-9.32,6.83a1.19,1.19,0,0,0-.48-1.14L27.18,15.74c-1.62-1.38-2.13-1.4-3.17-1.1L4,20.39a1,1,0,0,0-.74.62,1.21,1.21,0,0,0,.5,1.06L25.39,38.55c2.14,1.64,2.75,1.57,3.81,1.26l18.49-5.25C48.62,34.3,49.22,33.86,49.34,33.36ZM49.15,18v-.74c-1.62,1.77-4.85,3-8.63,3-3.54,0-6.57-1-8.29-2.6l0,.14a.53.53,0,0,1,0,.41l5.57,4.23a.62.62,0,0,1,.38-.09,15.34,15.34,0,0,0,2.36.18,15.07,15.07,0,0,0,3.07-.31,11.88,11.88,0,0,0,2.7-.87h0C48,20.45,49.15,19.27,49.15,18Zm0-3.42v-.75a5,5,0,0,1-.57.55.61.61,0,0,1-.36.13.56.56,0,0,1-.44-.21.57.57,0,0,1,.07-.8,3.21,3.21,0,0,0,1.3-2.33V10.08C47.53,11.85,44.3,13,40.52,13s-7-1.17-8.64-2.94v1.07c0,2.43,3.95,4.48,8.64,4.48a14.62,14.62,0,0,0,4.68-.74A.57.57,0,0,1,45.56,16a15.62,15.62,0,0,1-5,.79c-3.79,0-7-1.18-8.64-2.95v.74c0,2.43,3.95,4.49,8.64,4.49S49.15,17,49.15,14.56Zm-.09,23.53.07-.72a4.54,4.54,0,0,1-1.59.77l-8.19,2.23-.15,0a.57.57,0,0,1-.55-.43.57.57,0,0,1,.4-.69L47.24,37c1-.3,1.64-.78,1.74-1.36l0-.42a5.56,5.56,0,0,1-1,.4L29.51,40.91a4.39,4.39,0,0,1-1.29.21c-1,0-1.92-.44-3.52-1.67L3.08,23v.23l0,.55a1,1,0,0,0,.19.48,1.54,1.54,0,0,0,.32.38L24.93,41c2.13,1.65,2.75,1.57,3.81,1.27l7.56-2.15a.58.58,0,0,1,.71.4.57.57,0,0,1-.4.7l-7.56,2.15a4.78,4.78,0,0,1-1.29.22c-1,0-1.92-.45-3.53-1.68L3.14,25.8v.41a.69.69,0,0,0,0,.2,1.65,1.65,0,0,0,.47.67L25,43.43c2.14,1.65,2.75,1.57,3.81,1.27l18.49-5.26C48.33,39.16,49,38.66,49.06,38.09ZM49,40.6l.07-.69a4.83,4.83,0,0,1-1.43.63L29.14,45.8a4.81,4.81,0,0,1-1.29.21c-1,0-1.93-.44-3.53-1.68L3.07,28.09l0,.48v.18a1.54,1.54,0,0,0,.51.84L24.93,45.94c2.14,1.64,2.75,1.57,3.81,1.27L47.23,42C48.25,41.66,48.88,41.17,49,40.6ZM48.85,43l.06-.56a4.93,4.93,0,0,1-1.37.6L29.05,48.31a4.75,4.75,0,0,1-1.29.21c-1,0-1.92-.44-3.53-1.67L2.94,30.56l0,.57a1.39,1.39,0,0,0,.5.87L24.8,48.36c2.14,1.64,2.75,1.57,3.81,1.27L47.1,44.37C48.13,44.08,48.76,43.58,48.85,43Zm.3-35.61c0-2.43-3.95-4.48-8.63-4.48S31.88,5,31.88,7.4s3.95,4.48,8.64,4.48S49.15,9.83,49.15,7.4ZM41.53,23.58l-1,0c-.39,0-.78,0-1.17,0l1.41,1.08A4.1,4.1,0,0,1,41.53,23.58Z"/><path class="cls-3" d="M58.66,33v.75c0,2.39-3.86,4.42-8.46,4.48l.16-1.64a.54.54,0,0,0-.28-.55s0-.06,0-.09C53.84,35.89,57,34.71,58.66,33Z"/><path class="cls-3" d="M58.66,29.21v1.07c0,2.39-3.85,4.42-8.45,4.48l.07-.64v0a2,2,0,0,0,.17-.45,2.07,2.07,0,0,0-.21-1.46C53.93,32.11,57.05,30.94,58.66,29.21Z"/><path class="cls-3" d="M50,22.05c4.69,0,8.65,2.06,8.65,4.48S54.7,31,50,31h-.27a.58.58,0,0,0-.39.13l-7.66-5.82a4.35,4.35,0,0,1,2.22-2.07h0a13,13,0,0,0,2.81-.92A17.68,17.68,0,0,1,50,22.05Zm3.25,5.14c.48,0,.78-.17.68-.48a2.34,2.34,0,0,0-.56-.89l.34-.12c.27-.11.27-.37,0-.59a1.17,1.17,0,0,0-1-.23l-.43.17a3.92,3.92,0,0,0-2.88-.28.89.89,0,0,0-.57,1.3c.13.25.6.89.39,1.1s-1.07,0-1.31-.5a1,1,0,0,0-.38-.46c-.54-.34-1.35-.25-1.28.29a1.25,1.25,0,0,0,.32.64l-.29.1c-.3.11-.33.4-.08.64a1,1,0,0,0,1,.24l.42-.15a3,3,0,0,0,.31.15,3.2,3.2,0,0,0,2.34.21,1,1,0,0,0,.77-.89c0-.57-.41-.93-.56-1.29s.22-.53.7-.46a1.36,1.36,0,0,1,.92.59c.14.21.17.42.42.61A1.59,1.59,0,0,0,53.26,27.19Z"/><path class="cls-3" d="M53.94,26.71c.1.31-.2.52-.68.48a1.59,1.59,0,0,1-.73-.3c-.25-.19-.28-.4-.42-.61a1.36,1.36,0,0,0-.92-.59c-.48-.07-.84.11-.7.46s.58.72.56,1.29a1,1,0,0,1-.77.89,3.2,3.2,0,0,1-2.34-.21,3,3,0,0,1-.31-.15l-.42.15a1,1,0,0,1-1-.24c-.25-.24-.22-.53.08-.64l.29-.1a1.25,1.25,0,0,1-.32-.64c-.07-.54.74-.63,1.28-.29a1,1,0,0,1,.38.46c.24.5,1,.77,1.31.5s-.26-.85-.39-1.1a.89.89,0,0,1,.57-1.3,3.92,3.92,0,0,1,2.88.28l.43-.17a1.17,1.17,0,0,1,1,.23c.27.22.27.48,0,.59l-.34.12A2.34,2.34,0,0,1,53.94,26.71Z"/><path class="cls-3" d="M48.86,32.22a1.19,1.19,0,0,1,.48,1.14c-.12.5-.72.94-1.65,1.2L29.2,39.81c-1.06.31-1.67.38-3.81-1.26L3.71,22.07A1.21,1.21,0,0,1,3.21,21,1,1,0,0,1,4,20.39L24,14.64c1-.3,1.55-.28,3.17,1.1ZM34.2,26.72c0-2.57-3.46-4.58-7.88-4.58s-7.87,2-7.87,4.58,3.45,4.58,7.87,4.58S34.2,29.29,34.2,26.72Z"/><path class="cls-3" d="M49.15,17.24V18c0,1.29-1.11,2.47-2.85,3.3h0a12.4,12.4,0,0,0-2.7.87,15.07,15.07,0,0,1-3.07.31,15.34,15.34,0,0,1-2.36-.18.62.62,0,0,0-.38.09l-5.57-4.23a.53.53,0,0,0,0-.41l0-.14c1.72,1.57,4.75,2.6,8.29,2.6C44.3,20.19,47.53,19,49.15,17.24Z"/><path class="cls-3" d="M49.15,13.81v.75c0,2.43-3.95,4.49-8.63,4.49S31.88,17,31.88,14.56v-.74c1.63,1.77,4.85,2.95,8.64,2.95a15.62,15.62,0,0,0,5-.79.57.57,0,0,0-.36-1.09,14.62,14.62,0,0,1-4.68.74c-4.69,0-8.64-2.05-8.64-4.48V10.08C33.51,11.85,36.73,13,40.52,13s7-1.17,8.63-2.94v1.07a3.21,3.21,0,0,1-1.3,2.33.57.57,0,0,0-.07.8.56.56,0,0,0,.44.21.61.61,0,0,0,.36-.13A5,5,0,0,0,49.15,13.81Z"/><path class="cls-3" d="M49.13,37.37l-.07.72c-.09.57-.73,1.07-1.75,1.35L28.82,44.7c-1.06.3-1.67.38-3.81-1.27L3.63,27.08a1.65,1.65,0,0,1-.47-.67.69.69,0,0,1,0-.2V25.8L24.23,41.93c1.61,1.23,2.56,1.68,3.53,1.68a4.78,4.78,0,0,0,1.29-.22l7.56-2.15a.57.57,0,0,0,.4-.7.58.58,0,0,0-.71-.4l-7.56,2.15c-1.06.3-1.68.38-3.81-1.27L3.55,24.67a1.54,1.54,0,0,1-.32-.38A1,1,0,0,1,3,23.81l0-.55V23L24.7,39.45c1.6,1.23,2.54,1.67,3.52,1.67a4.39,4.39,0,0,0,1.29-.21L48,35.66a5.56,5.56,0,0,0,1-.4l0,.42c-.1.58-.73,1.06-1.74,1.36l-8.19,2.23a.57.57,0,0,0-.4.69.57.57,0,0,0,.55.43l.15,0,8.19-2.23A4.54,4.54,0,0,0,49.13,37.37Z"/><path class="cls-3" d="M49.05,39.91,49,40.6c-.1.57-.73,1.06-1.75,1.36L28.74,47.21c-1.06.3-1.67.37-3.81-1.27L3.55,29.59A1.54,1.54,0,0,1,3,28.75v-.18l0-.48L24.32,44.33c1.6,1.24,2.55,1.68,3.53,1.68a4.81,4.81,0,0,0,1.29-.21l18.48-5.26A4.83,4.83,0,0,0,49.05,39.91Z"/><path class="cls-3" d="M48.91,42.45l-.06.56c-.09.57-.72,1.07-1.75,1.36L28.61,49.63c-1.06.3-1.67.37-3.81-1.27L3.42,32a1.39,1.39,0,0,1-.5-.87l0-.57L24.23,46.85c1.61,1.23,2.56,1.67,3.53,1.67a4.75,4.75,0,0,0,1.29-.21l18.49-5.26A4.93,4.93,0,0,0,48.91,42.45Z"/><path class="cls-3" d="M40.52,2.92c4.68,0,8.63,2.05,8.63,4.48s-3.95,4.48-8.63,4.48S31.88,9.83,31.88,7.4,35.83,2.92,40.52,2.92Zm3.09,4.61c.48,0,.79-.16.69-.47a2.3,2.3,0,0,0-.57-.89L44.08,6c.27-.09.26-.36,0-.58a1.17,1.17,0,0,0-1-.22l-.43.16a4,4,0,0,0-2.89-.28.9.9,0,0,0-.56,1.31c.13.26.6.89.39,1.09s-1.08,0-1.32-.5a.92.92,0,0,0-.37-.45c-.54-.34-1.35-.25-1.28.29a1.23,1.23,0,0,0,.32.63l-.29.12c-.3.1-.33.38-.08.62a1,1,0,0,0,1,.25L38,8.32l.3.15a3.28,3.28,0,0,0,2.35.21,1,1,0,0,0,.76-.89c0-.57-.4-.94-.56-1.3s.23-.53.71-.46a1.4,1.4,0,0,1,.92.6c.13.2.17.42.42.6A1.37,1.37,0,0,0,43.61,7.53Z"/><path class="cls-3" d="M46.73,22.35a13,13,0,0,1-2.81.92A10.91,10.91,0,0,1,46.73,22.35Z"/><path class="cls-3" d="M46.29,21.28a11.88,11.88,0,0,1-2.7.87A12.4,12.4,0,0,1,46.29,21.28Z"/><path class="cls-3" d="M44.3,7.06c.1.31-.21.52-.69.47a1.37,1.37,0,0,1-.72-.3c-.25-.18-.29-.4-.42-.6a1.4,1.4,0,0,0-.92-.6c-.48-.07-.85.11-.71.46s.59.73.56,1.3a1,1,0,0,1-.76.89,3.28,3.28,0,0,1-2.35-.21L38,8.32l-.42.15a1,1,0,0,1-1-.25c-.25-.24-.22-.52.08-.62L37,7.48a1.23,1.23,0,0,1-.32-.63c-.07-.54.74-.63,1.28-.29a.92.92,0,0,1,.37.45c.24.49,1,.78,1.32.5s-.26-.83-.39-1.09a.9.9,0,0,1,.56-1.31,4,4,0,0,1,2.89.28l.43-.16a1.17,1.17,0,0,1,1,.22c.26.22.27.49,0,.58l-.35.14A2.3,2.3,0,0,1,44.3,7.06Z"/><path class="cls-3" d="M40.52,23.6l1,0a4.1,4.1,0,0,0-.77,1.06l-1.41-1.08C39.74,23.59,40.13,23.6,40.52,23.6Z"/><path class="cls-3" d="M26.32,22.14c4.42,0,7.88,2,7.88,4.58s-3.46,4.58-7.88,4.58-7.87-2-7.87-4.58S21.9,22.14,26.32,22.14Zm6.73,4.58c0-1.87-3.08-3.44-6.73-3.44s-6.74,1.57-6.74,3.44,3.09,3.43,6.74,3.43S33.05,28.58,33.05,26.72Z"/><path class="cls-3" d="M26.32,23.28c3.65,0,6.73,1.57,6.73,3.44S30,30.15,26.32,30.15s-6.74-1.57-6.74-3.43S22.67,23.28,26.32,23.28Zm3.1,4.09c.48.05.78-.17.69-.48a2.41,2.41,0,0,0-.58-.89l.35-.13c.27-.1.26-.36,0-.58a1.12,1.12,0,0,0-1-.22l-.44.15a4,4,0,0,0-2.88-.28A.91.91,0,0,0,25,26.26c.13.25.61.88.39,1.09s-1.08,0-1.32-.5a.89.89,0,0,0-.37-.46c-.54-.34-1.34-.25-1.28.3a1.26,1.26,0,0,0,.32.63l-.29.11c-.3.11-.33.39-.08.63a1,1,0,0,0,1,.25l.42-.16a2.1,2.1,0,0,0,.3.15,3.28,3.28,0,0,0,2.35.21,1,1,0,0,0,.76-.88c0-.58-.4-.94-.55-1.3s.22-.53.7-.46a1.36,1.36,0,0,1,.92.6c.13.2.17.41.42.59A1.51,1.51,0,0,0,29.42,27.37Z"/><path class="cls-3" d="M30.11,26.89c.09.31-.21.53-.69.48a1.51,1.51,0,0,1-.73-.31c-.25-.18-.29-.39-.42-.59a1.36,1.36,0,0,0-.92-.6c-.48-.07-.85.1-.7.46s.58.72.55,1.3a1,1,0,0,1-.76.88,3.28,3.28,0,0,1-2.35-.21,2.1,2.1,0,0,1-.3-.15l-.42.16a1,1,0,0,1-1-.25c-.25-.24-.22-.52.08-.63l.29-.11a1.26,1.26,0,0,1-.32-.63c-.06-.55.74-.64,1.28-.3a.89.89,0,0,1,.37.46c.24.49,1,.77,1.32.5s-.26-.84-.39-1.09a.91.91,0,0,1,.57-1.32,4,4,0,0,1,2.88.28l.44-.15a1.12,1.12,0,0,1,1,.22c.26.22.27.48,0,.58l-.35.13A2.41,2.41,0,0,1,30.11,26.89Z"/><path class="cls-4" d="M59.89,28a3.55,3.55,0,0,0,.33-1.47c0-3.19-4.36-5.7-9.92-5.7-.4,0-.78,0-1.16,0a4.16,4.16,0,0,0,1.45-3V16a.55.55,0,0,0-.21-.44,3.6,3.6,0,0,0,.21-1.22v-1.8a.55.55,0,0,0-.22-.45,3.33,3.33,0,0,0,.22-1.21V9.09a.58.58,0,0,0-.32-.52,3.54,3.54,0,0,0,.32-1.47c0-3.19-4.35-5.7-9.91-5.7s-9.91,2.51-9.91,5.7a3.54,3.54,0,0,0,.32,1.47.58.58,0,0,0-.32.52v1.8A3.54,3.54,0,0,0,31,12.1a.59.59,0,0,0-.21.45v1.8A3.6,3.6,0,0,0,31,15.57a.57.57,0,0,0-.2.58L31,17l-3.1-2.35c-1.75-1.5-2.67-1.79-4.26-1.34L3.3,19.15a2.07,2.07,0,0,0-1.55,1.47A1.65,1.65,0,0,0,1.7,21h0a.36.36,0,0,0,0,.11l-.14,2.6v0a2,2,0,0,0,.17.72h0l-.09,1.69v0a2.36,2.36,0,0,0,0,.28h0l-.12,2.23v0l-.13,2.4v0a2.52,2.52,0,0,0,.91,1.72L24.05,49.52c1.62,1.25,2.59,1.7,3.57,1.7A4.55,4.55,0,0,0,28.93,51l18.74-5.32c1.49-.43,2.44-1.27,2.6-2.34l.17-1.73a.54.54,0,0,0-.12-.41,1.57,1.57,0,0,0,.08-.31l.14-1.45c5.45-.07,9.68-2.54,9.68-5.69V31.94A.56.56,0,0,0,60,31.5a3.59,3.59,0,0,0,.22-1.21V28.48A.58.58,0,0,0,59.89,28ZM49.43,17.82c0,1.3-1.12,2.5-2.89,3.34h0a12.15,12.15,0,0,1-2.73.89,15.9,15.9,0,0,1-5.51.13.64.64,0,0,0-.39.08L32.26,18a.58.58,0,0,0,.06-.41l0-.15c1.74,1.6,4.82,2.64,8.4,2.64,3.84,0,7.1-1.2,8.75-3Zm-7.72,5.67a4.41,4.41,0,0,0-.79,1.07l-1.43-1.09c.4,0,.79.05,1.19.05S41.37,23.51,41.71,23.49Zm-1-20.93c4.75,0,8.75,2.08,8.75,4.54s-4,4.54-8.75,4.54S31.92,9.56,31.92,7.1,35.93,2.56,40.68,2.56Zm-8.76,11c1.65,1.8,4.92,3,8.76,3a16.21,16.21,0,0,0,5.12-.8.58.58,0,0,0-.38-1.1,14.68,14.68,0,0,1-4.74.74c-4.75,0-8.76-2.07-8.76-4.54V9.81c1.65,1.79,4.92,3,8.76,3s7.1-1.2,8.75-3v1.08a3.24,3.24,0,0,1-1.32,2.37.57.57,0,0,0-.07.81.56.56,0,0,0,.44.21.58.58,0,0,0,.37-.13,6.19,6.19,0,0,0,.58-.55v.75c0,2.47-4,4.55-8.75,4.55s-8.76-2.08-8.76-4.55Zm17.2,29.59c-.09.58-.73,1.08-1.77,1.37L28.62,49.89c-1.08.31-1.7.38-3.87-1.29L3.08,32a1.43,1.43,0,0,1-.51-.88l0-.58L24.18,47.08c1.62,1.24,2.59,1.69,3.57,1.69a5,5,0,0,0,1.31-.21L47.8,43.23a5,5,0,0,0,1.38-.61Zm.13-2.44c-.09.58-.73,1.07-1.77,1.37L28.75,47.44c-1.09.31-1.7.38-3.87-1.28L3.21,29.58a1.45,1.45,0,0,1-.51-.84s0,0,0,0v-.15l0-.5L24.26,44.53c1.63,1.25,2.59,1.7,3.57,1.7A4.55,4.55,0,0,0,29.14,46l18.74-5.32A4.91,4.91,0,0,0,49.32,40Zm.08-2.55c-.08.58-.73,1.08-1.76,1.38L28.83,44.9c-1.08.31-1.7.38-3.86-1.28L3.29,27a1.72,1.72,0,0,1-.47-.67h0a.78.78,0,0,1,0-.21v-.24h0v-.18L24.18,42.09c1.62,1.25,2.59,1.7,3.57,1.7a4.66,4.66,0,0,0,1.31-.22l7.66-2.17a.58.58,0,0,0-.31-1.12l-7.66,2.18c-1.09.31-1.7.38-3.87-1.29L3.21,24.6a1.83,1.83,0,0,1-.32-.39h0a.93.93,0,0,1-.2-.49l0-.55,0-.23,21.9,16.64c1.62,1.25,2.59,1.7,3.57,1.7a5.06,5.06,0,0,0,1.32-.22l18.73-5.32a5.38,5.38,0,0,0,1-.41l0,.43c-.09.58-.73,1.08-1.76,1.37l-8.3,2.26a.58.58,0,0,0-.41.71.59.59,0,0,0,.56.43l.16,0,8.3-2.26a4.83,4.83,0,0,0,1.61-.78Zm.29-4.8c-.12.51-.73,1-1.67,1.22L29.21,40c-1.08.3-1.7.38-3.87-1.29L3.37,22a1.19,1.19,0,0,1-.5-1.08,1,1,0,0,1,.75-.62L24,14.43c1.05-.29,1.57-.28,3.21,1.12l22,16.7A1.24,1.24,0,0,1,49.62,33.4Zm9.44.35c0,2.43-3.9,4.48-8.57,4.53l.17-1.66a.59.59,0,0,0-.29-.56.19.19,0,0,0,0-.08c3.81,0,7-1.21,8.68-3Zm0-3.46c0,2.42-3.89,4.48-8.55,4.53l.06-.64s0,0,0-.06a3.3,3.3,0,0,0,.17-.45,2.17,2.17,0,0,0-.22-1.49c3.74,0,6.91-1.22,8.53-3ZM50.3,31a.9.9,0,0,0-.22,0H50a.58.58,0,0,0-.39.14l-7.76-5.9a4.44,4.44,0,0,1,2.25-2.11h0A10.89,10.89,0,0,1,47,22.25,18.24,18.24,0,0,1,50.3,22c4.75,0,8.76,2.08,8.76,4.54S55.05,31,50.3,31Z"/><path class="cls-4" d="M2.7,28.61v.13s0,0,0,0v-.1Z"/><path class="cls-4" d="M26.29,22c-4.48,0-8,2-8,4.64s3.51,4.65,8,4.65,8-2,8-4.65S30.77,22,26.29,22Zm0,8.13c-3.7,0-6.83-1.6-6.83-3.49s3.13-3.48,6.83-3.48,6.82,1.6,6.82,3.48S30,30.16,26.29,30.16Z"/><path class="cls-4" d="M30.12,26.85a2.4,2.4,0,0,0-.57-.9l.35-.13c.27-.1.27-.37,0-.59a1.13,1.13,0,0,0-1-.23l-.44.16a4,4,0,0,0-2.92-.28A.92.92,0,0,0,25,26.21c.13.25.62.9.4,1.1s-1.09,0-1.33-.5a1,1,0,0,0-.38-.46c-.55-.35-1.37-.26-1.31.29a1.32,1.32,0,0,0,.33.64l-.29.12c-.3.1-.33.39-.08.63a1,1,0,0,0,1,.26l.42-.16a2.3,2.3,0,0,0,.32.15,3.29,3.29,0,0,0,2.37.21,1,1,0,0,0,.78-.89c0-.59-.41-1-.57-1.32s.23-.54.72-.47a1.43,1.43,0,0,1,.93.61c.13.2.17.42.42.61a1.53,1.53,0,0,0,.74.3C29.91,27.38,30.22,27.16,30.12,26.85Z"/><path class="cls-4" d="M47,22.25a12.79,12.79,0,0,1-2.84.92A10.89,10.89,0,0,1,47,22.25Z"/><path class="cls-4" d="M44.51,6.75a2.4,2.4,0,0,0-.57-.9l.35-.13c.27-.1.26-.37,0-.59a1.11,1.11,0,0,0-1-.23l-.44.16a4,4,0,0,0-2.92-.28.92.92,0,0,0-.58,1.33c.13.25.62.89.4,1.1s-1.1,0-1.33-.51a1.08,1.08,0,0,0-.38-.46c-.55-.34-1.37-.25-1.31.3a1.36,1.36,0,0,0,.33.64l-.29.11c-.3.11-.34.4-.08.64a1,1,0,0,0,1,.25L38.11,8l.32.15a3.28,3.28,0,0,0,2.37.21,1,1,0,0,0,.78-.9c0-.58-.41-.94-.57-1.31s.23-.54.72-.47a1.42,1.42,0,0,1,.93.61c.13.2.17.42.42.6a1.45,1.45,0,0,0,.74.31C44.3,7.28,44.61,7.06,44.51,6.75Z"/><path class="cls-4" d="M46.53,21.16a12.15,12.15,0,0,1-2.73.89A11.82,11.82,0,0,1,46.53,21.16Z"/><path class="cls-4" d="M54.29,26.67a2.47,2.47,0,0,0-.58-.91l.35-.12c.27-.11.27-.37,0-.6a1.16,1.16,0,0,0-1-.22l-.44.16a4,4,0,0,0-2.92-.28A.91.91,0,0,0,49.13,26c.14.26.62.9.4,1.11s-1.09,0-1.33-.51a.94.94,0,0,0-.38-.45c-.55-.36-1.37-.27-1.3.28a1.28,1.28,0,0,0,.32.65l-.29.11c-.3.11-.33.39-.08.64a1,1,0,0,0,1,.25l.43-.16.31.16a3.31,3.31,0,0,0,2.38.21,1,1,0,0,0,.77-.9c0-.58-.41-.95-.56-1.31s.22-.54.71-.47a1.42,1.42,0,0,1,.93.6c.14.21.17.43.42.61a1.58,1.58,0,0,0,.74.31C54.08,27.2,54.38,27,54.29,26.67Z"/></g></g></svg>