<svg xmlns="http://www.w3.org/2000/svg" width="163.379" height="163.379" viewBox="0 0 163.379 163.379">
  <g id="Grupo_584" data-name="Grupo 584" transform="translate(5 5)">
    <g id="Grupo_583" data-name="Grupo 583">
      <ellipse id="Elipse_121" data-name="Elipse 121" cx="74.018" cy="74.018" rx="74.018" ry="74.018" transform="translate(2.672 3.038)" fill="#fcf8c1"/>
      <g id="Grupo_580" data-name="Grupo 580" transform="translate(40.641 37.037)">
        <g id="Grupo_576" data-name="Grupo 576" transform="translate(2.095 30.301)">
          <path id="Trazado_385" data-name="Trazado 385" d="M376.857,894.854l31.907-6.428,35.328,5.269-27.824,6.932Z" transform="translate(-376.857 -888.426)" fill="#8aba4f"/>
          <path id="Trazado_386" data-name="Trazado 386" d="M406.142,888.426l.9,41.3,30.727,5.246,3.7-41.277Z" transform="translate(-374.235 -888.426)" fill="#6faa52"/>
          <path id="Trazado_387" data-name="Trazado 387" d="M416.268,943.542l-34.79-8.083-4.621-41.133,39.411,5.773Z" transform="translate(-376.857 -887.898)" fill="#77af51"/>
          <path id="Trazado_388" data-name="Trazado 388" d="M413.029,900.194l27.824-6.932-3.7,41.277-24.127,9.1Z" transform="translate(-373.618 -887.993)" fill="#8aba4f"/>
          <path id="Trazado_389" data-name="Trazado 389" d="M421.919,939.834l5.927-2.235,4.7-42.656-6.11,1.56Z" transform="translate(-372.822 -887.842)" fill="#e8c836"/>
          <path id="Trazado_390" data-name="Trazado 390" d="M391.482,937.862l-4.476-42.056,7.561,1.115,3.113,42.382Z" transform="translate(-375.948 -887.765)" fill="#e8c836"/>
        </g>
        <g id="Grupo_579" data-name="Grupo 579">
          <path id="Trazado_391" data-name="Trazado 391" d="M425.235,886.22" transform="translate(-370.43 -858.323)" fill="#496b3b"/>
          <path id="Trazado_392" data-name="Trazado 392" d="M442.745,887.377,415.792,894.5l-.492,9.374,26.1-7.789Z" transform="translate(-371.32 -858.219)" fill="#77af51"/>
          <path id="Trazado_393" data-name="Trazado 393" d="M446.359,887.893l-26.942-4.706-9.014-1.575-35.469,7.112,44.473,6.288Z" transform="translate(-374.934 -858.735)" fill="#a6c670"/>
          <path id="Trazado_394" data-name="Trazado 394" d="M376.043,896.623l42.872,7.179.492-9.374-44.473-6.288Z" transform="translate(-374.934 -858.151)" fill="#8aba4f"/>
          <path id="Trazado_395" data-name="Trazado 395" d="M384.748,889.512l8.967,1.37,1,8.891-7.928-1.328Z" transform="translate(-374.055 -858.028)" fill="#e8c836"/>
          <path id="Trazado_396" data-name="Trazado 396" d="M384.748,890.09l33.79-7.032,7.511,1.312-32.334,7.091Z" transform="translate(-374.055 -858.606)" fill="#f0e96a"/>
          <path id="Trazado_397" data-name="Trazado 397" d="M428.022,890.937l-1.5,9.116,5.838-1.743,1.573-9.04Z" transform="translate(-370.315 -858.049)" fill="#e8c836"/>
          <path id="Trazado_398" data-name="Trazado 398" d="M437.126,889.767l-39.654-6.036-6.656,1.335,40.4,6.367Z" transform="translate(-373.512 -858.546)" fill="#f0e96a"/>
          <g id="Grupo_577" data-name="Grupo 577" transform="translate(11.809)">
            <path id="Trazado_399" data-name="Trazado 399" d="M385.773,873.809s8.859,12.815,21.036,14.541a10.168,10.168,0,0,0,4.246-.7l-16.409-13.327h0a20.653,20.653,0,0,1,6.62-9.418h0a1.506,1.506,0,0,0-1.345-2.626l-5.267,1.46-5.724,4.5Z" transform="translate(-385.773 -860.471)" fill="#e8c73f"/>
            <path id="Trazado_400" data-name="Trazado 400" d="M409.678,888.5l-8.018-18.908a1.355,1.355,0,0,0-.912-.784,15.119,15.119,0,0,0-7.7.194,13.782,13.782,0,0,0-7.276,4.955l3.157-5.568a13.453,13.453,0,0,1,3.552-4.066h0a17.243,17.243,0,0,1,9.275-3.49l3.029-.208a2.526,2.526,0,0,1,2.645,2l5.091,24.43Z" transform="translate(-385.773 -860.616)" fill="#f0e96a"/>
          </g>
          <g id="Grupo_578" data-name="Grupo 578" transform="translate(35.594 0.011)">
            <path id="Trazado_401" data-name="Trazado 401" d="M434.256,873.851s-8.882,12.8-21.061,14.5a10.161,10.161,0,0,1-4.245-.7l16.431-13.3h0a20.662,20.662,0,0,0-6.6-9.429h0a1.506,1.506,0,0,1,1.348-2.624l5.265,1.469,5.717,4.507Z" transform="translate(-407.482 -860.481)" fill="#e8c73f"/>
            <path id="Trazado_402" data-name="Trazado 402" d="M410.446,888.5,418.5,869.6a1.353,1.353,0,0,1,.914-.782,15.1,15.1,0,0,1,7.7.207A13.782,13.782,0,0,1,434.376,874l-3.149-5.573a13.461,13.461,0,0,0-3.544-4.073h0a17.251,17.251,0,0,0-9.269-3.505l-3.029-.214a2.526,2.526,0,0,0-2.65,2L407.6,887.053Z" transform="translate(-407.603 -860.625)" fill="#f0e96a"/>
          </g>
        </g>
      </g>
      <g id="Grupo_582" data-name="Grupo 582" transform="translate(27.046 13.241)">
        <rect id="Rectángulo_183" data-name="Rectángulo 183" width="10.103" height="3.054" rx="1.402" transform="matrix(0.986, -0.166, 0.166, 0.986, 92.576, 49.033)" fill="#ebc939"/>
        <rect id="Rectángulo_184" data-name="Rectángulo 184" width="10.103" height="3.054" rx="1.402" transform="translate(82.039 22.495) rotate(-45)" fill="#ebc939"/>
        <rect id="Rectángulo_185" data-name="Rectángulo 185" width="3.054" height="10.103" rx="1.402" transform="translate(49.456)" fill="#ebc939"/>
        <rect id="Rectángulo_186" data-name="Rectángulo 186" width="10.102" height="3.054" rx="1.402" transform="translate(66.717 15.112) rotate(-71.284)" fill="#699d4f"/>
        <rect id="Rectángulo_187" data-name="Rectángulo 187" width="10.102" height="3.054" rx="1.402" transform="matrix(0.912, -0.411, 0.411, 0.912, 90.425, 33.402)" fill="#699d4f"/>
        <g id="Grupo_581" data-name="Grupo 581" transform="translate(0 4.71)">
          <rect id="Rectángulo_188" data-name="Rectángulo 188" width="3.054" height="10.103" rx="1.402" transform="translate(0.015 48.402) rotate(-87.191)" fill="#ebc939"/>
          <rect id="Rectángulo_189" data-name="Rectángulo 189" width="3.054" height="10.103" rx="1.402" transform="translate(7.774 14.398) rotate(-51.752)" fill="#ebc939"/>
          <rect id="Rectángulo_190" data-name="Rectángulo 190" width="3.054" height="10.102" rx="1.402" transform="translate(24.845 1.313) rotate(-25.468)" fill="#699d4f"/>
          <rect id="Rectángulo_191" data-name="Rectángulo 191" width="3.054" height="10.102" rx="1.402" transform="matrix(0.301, -0.954, 0.954, 0.301, 0, 29.945)" fill="#699d4f"/>
        </g>
      </g>
      <ellipse id="Elipse_122" data-name="Elipse 122" cx="76.689" cy="76.69" rx="76.689" ry="76.69" fill="none" stroke="#fff" stroke-miterlimit="10" stroke-width="10"/>
    </g>
  </g>
</svg>
