<svg xmlns="http://www.w3.org/2000/svg" xmlns:xlink="http://www.w3.org/1999/xlink" width="163.379" height="163.379" viewBox="0 0 163.379 163.379">
  <defs>
    <clipPath id="clip-path">
      <ellipse id="Elipse_162" data-name="Elipse 162" cx="73.08" cy="73.08" rx="73.08" ry="73.08" fill="none"/>
    </clipPath>
  </defs>
  <g id="Grupo_742" data-name="Grupo 742" transform="translate(5 5)">
    <g id="Grupo_740" data-name="Grupo 740">
      <ellipse id="Elipse_137" data-name="Elipse 137" cx="76.689" cy="76.69" rx="76.689" ry="76.69" fill="none" stroke="#fff" stroke-miterlimit="10" stroke-width="10"/>
      <g id="Grupo_739" data-name="Grupo 739" transform="translate(3.93 2.499)">
        <g id="Grupo_738" data-name="Grupo 738" clip-path="url(#clip-path)">
          <ellipse id="Elipse_138" data-name="Elipse 138" cx="73.08" cy="73.08" rx="73.08" ry="73.08" fill="#b4daf2"/>
          <path id="Trazado_756" data-name="Trazado 756" d="M841.374,828.8c69.883-3.661,88.373,31.853,88.373,31.853l-1.079,2.261c-3.524,7.391-2.836,10.793-11.458,11.574a25.543,25.543,0,0,1-9.153-.817l-1.137-.314-.875.747a20.578,20.578,0,0,1-11.578,4.8,21.316,21.316,0,0,1-7.256-.58l-2.5-.643-.155,2.414a14.224,14.224,0,0,1-4.631,9.585,16.28,16.28,0,0,1-9.6,4.174,16.6,16.6,0,0,1-9.55-1.973l-2.852-1.574-.305,3.08c-.7,7.011-6.667,12.6-14.2,13.277a16.459,16.459,0,0,1-11.552-3.285,14.348,14.348,0,0,1-5.675-9.941c-.01-.1-.02-.187-.025-.27l-.134-2.486-2.558.71a19.249,19.249,0,0,1-3.39.617c-8.976.812-17.225-4.755-19.19-12.95l-.582-2.422-2.389,1.094c-7.234,3.306-13-1.153-17.841-7.166a15.369,15.369,0,0,1-2.229-3.736S799.731,830.986,841.374,828.8Zm-67.617-.873h0" transform="translate(-785.703 -832.823)" fill="#fff" stroke="#89c4d0" stroke-miterlimit="10" stroke-width="4.274"/>
          <rect id="Rectángulo_202" data-name="Rectángulo 202" width="9.359" height="41.107" rx="4.295" transform="translate(71.006 88.841) rotate(-60)" fill="#f4e1b7"/>
          <ellipse id="Elipse_139" data-name="Elipse 139" cx="11.745" cy="11.745" rx="11.745" ry="11.745" transform="translate(99.179 69.817)" fill="#f4e1b7"/>
          <rect id="Rectángulo_203" data-name="Rectángulo 203" width="9.359" height="12.457" transform="translate(95.818 103.166) rotate(-60)" fill="#95c393"/>
          <rect id="Rectángulo_204" data-name="Rectángulo 204" width="23.49" height="46.98" rx="10.78" transform="translate(99.943 94.925)" fill="#8ebd67"/>
          <rect id="Rectángulo_205" data-name="Rectángulo 205" width="17.617" height="17.617" rx="8.085" transform="translate(44.2 106.25) rotate(-7.344)" fill="#f0d29c"/>
          <rect id="Rectángulo_206" data-name="Rectángulo 206" width="17.617" height="35.235" rx="8.085" transform="translate(45.286 124.288)" fill="#b6ce73"/>
          <path id="Trazado_757" data-name="Trazado 757" d="M899.453,914.6s-5.872-5.873-5.872-11.745c0,0-11.745,5.873-17.618,0s0-11.745,0-11.745,2.322,3.947,6.141,3.838,11.477-3.838,17.349,2.034S899.453,914.6,899.453,914.6Z" transform="translate(-776.784 -827.166)" fill="#6b4d2e"/>
          <rect id="Rectángulo_207" data-name="Rectángulo 207" width="23.49" height="23.49" rx="10.78" transform="translate(11.265 75.69)" fill="#d6b47b"/>
          <rect id="Rectángulo_208" data-name="Rectángulo 208" width="29.362" height="52.852" rx="13.475" transform="translate(6.526 100.868)" fill="#ca404d"/>
          <rect id="Rectángulo_209" data-name="Rectángulo 209" width="9.359" height="41.107" rx="4.295" transform="translate(118.319 99.601)" fill="#f4e1b7"/>
          <ellipse id="Elipse_140" data-name="Elipse 140" cx="2.309" cy="2.309" rx="2.309" ry="2.309" transform="translate(9.326 80.253)" fill="#38271a"/>
          <ellipse id="Elipse_141" data-name="Elipse 141" cx="2.936" cy="2.936" rx="2.936" ry="2.936" transform="translate(11.092 75.69)" fill="#38271a"/>
          <ellipse id="Elipse_142" data-name="Elipse 142" cx="2.097" cy="2.097" rx="2.097" ry="2.097" transform="translate(15.544 73.08)" fill="#38271a"/>
          <ellipse id="Elipse_143" data-name="Elipse 143" cx="2.401" cy="2.401" rx="2.401" ry="2.401" transform="translate(12.162 71.928)" fill="#38271a"/>
          <ellipse id="Elipse_144" data-name="Elipse 144" cx="3.273" cy="3.273" rx="3.273" ry="3.273" transform="translate(19.738 70.728)" fill="#38271a"/>
          <ellipse id="Elipse_145" data-name="Elipse 145" cx="3.158" cy="3.158" rx="3.158" ry="3.158" transform="translate(28.197 71.928)" fill="#38271a"/>
          <path id="Trazado_758" data-name="Trazado 758" d="M902.675,928.516v8.009h-9.359v-8.009a4.693,4.693,0,0,1,4.68-4.68h0A4.694,4.694,0,0,1,902.675,928.516Z" transform="translate(-774.997 -824.235)" fill="#95c393"/>
          <ellipse id="Elipse_146" data-name="Elipse 146" cx="1.943" cy="1.943" rx="1.943" ry="1.943" transform="translate(24.816 74.33)" fill="#38271a"/>
          <ellipse id="Elipse_147" data-name="Elipse 147" cx="1.991" cy="1.991" rx="1.991" ry="1.991" transform="translate(25.307 71.671)" fill="#38271a"/>
          <ellipse id="Elipse_148" data-name="Elipse 148" cx="2.725" cy="2.725" rx="2.725" ry="2.725" transform="translate(15.757 71.28)" fill="#38271a"/>
          <ellipse id="Elipse_149" data-name="Elipse 149" cx="1.691" cy="1.691" rx="1.691" ry="1.691" transform="translate(21.208 68.983)" fill="#38271a"/>
          <ellipse id="Elipse_150" data-name="Elipse 150" cx="1.664" cy="1.664" rx="1.664" ry="1.664" transform="translate(29.834 70.674)" fill="#38271a"/>
          <ellipse id="Elipse_151" data-name="Elipse 151" cx="2.619" cy="2.619" rx="2.619" ry="2.619" transform="translate(9.326 75.653)" fill="#38271a"/>
          <ellipse id="Elipse_152" data-name="Elipse 152" cx="2.936" cy="2.936" rx="2.936" ry="2.936" transform="translate(15.076 74.381)" fill="#38271a"/>
          <ellipse id="Elipse_153" data-name="Elipse 153" cx="2.782" cy="2.782" rx="2.782" ry="2.782" transform="translate(12.83 79.309)" fill="#38271a"/>
          <ellipse id="Elipse_154" data-name="Elipse 154" cx="1.184" cy="1.184" rx="1.184" ry="1.184" transform="translate(12.195 83.74)" fill="#38271a"/>
          <ellipse id="Elipse_155" data-name="Elipse 155" cx="2.782" cy="2.782" rx="2.782" ry="2.782" transform="translate(9 84.162)" fill="#38271a"/>
          <ellipse id="Elipse_156" data-name="Elipse 156" cx="1.184" cy="1.184" rx="1.184" ry="1.184" transform="translate(10.769 89.195)" fill="#38271a"/>
          <ellipse id="Elipse_157" data-name="Elipse 157" cx="2.427" cy="2.427" rx="2.427" ry="2.427" transform="translate(27.716 75.4)" fill="#38271a"/>
          <ellipse id="Elipse_158" data-name="Elipse 158" cx="2.058" cy="2.058" rx="2.058" ry="2.058" transform="translate(18.893 74.622)" fill="#38271a"/>
          <ellipse id="Elipse_159" data-name="Elipse 159" cx="5.145" cy="5.145" rx="5.145" ry="5.145" transform="translate(59.735 98.68)" fill="#38271a"/>
          <ellipse id="Elipse_160" data-name="Elipse 160" cx="5.145" cy="5.145" rx="5.145" ry="5.145" transform="translate(38.021 98.68)" fill="#38271a"/>
          <path id="Trazado_759" data-name="Trazado 759" d="M835.061,930.732a10.835,10.835,0,0,1-8.736,8.042s-1.069-10.185,8.736-9.931,8.807,8.806,8.807,8.806S835.947,937.6,835.061,930.732Z" transform="translate(-780.998 -823.787)" fill="#38271a"/>
          <path id="Trazado_760" data-name="Trazado 760" d="M885.941,916.954h0a6.909,6.909,0,0,1-6.909-6.909v-.728H892.85v.728A6.909,6.909,0,0,1,885.941,916.954Z" transform="translate(-776.276 -825.535)" fill="#d3786a"/>
          <path id="Trazado_761" data-name="Trazado 761" d="M808.2,921.406h0a6.908,6.908,0,0,1-6.909-6.908v-.728h13.818v.728A6.908,6.908,0,0,1,808.2,921.406Z" transform="translate(-783.237 -825.137)" fill="#d3786a"/>
          <ellipse id="Elipse_161" data-name="Elipse 161" cx="2.054" cy="2.377" rx="2.054" ry="2.377" transform="translate(53.618 115.893)" fill="#d3786a"/>
          <path id="Trazado_762" data-name="Trazado 762" d="M849.8,839.169l5.962,12.081,13.333,1.937-9.648,9.4,2.277,13.279L849.8,869.6l-11.925,6.269,2.278-13.279-9.648-9.4,13.333-1.937Z" transform="translate(-780.621 -831.817)" fill="#ffec2d"/>
          <path id="Trazado_763" data-name="Trazado 763" d="M878.218,856.127l1.789,3.625,4,.581-2.895,2.822.683,3.984-3.578-1.881-3.578,1.881.683-3.984-2.895-2.822,4-.581Z" transform="translate(-776.867 -830.298)" fill="#ffec2d"/>
          <path id="Trazado_764" data-name="Trazado 764" d="M825.9,870.845l1.281,2.6,2.864.416-2.073,2.02.489,2.853-2.562-1.347-2.562,1.347.489-2.853-2.073-2.02,2.864-.416Z" transform="translate(-781.405 -828.98)" fill="#ffec2d"/>
          <path id="Trazado_765" data-name="Trazado 765" d="M866.328,886.262" transform="translate(-777.413 -827.6)" fill="#fff" stroke="#c2d9df" stroke-miterlimit="10" stroke-width="4.274"/>
          <path id="Trazado_766" data-name="Trazado 766" d="M870.591,885.9l-.539,13.5-9.09-10.277" transform="translate(-777.894 -827.632)" fill="#fff" stroke="#89c4d0" stroke-linecap="round" stroke-miterlimit="10" stroke-width="4.274"/>
        </g>
      </g>
    </g>
  </g>
</svg>
