<svg xmlns="http://www.w3.org/2000/svg" width="170.614" height="170.614" viewBox="0 0 170.614 170.614">
  <g id="Grupo_557" data-name="Grupo 557" transform="translate(5 5)">
    <g id="Grupo_556" data-name="Grupo 556">
      <ellipse id="Elipse_114" data-name="Elipse 114" cx="77.509" cy="77.509" rx="77.509" ry="77.509" transform="translate(1.518 1.978)" fill="#8fc9e1"/>
      <g id="Grupo_552" data-name="Grupo 552" transform="translate(33.119 28.93)">
        <g id="Grupo_550" data-name="Grupo 550">
          <g id="Grupo_549" data-name="Grupo 549" transform="translate(8.987)">
            <g id="Grupo_548" data-name="Grupo 548">
              <path id="Trazado_337" data-name="Trazado 337" d="M1547.543,890.366a38.593,38.593,0,1,1-38.594-38.593A38.594,38.594,0,0,1,1547.543,890.366Z" transform="translate(-1470.356 -851.773)" fill="#edc631"/>
              <path id="Trazado_338" data-name="Trazado 338" d="M1538.477,865.525a38.592,38.592,0,0,0-65.948,37.615Q1505.175,883.761,1538.477,865.525Z" transform="translate(-1470.356 -851.773)" fill="#edd560"/>
              <path id="Trazado_339" data-name="Trazado 339" d="M1508.093,920.552a38.47,38.47,0,0,0,22.787-11c-6.026,2.9-12.037,5.826-18.055,8.737C1511.251,919.049,1509.67,919.8,1508.093,920.552Z" transform="translate(-1465.037 -843.63)" fill="#edd560"/>
              <path id="Trazado_340" data-name="Trazado 340" d="M1537.238,889.711a28.945,28.945,0,1,1-28.944-28.946A28.944,28.944,0,0,1,1537.238,889.711Z" transform="translate(-1469.089 -850.506)" fill="#deae02"/>
            </g>
          </g>
          <path id="Trazado_341" data-name="Trazado 341" d="M1467.308,879.494l1.708,3.122,3.122,1.708-3.122,1.708-1.708,3.122-1.708-3.122-3.122-1.708,3.122-1.708Z" transform="translate(-1462.479 -847.866)" fill="#f4eb7a"/>
          <path id="Trazado_342" data-name="Trazado 342" d="M1473.376,857.193l.869,1.589,1.589.869-1.589.869-.869,1.589-.869-1.589-1.589-.869,1.589-.869Z" transform="translate(-1461.29 -851.009)" fill="#f4f5e2"/>
          <path id="Trazado_343" data-name="Trazado 343" d="M1525.585,853.025l1.681,3.074,3.074,1.681-3.074,1.681-1.681,3.074-1.682-3.074-3.074-1.681,3.074-1.681Z" transform="translate(-1454.255 -851.596)" fill="#f4eb7a"/>
          <path id="Trazado_344" data-name="Trazado 344" d="M1525.488,905.24l1.221,2.232,2.232,1.221-2.232,1.221-1.221,2.232-1.221-2.232-2.232-1.221,2.232-1.221Z" transform="translate(-1454.085 -844.237)" fill="#f4eb7a"/>
          <path id="Trazado_345" data-name="Trazado 345" d="M1543.761,886.756l.809,1.479,1.479.809-1.479.809-.809,1.479-.809-1.479-1.479-.809,1.479-.809Z" transform="translate(-1451.345 -846.843)" fill="#f4eb7a"/>
          <path id="Trazado_346" data-name="Trazado 346" d="M1543.575,872.224l.278.508.508.278-.508.278-.278.508-.278-.508-.508-.278.508-.278Z" transform="translate(-1451.16 -848.891)" fill="#f4f5e2"/>
          <path id="Trazado_347" data-name="Trazado 347" d="M1464.7,872.224l.278.508.508.278-.508.278-.278.508-.278-.508-.508-.278.508-.278Z" transform="translate(-1462.276 -848.891)" fill="#f4f5e2"/>
        </g>
        <g id="Grupo_551" data-name="Grupo 551" transform="translate(36.92 17.337)">
          <path id="Trazado_348" data-name="Trazado 348" d="M1509.175,904.3v2.618a3.318,3.318,0,0,1-6.58,0v-2.031a16.237,16.237,0,0,1-5.968-1.986,3.358,3.358,0,0,1-1.122-4.965,4.11,4.11,0,0,1,3.06-1.536c1.48-.135,2.7.722,4.081,1.128,1.836.588,3.977.407,5.2-.947a3.041,3.041,0,0,0-1.122-5.011c-2.3-1.038-5.151-.948-8.161-3.612a8.931,8.931,0,0,1-3.11-6.862,9.56,9.56,0,0,1,5.711-8.352,12.9,12.9,0,0,1,1.428-.586v-2.3a3.318,3.318,0,0,1,6.58,0v1.626a10.041,10.041,0,0,1,4.233,1.353c3.264,2.078,2.091,5.779-1.02,6.5a5.63,5.63,0,0,1-3.316-.452c-3.213-1.173-6.324.768-5.406,3.116.663,1.76,5.15,2.663,6.834,3.249,3.673,1.31,6.375,4.876,6.375,8.4A11.319,11.319,0,0,1,1509.175,904.3Z" transform="translate(-1494.838 -866.968)" fill="#edc631"/>
        </g>
      </g>
      <g id="Grupo_553" data-name="Grupo 553" transform="translate(24.029 96.789)">
        <path id="Trazado_349" data-name="Trazado 349" d="M1556.589,917.687h-25.921a.108.108,0,0,0-.108.108v18.759a.108.108,0,0,1-.109.108h0a.109.109,0,0,0-.108.108v.4a.109.109,0,0,0,.108.108h25.942a.109.109,0,0,0,.092-.167L1550.791,928a.1.1,0,0,1,0-.111l5.8-10.2Z" transform="translate(-1443.823 -910.342)" fill="#c94629"/>
        <path id="Trazado_350" data-name="Trazado 350" d="M1454.511,917.687h25.92a.108.108,0,0,1,.108.108v18.759a.108.108,0,0,0,.108.108h0a.109.109,0,0,1,.109.108v.4a.108.108,0,0,1-.109.108h-25.941a.108.108,0,0,1-.091-.167l5.694-9.107a.11.11,0,0,0,0-.111l-5.8-10.2Z" transform="translate(-1454.511 -910.342)" fill="#c94629"/>
        <path id="Trazado_351" data-name="Trazado 351" d="M1470.141,931.187l8.255,4.2a.108.108,0,0,0,.158-.1v-4.706a.108.108,0,0,0-.118-.107l-8.295.705Z" transform="translate(-1452.308 -908.538)" fill="#bf6049"/>
        <path id="Trazado_352" data-name="Trazado 352" d="M1538.782,931.187l-8.256,4.2a.108.108,0,0,1-.157-.1v-4.706a.108.108,0,0,1,.118-.107l8.3.705Z" transform="translate(-1443.82 -908.538)" fill="#bf6049"/>
        <path id="Trazado_353" data-name="Trazado 353" d="M1547.271,933.9H1470.25a.108.108,0,0,1-.108-.108V911.357a.108.108,0,0,1,.108-.108h76.913a.109.109,0,0,1,.109.108V933.9Z" transform="translate(-1452.308 -911.249)" fill="#d98a6b"/>
      </g>
      <text id="_1_000" data-name="1,000" transform="translate(55.365 113.894)" fill="#c94629" font-size="18" font-family="SegoeUI, Segoe UI"><tspan x="0" y="0">1,000</tspan></text>
      <g id="Grupo_554" data-name="Grupo 554" transform="translate(17.339 72.096)">
        <rect id="Rectángulo_168" data-name="Rectángulo 168" width="29.491" height="13.691" rx="6" transform="translate(0 7.617)" fill="#fff"/>
        <rect id="Rectángulo_169" data-name="Rectángulo 169" width="14.833" height="12.091" rx="5.299" transform="translate(13.367)" fill="#fff"/>
        <rect id="Rectángulo_170" data-name="Rectángulo 170" width="11.181" height="7.324" rx="3.21" transform="translate(6.652 4.549)" fill="#fff"/>
      </g>
      <g id="Grupo_555" data-name="Grupo 555" transform="translate(103.807 25.677)">
        <rect id="Rectángulo_171" data-name="Rectángulo 171" width="29.527" height="10.611" rx="4.65" transform="translate(0 11.887)" fill="#fff"/>
        <rect id="Rectángulo_172" data-name="Rectángulo 172" width="10.926" height="6.653" rx="2.916" transform="translate(4.171 6.739)" fill="#fff"/>
        <rect id="Rectángulo_173" data-name="Rectángulo 173" width="10.868" height="13.392" rx="4.763" transform="translate(8.509)" fill="#fff"/>
        <rect id="Rectángulo_174" data-name="Rectángulo 174" width="8.535" height="5.536" rx="2.426" transform="translate(15.097 7.856)" fill="#fff"/>
      </g>
      <path id="Trazado_354" data-name="Trazado 354" d="M1467.539,849.607l2.688,4.914,4.914,2.688-4.914,2.688-2.688,4.914-2.688-4.914-4.914-2.688,4.914-2.688Z" transform="translate(-1429.718 -823.148)" fill="#f4eb7a"/>
      <path id="Trazado_355" data-name="Trazado 355" d="M1545.766,900.121l1.451,2.653,2.653,1.451-2.653,1.451-1.451,2.653-1.451-2.653-2.653-1.451,2.653-1.451Z" transform="translate(-1418.199 -816.028)" fill="#f4eb7a"/>
      <ellipse id="Elipse_115" data-name="Elipse 115" cx="80.307" cy="80.307" rx="80.307" ry="80.307" fill="none" stroke="#fff" stroke-miterlimit="10" stroke-width="10"/>
    </g>
  </g>
</svg>
