<svg xmlns="http://www.w3.org/2000/svg" xmlns:xlink="http://www.w3.org/1999/xlink" width="170.614" height="170.614" viewBox="0 0 170.614 170.614">
  <defs>
    <clipPath id="clip-path">
      <ellipse id="Elipse_135" data-name="Elipse 135" cx="77.509" cy="77.509" rx="77.509" ry="77.509" fill="none"/>
    </clipPath>
  </defs>
  <g id="Grupo_735" data-name="Grupo 735" transform="translate(5 5)">
    <g id="Grupo_733" data-name="Grupo 733">
      <g id="Grupo_732" data-name="Grupo 732" transform="translate(1.668 2.79)">
        <g id="Grupo_731" data-name="Grupo 731" clip-path="url(#clip-path)">
          <ellipse id="Elipse_134" data-name="Elipse 134" cx="77.509" cy="77.509" rx="77.509" ry="77.509" fill="#fff"/>
          <g id="Grupo_729" data-name="Grupo 729" transform="translate(-8.651 -7.225)">
            <rect id="Rectángulo_197" data-name="Rectángulo 197" width="171.628" height="171.628" fill="#bdd1ea"/>
          </g>
          <path id="Trazado_748" data-name="Trazado 748" d="M1708.376,936.743c2.632-21.214-2.6-21.528-23.046-12.413,10.19-15.246,5.172-19.526-11.1-21.96,17.024-8.636,18.1-15.058,3.489-26.817,18.022,1.708,21.761-.859,10.733-15.54,19.612,10.877,24.456,9.639,21.116-13.489,12.627,21.917,20.569,12.115,25.405,1.657,1.361,9.591,4.485,21.116,22.79,3.877-7.625,19.6-1.709,21.961,17.361,18.436-10.866,9.493-8.58,13.1,4.37,15.689-14.322,7.487-16.563,13.527-5.506,24.676-18.866-.916-24.433,3.28-20.694,23.5-19.412-15.335-27.973-17.926-44.913,2.387Z" transform="translate(-1648.624 -820.009)" fill="#f5eea2"/>
          <g id="Grupo_730" data-name="Grupo 730" transform="translate(12.797 47.047)">
            <path id="Trazado_749" data-name="Trazado 749" d="M1708.611,905.567s6.212,3.553,12.63,1.763l6.418-1.79,46.246,47.6,17.568-16.816-41.7-41.9-35.893,4.035Z" transform="translate(-1656.574 -860.306)" fill="#e9c995"/>
            <path id="Trazado_750" data-name="Trazado 750" d="M1757.8,871.405a3.877,3.877,0,0,1-.828,2.736,3.818,3.818,0,0,1-2.685,1.427l-4.068.48,3.448-.054a11.512,11.512,0,0,0,4.951,11.52,4.094,4.094,0,0,1-.873,3.045,4.724,4.724,0,0,1-2.021,1.5,4.106,4.106,0,0,1,.609,8.179l-6.45,1.27-25.967,5.115.115.277-43.069,51.719L1663,943.48l37.285-44.486,2.749-3.437,1.334-5.982-.134-1.891-.788-11.253s-.369-5.488,3.369-8.522c3.519-2.856,13.286-.438,13.409.214.039.2-6.745,5.054-6.745,5.054l30.993-4.477a3.472,3.472,0,0,1,.433-.059l8.734-.741A3.85,3.85,0,0,1,1757.8,871.405Z" transform="translate(-1663.002 -864.234)" fill="#dfaa5c"/>
            <path id="Trazado_751" data-name="Trazado 751" d="M1700.577,886.464l.062.873.072,1.018-1.374,6.269-2.75,3.437-6.547-7.863a4.1,4.1,0,0,1-.119-5.392l7.015-8.141a4.337,4.337,0,0,1,2.852-1.453Z" transform="translate(-1659.342 -863.013)" fill="#e9c995"/>
            <path id="Trazado_752" data-name="Trazado 752" d="M1702.846,882.284l-3.605,4.184-.789-11.253a4.968,4.968,0,0,1,3.569,1.018A4.169,4.169,0,0,1,1702.846,882.284Z" transform="translate(-1658.005 -863.016)" fill="#e9c995"/>
            <path id="Trazado_753" data-name="Trazado 753" d="M1707.112,870.744l.708,5.666a14.759,14.759,0,0,1,11.457,4.413,4.108,4.108,0,0,0,4.167-4.049l.082-5.9.628,6.281a4.108,4.108,0,1,0,8.176-.817l-.369-3.7.551,3.051a3.851,3.851,0,1,0,7.579-1.371l-1.1-6.105a3.851,3.851,0,0,0-7.514-.294,6.67,6.67,0,0,1-10.007-2.874,4.108,4.108,0,0,0-6.126,3.52l-.023,1.584-.051-.427a4.109,4.109,0,0,0-8.155,1.018Z" transform="translate(-1656.789 -864.52)" fill="#e9c995"/>
            <path id="Trazado_754" data-name="Trazado 754" d="M1750.448,895.646s-2.227,1.3-9.525,2.731c-7.763,1.526-25.532,4.057-25.532,4.057" transform="translate(-1655.618 -860.133)" fill="#dfaa5c"/>
            <path id="Trazado_755" data-name="Trazado 755" d="M1742.039,890.074" transform="translate(-1651.862 -860.918)" fill="#e9c995"/>
          </g>
          <rect id="Rectángulo_198" data-name="Rectángulo 198" width="13.373" height="27.355" rx="3.72" transform="translate(39.819 89.913) rotate(-49.769)" fill="#6dad52" stroke="#55924f" stroke-miterlimit="10" stroke-width="2.734"/>
          <rect id="Rectángulo_199" data-name="Rectángulo 199" width="27.355" height="4.286" rx="1.878" transform="translate(91.612 102.689) rotate(-43.754)" fill="#cd6353" stroke="#ca422b" stroke-miterlimit="10" stroke-width="4"/>
          <rect id="Rectángulo_200" data-name="Rectángulo 200" width="4.286" height="30.048" rx="1.878" transform="matrix(0.805, -0.594, 0.594, 0.805, 35.533, 94.007)" fill="#e7db53" stroke="#e0cb38" stroke-miterlimit="10" stroke-width="4.192"/>
        </g>
      </g>
      <ellipse id="Elipse_136" data-name="Elipse 136" cx="80.307" cy="80.307" rx="80.307" ry="80.307" fill="none" stroke="#fff" stroke-miterlimit="10" stroke-width="10"/>
    </g>
  </g>
</svg>
