<svg xmlns="http://www.w3.org/2000/svg" width="170.614" height="170.614" viewBox="0 0 170.614 170.614">
  <g id="Grupo_546" data-name="Grupo 546" transform="translate(5 5)">
    <g id="Grupo_545" data-name="Grupo 545">
      <ellipse id="Elipse_111" data-name="Elipse 111" cx="77.509" cy="77.509" rx="77.509" ry="77.509" transform="translate(3.801 3.173)" fill="#fff"/>
      <rect id="Rect치ngulo_165" data-name="Rect치ngulo 165" width="4.671" height="105.71" rx="2.047" transform="translate(40.134 44.35)" fill="#c0d0d4" stroke="#8b9ba0" stroke-miterlimit="10" stroke-width="2.418"/>
      <rect id="Rect치ngulo_166" data-name="Rect치ngulo 166" width="8.651" height="4.844" rx="2.123" transform="translate(38.144 36.11)" fill="#c0d0d4" stroke="#8b9ba0" stroke-miterlimit="10" stroke-width="2.5"/>
      <ellipse id="Elipse_112" data-name="Elipse 112" cx="3.95" cy="3.95" rx="3.95" ry="3.95" transform="translate(38.346 24.396)" fill="#c0d0d4" stroke="#8b9ba0" stroke-miterlimit="10" stroke-width="2.5"/>
      <path id="Trazado_333" data-name="Trazado 333" d="M1311.258,877.385a4.227,4.227,0,0,0,0,1.419v41.723c-6.921-7.156-44.754,5.073-44.754,5.073V872.776c34.373-16.609,44.754-6,44.754-6Z" transform="translate(-1216.681 -823.81)" fill="#fbee57" stroke="#deae02" stroke-miterlimit="10" stroke-width="3"/>
      <path id="Trazado_334" data-name="Trazado 334" d="M1338.687,902.77l12.685,22.491c-67.357,8.533-45.211-6.457-45.211-6.457V877.081c1.834,10.089,45.211-1.419,45.211-1.419Z" transform="translate(-1211.583 -822.087)" fill="#fbee57" stroke="#deae02" stroke-miterlimit="10" stroke-width="3"/>
      <path id="Trazado_335" data-name="Trazado 335" d="M1290.652,902.9l-5.763-9.828-10.154-5.166,9.828-5.763,5.166-10.154,5.763,9.828,10.154,5.166-9.828,5.763Z" transform="translate(-1215.521 -822.605)" fill="#fff" stroke="#edca0d" stroke-linejoin="round" stroke-width="2.5"/>
      <path id="Trazado_336" data-name="Trazado 336" d="M1318.076,907.62l-3-5.138-5.3-2.705,5.138-3,2.705-5.3,3,5.138,5.3,2.705-5.138,3Z" transform="translate(-1210.583 -819.859)" fill="#fff" stroke="#edca0d" stroke-linejoin="round" stroke-width="2.5"/>
      <ellipse id="Elipse_113" data-name="Elipse 113" cx="80.307" cy="80.307" rx="80.307" ry="80.307" fill="none" stroke="#fff" stroke-miterlimit="10" stroke-width="10"/>
    </g>
  </g>
</svg>
