<svg xmlns="http://www.w3.org/2000/svg" xmlns:xlink="http://www.w3.org/1999/xlink" width="163.379" height="163.379" viewBox="0 0 163.379 163.379">
  <defs>
    <clipPath id="clip-path">
      <ellipse id="Elipse_128" data-name="Elipse 128" cx="74.018" cy="74.018" rx="74.018" ry="74.018" fill="none"/>
    </clipPath>
  </defs>
  <g id="Grupo_726" data-name="Grupo 726" transform="translate(5 5)">
    <g id="Grupo_720" data-name="Grupo 720">
      <g id="Grupo_719" data-name="Grupo 719" transform="translate(2.669 2.672)">
        <g id="Grupo_718" data-name="Grupo 718" clip-path="url(#clip-path)">
          <ellipse id="Elipse_129" data-name="Elipse 129" cx="74.018" cy="74.018" rx="74.018" ry="74.018" fill="#fff"/>
          <g id="Grupo_711" data-name="Grupo 711" transform="translate(-24.452 -16.989)">
            <path id="Trazado_670" data-name="Trazado 670" d="M542.941,1007.417V817.085H733.272v190.331H542.941" transform="translate(-542.941 -817.085)" fill="#bcdce9" fill-rule="evenodd"/>
            <path id="Trazado_671" data-name="Trazado 671" d="M711.854,993.365h-2.206l-22.577-19.358,24.783,19.358" transform="translate(-530.035 -803.034)" fill="#80c0d7"/>
            <path id="Trazado_672" data-name="Trazado 672" d="M699.267,994.628H696.2l-33.275-34.719,36.338,34.719" transform="translate(-532.197 -804.296)" fill="#80c0d7"/>
            <path id="Trazado_673" data-name="Trazado 673" d="M662.29,994.054h-1.3l-12.143-27.743,13.439,27.743" transform="translate(-533.457 -803.723)" fill="#80c0d7"/>
            <path id="Trazado_674" data-name="Trazado 674" d="M638.918,992.561h-.346l-.863-9.57,1.209,9.57" transform="translate(-534.455 -802.229)" fill="#80c0d7"/>
            <path id="Trazado_675" data-name="Trazado 675" d="M621.179,992.868h-.493l2.5-13.3-2.009,13.3" transform="translate(-535.979 -802.536)" fill="#80c0d7"/>
            <path id="Trazado_676" data-name="Trazado 676" d="M600.818,992.656H600.3l5.6-10.733-5.078,10.733" transform="translate(-537.805 -802.325)" fill="#80c0d7"/>
            <path id="Trazado_677" data-name="Trazado 677" d="M569.2,992.172h-.423l5.025-4.833-4.6,4.833" transform="translate(-540.627 -801.84)" fill="#80c0d7"/>
            <path id="Trazado_678" data-name="Trazado 678" d="M558.47,994.383h-3.49l39.568-31.744L558.47,994.383" transform="translate(-541.863 -804.052)" fill="#80c0d7"/>
            <path id="Trazado_679" data-name="Trazado 679" d="M718.787,973.383,704.7,965.8l14.088,6.718v.868" transform="translate(-528.456 -803.769)" fill="#80c0d7"/>
            <path id="Trazado_680" data-name="Trazado 680" d="M733.272,971.131l-32.94-16.263,32.94,14.283v1.98m-190.331-3.813V965.23l35.751-13.553-35.751,15.64" transform="translate(-542.941 -805.034)" fill="#80c0d7"/>
            <path id="Trazado_681" data-name="Trazado 681" d="M733.272,961.73l-11.546-4.413,11.546,3.757v.656m-190.331-4.307v-1.011l3.659-1.238,19.28-5.136-22.938,7.385m24.7-9.366,11.7-3.959,9.675-2.3-21.38,6.26m-24.7-11.157v-.607l11.531-.678L542.941,936.9" transform="translate(-542.941 -806.472)" fill="#80c0d7"/>
            <path id="Trazado_682" data-name="Trazado 682" d="M720.5,927.8l-34.9-.118,34.9-1.714V927.8" transform="translate(-530.167 -807.335)" fill="#80c0d7"/>
            <path id="Trazado_683" data-name="Trazado 683" d="M715.14,927l9.523-.7,8.609-.038v.357L715.14,927M559.929,912.415l-16.988-3.4V908.1l16.988,4.318" transform="translate(-542.941 -808.936)" fill="#80c0d7"/>
            <path id="Trazado_684" data-name="Trazado 684" d="M680.744,912.5l40.189-15.529v2.293L680.744,912.5" transform="translate(-530.601 -809.932)" fill="#80c0d7"/>
            <path id="Trazado_685" data-name="Trazado 685" d="M720.842,909.582l8.855-2.44v.485l-8.855,1.955m-136.2-.143-1.778-.665,1.24.432.538.233" transform="translate(-539.365 -809.021)" fill="#80c0d7"/>
            <path id="Trazado_686" data-name="Trazado 686" d="M689.744,896.809,722.823,870.4l.786,1.521,9.664-7.494v2.655l-36.919,25.97,20.681-16.035-27.29,19.8m-105.69-2.747L542.941,865.28v-2.947l41.113,31.73" transform="translate(-542.941 -813.034)" fill="#80c0d7"/>
            <path id="Trazado_687" data-name="Trazado 687" d="M700.431,888.355,719.17,876.4v1.227l-18.739,10.728" transform="translate(-528.839 -811.774)" fill="#80c0d7"/>
            <path id="Trazado_688" data-name="Trazado 688" d="M675.249,892.4,730.6,817.086h2.673V820l-58.024,72.4M558.9,887.738l-15.955-9.6v-1.066L558.9,887.738m78.42-3.879-3.9-66.773H635.8l1.518,66.773M585.4,877.25l-42.463-46.194v-4.178L585.4,877.25m53.657-10.136-1.281-50.028h1.78l-.5,50.028m-60.313-6.6-35.281-43.428h2.925l32.355,43.428m118.326-3.436,26.922-39.992h2.462l-29.384,39.992m-93.553-6.026-14.785-33.966h1.513l13.272,33.966m41.195-5.278,1.012-28.688h1.025l-2.037,28.688m21.125-5.07,5.837-23.618h.927L665.841,840.7m-55.846-1.54-7.019-22.078h.888l6.131,22.078m70.741-7,5.5-15.076h.655l-6.151,15.076m-49.343-9.334-.506-5.742h.207l.3,5.742" transform="translate(-542.941 -817.085)" fill="#80c0d7"/>
            <path id="Trazado_689" data-name="Trazado 689" d="M636.435,997.739H625.07l5.683-72.58,5.683,72.58" transform="translate(-535.587 -807.408)" fill="#89c5da"/>
            <path id="Trazado_690" data-name="Trazado 690" d="M661.729,997.739H649.015l-18.73-72.579,31.444,72.579M630.285,925.16h0m0,0h0m0,0h0m0,0h0" transform="translate(-535.12 -807.408)" fill="#89c5da"/>
            <path id="Trazado_691" data-name="Trazado 691" d="M696.494,997.739h-9.6L675.968,984.6l10.023,13.141h-7.816l-47.89-72.58,66.208,72.58" transform="translate(-535.12 -807.408)" fill="#89c5da"/>
            <path id="Trazado_692" data-name="Trazado 692" d="M683.142,992.854h-.905l-10.023-13.141,10.929,13.141" transform="translate(-531.365 -802.523)" fill="#68accd"/>
            <path id="Trazado_693" data-name="Trazado 693" d="M725.451,997.739h-1.037l-94.128-72.58,95.166,52.061v12.315l-20.267-12.572,20.267,13.944v6.832" transform="translate(-535.12 -807.408)" fill="#89c5da"/>
            <path id="Trazado_694" data-name="Trazado 694" d="M719.3,986.65l-20.267-13.944L719.3,985.278v1.372" transform="translate(-528.964 -803.151)" fill="#68accd"/>
            <path id="Trazado_695" data-name="Trazado 695" d="M725.451,957.348,630.285,925.16l95.166,16.325v2.02l-7.864-1,7.864,1.417v5.409l-13.122-2.5,13.122,3.209v7.305" transform="translate(-535.12 -807.408)" fill="#89c5da"/>
            <path id="Trazado_696" data-name="Trazado 696" d="M718.708,948.261l-13.122-3.209,13.122,2.5v.711" transform="translate(-528.377 -805.627)" fill="#68accd"/>
            <path id="Trazado_697" data-name="Trazado 697" d="M718.276,942.5l-7.864-1.417,7.864,1v.42" transform="translate(-527.945 -805.982)" fill="#68accd"/>
            <path id="Trazado_698" data-name="Trazado 698" d="M630.285,926.428h0l95.166-15.437v11.676l-30.5,3.023,30.5-1.417V925.4l-8.609.634-86.557.393" transform="translate(-535.12 -808.677)" fill="#89c5da"/>
            <path id="Trazado_699" data-name="Trazado 699" d="M709.728,924.851l8.609-.635v.6l-8.609.039" transform="translate(-528.006 -807.492)" fill="#68accd"/>
            <path id="Trazado_700" data-name="Trazado 700" d="M689.637,924.731l30.5-3.023v1.606l-30.5,1.417" transform="translate(-529.805 -807.717)" fill="#68accd"/>
            <path id="Trazado_701" data-name="Trazado 701" d="M630.285,929.346h0L725.451,878.4v15.583l-7.716,3.452,7.716-3v1.754l-95.166,33.153" transform="translate(-535.12 -811.595)" fill="#89c5da"/>
            <path id="Trazado_702" data-name="Trazado 702" d="M710.548,896.157l7.716-3.452v.453l-7.716,3" transform="translate(-527.933 -810.314)" fill="#68accd"/>
            <path id="Trazado_703" data-name="Trazado 703" d="M630.285,933.579h0l95.166-102.441v.234l-27.258,31.893,27.258-29.244v21.117l-22.012,20.1,22.012-18.347v1.924l-95.166,74.766" transform="translate(-535.12 -815.827)" fill="#89c5da"/>
            <path id="Trazado_704" data-name="Trazado 704" d="M697.427,873.264l22.012-20.1v1.752l-22.012,18.347" transform="translate(-529.107 -813.855)" fill="#68accd"/>
            <path id="Trazado_705" data-name="Trazado 705" d="M692.612,863.245l27.258-31.893V834l-27.258,29.244" transform="translate(-529.539 -815.808)" fill="#68accd"/>
            <path id="Trazado_706" data-name="Trazado 706" d="M630.285,934.837h0m0,0h0l52.289-117.752h23.883L630.285,934.837M679.042,825.79l-23.787,58.319,25.839-57.018-2.052-1.3m6.717-8.7-16.013,37.4,17.743-37.4h-1.73m10.969,0-18.5,35.824,20.33-35.824h-1.826" transform="translate(-535.12 -817.085)" fill="#89c5da"/>
            <path id="Trazado_707" data-name="Trazado 707" d="M653.2,884.109,676.99,825.79l2.052,1.3L653.2,884.109m14.491-29.626,16.013-37.4h1.73l-17.743,37.4m8.479-1.573,18.5-35.824H696.5l-20.33,35.824" transform="translate(-533.067 -817.085)" fill="#68accd"/>
            <path id="Trazado_708" data-name="Trazado 708" d="M643.667,873.287l10.036-56.2h2.115l-12.151,56.2m5.409-48.769,1.054-7.432h.273l-1.327,7.432" transform="translate(-533.921 -817.085)" fill="#68accd"/>
            <path id="Trazado_709" data-name="Trazado 709" d="M630.285,934.837h0l10.3-117.752h18.956L630.285,934.837M654.9,817.086l-10.036,56.2,12.151-56.2H654.9m-3.574,0-1.054,7.432,1.327-7.432h-.273" transform="translate(-535.12 -817.085)" fill="#89c5da"/>
            <path id="Trazado_710" data-name="Trazado 710" d="M632.689,934.837h0m0,0L603.438,817.086h18.956l10.3,117.752m-26.02-117.752,10.907,45.9-9.161-45.9h-1.746m5.218,0,5.9,30.031-4.785-30.031h-1.119" transform="translate(-537.524 -817.085)" fill="#89c5da"/>
            <path id="Trazado_711" data-name="Trazado 711" d="M617.31,862.984l-10.907-45.9h1.747l9.161,45.9m.215-15.867-5.9-30.031h1.119l4.785,30.031" transform="translate(-537.258 -817.085)" fill="#68accd"/>
            <path id="Trazado_712" data-name="Trazado 712" d="M636.545,934.837h0m0,0L560.374,817.086h23.883l52.288,117.752M579.389,817.086l5.131,10.243-.954.68,23.875,47.078-17.329-37.725-9.193-20.275h-1.53m-17.566,0,32.138,49.9-29.369-49.9h-2.77" transform="translate(-541.38 -817.085)" fill="#89c5da"/>
            <path id="Trazado_713" data-name="Trazado 713" d="M607.321,875.087l-23.875-47.078.954-.68-5.131-10.243h1.53l9.193,20.275,17.329,37.725m-13.479-8.1-32.138-49.9h2.77l29.369,49.9" transform="translate(-541.261 -817.085)" fill="#68accd"/>
            <path id="Trazado_714" data-name="Trazado 714" d="M638.106,933.579h0m0,0-95.165-74.767V831.138l95.165,102.441m-78.97-84.62-1.5,2.057,39.954,41.26L559.136,848.96m-16.2-.874v2.779L576.8,880.386l-33.858-32.3" transform="translate(-542.941 -815.827)" fill="#89c5da"/>
            <path id="Trazado_715" data-name="Trazado 715" d="M597.585,890.884l-39.954-41.26,1.5-2.057,38.449,43.317M576.8,878.994l-33.858-29.521v-2.779l33.858,32.3" transform="translate(-542.941 -814.434)" fill="#68accd"/>
            <path id="Trazado_716" data-name="Trazado 716" d="M638.106,929.347h0m0,0L587.684,911.78l-35.692-15.415,5.059,1.986-14.11-6.372v3.112l43.5,16.257-43.5-15.156V878.4l95.165,50.945" transform="translate(-542.941 -811.595)" fill="#89c5da"/>
            <path id="Trazado_717" data-name="Trazado 717" d="M587.684,910.665l-1.24-.432-43.5-16.257v-3.112l14.109,6.371-5.058-1.987,35.692,15.416" transform="translate(-542.941 -810.479)" fill="#68accd"/>
            <path id="Trazado_718" data-name="Trazado 718" d="M638.106,926.429h0m0,0L542.941,926V910.992l95.165,15.437m-95.165-3.9v.441l8.372.431-8.372-.873m0-4.09v1.7l32.18,2.8-32.18-4.5" transform="translate(-542.941 -808.677)" fill="#89c5da"/>
            <path id="Trazado_719" data-name="Trazado 719" d="M551.313,922.786l-8.372-.431v-.441l8.372.873m23.808-.464-32.18-2.8v-1.7l32.18,4.5" transform="translate(-542.941 -808.065)" fill="#68accd"/>
            <path id="Trazado_720" data-name="Trazado 720" d="M542.941,957.349V941.485l95.165-16.325-58.759,19.874-36.406,8.66v2.532l24.7-7.232L546.6,956.111l-3.659.975v.263m15.175-15.761-15.175,1.875v.808l15.175-2.684" transform="translate(-542.941 -807.408)" fill="#89c5da"/>
            <path id="Trazado_721" data-name="Trazado 721" d="M542.941,956v-.263l3.659-.975L542.941,956m0-1.122v-2.532l36.406-8.66-11.7,3.959-24.7,7.232m0-11.956v-.808l15.175-1.875-15.175,2.684" transform="translate(-542.941 -806.058)" fill="#68accd"/>
            <path id="Trazado_722" data-name="Trazado 722" d="M543.978,997.739h-1.037V977.221l95.165-52.061-94.128,72.579M580.4,968.866,542.941,992.8v2.569L580.4,968.866m-13.889.422-23.571,12.228v1.49l23.571-13.718" transform="translate(-542.941 -807.408)" fill="#89c5da"/>
            <path id="Trazado_723" data-name="Trazado 723" d="M542.941,991.779V989.21L580.4,965.274l-37.461,26.505m0-12.365v-1.491L566.512,965.7l-23.571,13.718" transform="translate(-542.941 -803.816)" fill="#68accd"/>
            <path id="Trazado_724" data-name="Trazado 724" d="M587.837,997.739H569.518l66.208-72.58-47.89,72.58" transform="translate(-540.561 -807.408)" fill="#89c5da"/>
            <path id="Trazado_725" data-name="Trazado 725" d="M614.139,997.739H601.425l31.445-72.58-18.73,72.58" transform="translate(-537.704 -807.408)" fill="#89c5da"/>
          </g>
          <g id="Grupo_712" data-name="Grupo 712" transform="translate(-2.234 78.305)">
            <path id="Trazado_726" data-name="Trazado 726" d="M563.475,933.927s20.817-31.887,28.582-27.426S624.6,941.858,624.6,941.858s-5.617,35.027-35.191,30.4S563.475,933.927,563.475,933.927Z" transform="translate(-563.333 -904.411)" fill="#a2c3c8"/>
            <path id="Trazado_727" data-name="Trazado 727" d="M575.032,921.621c3.3-2.2,6.5-6.829,7.931-4.075s2.423,3.032,3.195,1.847,4.185.082,4.185,2.7,6.818,4.384,6.5-3.332,2.533-.661,4.846-.771-8.151-13.391-11.675-13.437-4.324,1.405-7.159,3.745c-2.4,1.98-6.95,6.414-8.726,9.583C572.449,920.869,573.427,922.691,575.032,921.621Z" transform="translate(-562.445 -904.548)" fill="#d1dce6"/>
          </g>
          <g id="Grupo_713" data-name="Grupo 713" transform="translate(100.232 65.751)">
            <path id="Trazado_728" data-name="Trazado 728" d="M657.378,930.69s14.54-27.1,15.862-26.434,6.168-10.794,9.693-8.371,20.928,32.382,19.605,38.992-13.878,23.791-13.878,23.791l-19.606-3.084Z" transform="translate(-657.378 -892.8)" fill="#adbbd3"/>
            <path id="Trazado_729" data-name="Trazado 729" d="M666.879,910.649c-3.085,5.288.44,3.084,2.973,0s3.3.85,4.516,1.2,2.5-5.6,4.882-4.391,2.387,9.362,5.692,7.821.551-7.251,2.864-6.709,5.509,10.064,7.049,7.45-8.041-22.991-13.218-22.991S669.963,905.363,666.879,910.649Z" transform="translate(-656.635 -893.026)" fill="#d1dce6"/>
            <path id="Trazado_730" data-name="Trazado 730" d="M686.231,955.272l-1.737-21.809,3.1,19.9" transform="translate(-654.95 -889.405)" fill="#a2c3c8"/>
          </g>
          <g id="Grupo_714" data-name="Grupo 714" transform="translate(41.958 13.48)">
            <path id="Trazado_731" data-name="Trazado 731" d="M626.306,932.439l-2.236.5-17.581-77.889a.979.979,0,0,1,.742-1.168l.325-.073a.979.979,0,0,1,1.168.742Z" transform="translate(-603.663 -844.269)" fill="#c0d0d4" stroke="#8b9ba0" stroke-miterlimit="10" stroke-width="1.241"/>
            <rect id="Rectángulo_195" data-name="Rectángulo 195" width="4.241" height="2.375" rx="1.09" transform="matrix(0.976, -0.218, 0.218, 0.976, 0.78, 6.095)" fill="#c0d0d4" stroke="#8b9ba0" stroke-miterlimit="10" stroke-width="1.283"/>
            <ellipse id="Elipse_130" data-name="Elipse 130" cx="1.937" cy="1.937" rx="1.937" ry="1.937" fill="#c0d0d4" stroke="#8b9ba0" stroke-miterlimit="10" stroke-width="1.283"/>
            <path id="Trazado_732" data-name="Trazado 732" d="M677.486,871.389c-.407.055-10.077,3.584-18.588,3.388-7.64-.177-17.676-3.652-25.526-2.562-10,1.39-16.727,8.982-16.727,8.982L611,855.924c3.47-2.75,7.975-6.281,13.451-7.831,9.117-2.579,19.551,1.833,27.757,1.322a111.522,111.522,0,0,0,17.348-2.973l-4.873,13.134Z" transform="translate(-603.257 -844.927)" fill="#f3e155" stroke="#cea83f" stroke-linejoin="round" stroke-width="1.283"/>
          </g>
          <g id="Grupo_715" data-name="Grupo 715" transform="translate(15.641 56.988)">
            <path id="Trazado_733" data-name="Trazado 733" d="M579.739,955.206s29.739-35.687,35.687-35.687,15.619-29.6,21.566-29.6,31.964,35.546,37.912,41.494,11.9,17.843,17.844,23.791-11.9,47.584-47.583,41.636S579.739,984.946,579.739,955.206Z" transform="translate(-579.739 -884.541)" fill="#88bfa2"/>
            <path id="Trazado_734" data-name="Trazado 734" d="M652.12,900.248c2.033,3.469,11.642,18.54,8.892,19.112-1.868.388-13-11.624-16.743-12.286s-2.431,7.523-5.4,5.4c-1.847-1.324-1.632-3.44-3.955-3.312-1.408.077-2.213,7.938-6.839,7.167s-2.947-5.5-4.736-4.3c-1.722,1.163-4.077,7.922-6.829,9.991-4.282,3.221-8.847,1.5-8.261-.9.451-1.85,11.867-16.432,13.547-19.992l6.7-10.764c2.046-3.6,5.744-5.649,9.083-5.351a6.837,6.837,0,0,1,5.389,3.559l5.687,5.769Z" transform="translate(-577.19 -884.983)" fill="#d1dce6"/>
            <path id="Trazado_735" data-name="Trazado 735" d="M654.373,997.267l-11.35-66.837,18.714,61.905" transform="translate(-574.072 -880.913)" fill="#82a693"/>
            <path id="Trazado_736" data-name="Trazado 736" d="M621.787,985.06l4.186-27.536-9.032,27.536Z" transform="translate(-576.408 -878.487)" fill="#82a693"/>
            <path id="Trazado_737" data-name="Trazado 737" d="M600.2,981.722c.555.243,17.271-41.59,17.271-41.59l-19.991,40.317Z" transform="translate(-578.15 -880.044)" fill="#82a693"/>
          </g>
          <g id="Grupo_717" data-name="Grupo 717" transform="translate(58.239 24.472)">
            <g id="Grupo_716" data-name="Grupo 716">
              <path id="Trazado_738" data-name="Trazado 738" d="M622.912,858.929c.75,3.917,1.131,5.861,1.9,9.721a2.108,2.108,0,0,1-.913,2.036c-.647.415-1.287.2-1.427-.534-.668-3.48-1-5.232-1.646-8.758-.315.231-.473.352-.786.6-.532.427-1.068.3-1.184-.362a2.406,2.406,0,0,1,.755-2.019,17.37,17.37,0,0,1,1.961-1.407C622.169,857.838,622.774,858.2,622.912,858.929Z" transform="translate(-618.836 -854.878)" fill="#d26f3c"/>
              <path id="Trazado_739" data-name="Trazado 739" d="M629.941,868.124a3.557,3.557,0,0,1-4.619-2.756c-.343-1.69-.514-2.538-.853-4.238-.458-2.293.8-4.918,2.808-5.391,2.035-.479,4.111,1.252,4.616,3.478.376,1.651.564,2.473.945,4.112A3.97,3.97,0,0,1,629.941,868.124Zm-3.131-7.882c.351,1.688.527,2.528.884,4.2a1.365,1.365,0,0,0,1.68,1.1,1.519,1.519,0,0,0,1.038-1.813c-.368-1.658-.551-2.49-.915-4.159a1.461,1.461,0,0,0-1.668-1.209A1.588,1.588,0,0,0,626.81,860.243Z" transform="translate(-618.34 -855.093)" fill="#d26f3c"/>
              <path id="Trazado_740" data-name="Trazado 740" d="M635.949,867.075a.866.866,0,0,1-1.326.748,1.151,1.151,0,0,1-.587-.969c-.014-.642-.022-.961-.038-1.6a.837.837,0,0,1,.661-.871,1.169,1.169,0,0,1,1.254,1.119C635.928,866.131,635.935,866.446,635.949,867.075Z" transform="translate(-617.479 -854.313)" fill="#d26f3c"/>
              <path id="Trazado_741" data-name="Trazado 741" d="M640.583,866.62a4.634,4.634,0,0,1-4.455-3.62c-.382-1.592-.572-2.391-.952-4-.512-2.164.66-3.937,2.511-3.861a5.285,5.285,0,0,1,4.4,3.843c.409,1.5.613,2.251,1.027,3.739A2.889,2.889,0,0,1,640.583,866.62Zm-3.187-7.644c.385,1.576.579,2.36.966,3.921a1.736,1.736,0,0,0,1.6,1.338,1.047,1.047,0,0,0,.9-1.423c-.4-1.524-.6-2.29-.993-3.829a1.873,1.873,0,0,0-1.586-1.4C637.6,857.568,637.211,858.216,637.4,858.975Z" transform="translate(-617.384 -855.14)" fill="#d26f3c"/>
              <path id="Trazado_742" data-name="Trazado 742" d="M648.682,866.07c-2.219-.167-4.372-1.455-4.943-3.432-.424-1.465-.634-2.2-1.052-3.684-.563-2,.587-3.69,2.6-3.618a5.934,5.934,0,0,1,4.858,3.858c.509,1.464.778,2.212,1.322,3.7C652.2,864.908,650.937,866.24,648.682,866.07Zm-3.663-7.191c.436,1.44.656,2.161,1.1,3.6a2.125,2.125,0,0,0,1.823,1.329c.8.051,1.237-.479,1-1.19-.495-1.471-.739-2.207-1.208-3.664a2.116,2.116,0,0,0-1.764-1.378A.948.948,0,0,0,645.019,858.879Z" transform="translate(-616.714 -855.122)" fill="#d26f3c"/>
              <path id="Trazado_743" data-name="Trazado 743" d="M657.556,866.256c-2.085.614-4.615-1.258-5.387-3.275-.573-1.5-.856-2.246-1.387-3.707-.716-1.971.436-3.253,2.354-3.513,1.947-.263,3.941.042,4.75,1.762.6,1.275.936,1.953,1.607,3.292C660.4,862.619,659.67,865.634,657.556,866.256Zm-4.417-6.985c.567,1.439.875,2.186,1.493,3.671a1.781,1.781,0,0,0,1.928,1.072,1.253,1.253,0,0,0,.735-1.76c-.657-1.432-.985-2.154-1.58-3.53a1.636,1.636,0,0,0-1.783-.887A1,1,0,0,0,653.139,859.271Z" transform="translate(-615.995 -855.092)" fill="#d26f3c"/>
            </g>
          </g>
          <path id="Trazado_744" data-name="Trazado 744" d="M597.932,854.933l1.943,3.552,3.552,1.943-3.552,1.943-1.943,3.552-1.943-3.552-3.552-1.943,3.552-1.943Z" transform="translate(-562.961 -830.686)" fill="#f4eb7a"/>
          <path id="Trazado_745" data-name="Trazado 745" d="M673.453,855.8l1.554,2.842,2.842,1.554-2.842,1.554-1.554,2.842-1.554-2.842-2.842-1.554,2.842-1.554Z" transform="translate(-556.1 -830.608)" fill="#f4eb7a"/>
          <path id="Trazado_746" data-name="Trazado 746" d="M651.8,842.509l.794,1.453,1.453.795-1.453.794L651.8,847,651,845.551l-1.453-.794,1.453-.795Z" transform="translate(-557.847 -831.799)" fill="#f4eb7a"/>
          <path id="Trazado_747" data-name="Trazado 747" d="M608.477,878.341l1.189,2.174,2.174,1.189-2.174,1.189-1.189,2.174-1.189-2.174-2.174-1.189,2.174-1.189Z" transform="translate(-561.826 -828.59)" fill="#f4eb7a"/>
        </g>
      </g>
      <ellipse id="Elipse_132" data-name="Elipse 132" cx="76.689" cy="76.69" rx="76.689" ry="76.69" fill="none" stroke="#fff" stroke-miterlimit="10" stroke-width="10"/>
    </g>
  </g>
</svg>
