<svg xmlns="http://www.w3.org/2000/svg" width="211" height="211" viewBox="0 0 211 211">
  <g id="Grupo_1065" data-name="Grupo 1065" transform="translate(-722 -3005)">
    <g id="Rectángulo_342" data-name="Rectángulo 342" transform="translate(722 3005)" fill="#fff" stroke="rgba(112,112,112,0)" stroke-width="1">
      <rect width="211" height="211" stroke="none"/>
      <rect x="0.5" y="0.5" width="210" height="210" fill="none"/>
    </g>
    <g id="Grupo_764" data-name="Grupo 764" transform="translate(-946.675 2585.654)">
      <path id="Trazado_767" data-name="Trazado 767" d="M1771.513,584.03a78.506,78.506,0,0,1-11.772-.981,56.148,56.148,0,0,1-10.5-2.539,65.631,65.631,0,0,1-10.2-4.257,77.184,77.184,0,0,1-10.931-7.121,73.315,73.315,0,0,1-6.781-5.995,66.775,66.775,0,0,1-9.18-11.522,71.44,71.44,0,0,1-4.943-9.042,72.571,72.571,0,0,1-4.58-13.327c-.578-2.548-.84-5.173-1.174-7.772a72.445,72.445,0,0,1-.374-12.189,90.358,90.358,0,0,1,1.133-9.583,61.609,61.609,0,0,1,3.7-13.127c.736-1.907,1.762-3.7,2.655-5.546a70.028,70.028,0,0,1,54.385-38.26,70.083,70.083,0,0,1,27.337,1.859,67.082,67.082,0,0,1,13.469,5.157,73.707,73.707,0,0,1,16.509,11.559,70.513,70.513,0,0,1,21.34,38.868,69.231,69.231,0,0,1-.019,26.092,70.7,70.7,0,0,1-26.676,43.166,75.765,75.765,0,0,1-13.915,8.4,62.3,62.3,0,0,1-11.221,3.96A69.835,69.835,0,0,1,1771.513,584.03Zm6.549-15.6c8.858-.066,21.775-5.275,32.548-15.772a53.453,53.453,0,0,0,16.653-38.687,55.243,55.243,0,0,0-54.668-56.217c-15.311-.106-28.563,5.138-39.481,15.954a55.492,55.492,0,0,0-.426,78.512C1743.429,563.018,1756.563,568.479,1778.063,568.435Z" transform="translate(2.876 2.369)" fill="#e5c01f"/>
      <path id="Trazado_768" data-name="Trazado 768" d="M1721.864,613.405c0-17.457,0-34.914,0-52.62,1.26.89,2.386,1.672,3.5,2.471a72.051,72.051,0,0,0,25.653,11.526,74.138,74.138,0,0,0,41.5-1.275,68.059,68.059,0,0,0,13.281-5.55,73,73,0,0,0,9.318-5.984c.868-.667,1.757-1.307,2.634-1.962.448-.335.723-.255.775.324.024.281.015.565.015.847q0,25.529,0,51.06c0,.335-.028.669-.047,1.085a6.372,6.372,0,0,1-3.041-1.208c-2.244-1.243-4.462-2.53-6.673-3.831-3.119-1.835-6.35-3.471-9.429-5.382-1.988-1.234-4.113-2.246-6.138-3.422-3.128-1.816-6.345-3.476-9.43-5.373-1.934-1.192-3.98-2.2-5.968-3.305-1.918-1.067-3.834-2.136-5.73-3.241a1.37,1.37,0,0,0-1.509-.021q-4.332,2.337-8.673,4.657c-2.047,1.1-4.13,2.158-6.163,3.283-2.534,1.4-5.145,2.655-7.643,4.13-1.715,1.013-3.529,1.872-5.284,2.834-3.952,2.165-7.972,4.207-11.955,6.32-2.742,1.454-5.466,2.943-8.2,4.415A1.142,1.142,0,0,1,1721.864,613.405Z" transform="translate(5.248 15.733)" fill="#f07924"/>
      <path id="Trazado_769" data-name="Trazado 769" d="M1818.546,455.259c-1.3.235-1.864-.833-2.6-1.375a100.443,100.443,0,0,0-9.709-6.3,56.676,56.676,0,0,0-5.722-2.813,51.567,51.567,0,0,0-8.441-3.012c-2.633-.628-5.212-1.484-7.853-2.069a67.293,67.293,0,0,0-26.764-.5,59.868,59.868,0,0,0-6.421,1.451c-1.361.4-2.824.625-4.209,1.04a73.628,73.628,0,0,0-12.39,4.877,70.637,70.637,0,0,0-6.354,3.638c-2.056,1.334-4.04,2.779-6.255,4.313V423.147a4.6,4.6,0,0,0,0-.677c-.145-.954.354-1.187,1.182-1.11.335.031.677,0,1.017,0q46.213,0,92.427.006c2.417,0,2.089-.336,2.092,2.02q.02,15.009.006,30.017Z" transform="translate(5.241 0)" fill="#f07924"/>
      <path id="Trazado_770" data-name="Trazado 770" d="M1675.706,521.1a7.156,7.156,0,0,1,7.718-7.285,7.543,7.543,0,0,1,7.53,7.685,7.875,7.875,0,0,1-7.932,7.634A7.376,7.376,0,0,1,1675.706,521.1Z" transform="translate(0 10.507)" fill="#f07924"/>
      <path id="Trazado_771" data-name="Trazado 771" d="M1839.041,521.075a7.158,7.158,0,0,1,7.746-7.255,7.541,7.541,0,0,1,7.5,7.714,7.874,7.874,0,0,1-7.963,7.6A7.381,7.381,0,0,1,1839.041,521.075Z" transform="translate(18.559 10.507)" fill="#f07924"/>
      <path id="Trazado_772" data-name="Trazado 772" d="M1683.44,543.961c-.353-3.035,2.7-5.136,5.191-5a5.252,5.252,0,0,1,5,5.116c-.019,3.1-2.39,5.157-5.9,5.094a3.879,3.879,0,0,1-2.869-1.38A4.384,4.384,0,0,1,1683.44,543.961Z" transform="translate(0.874 13.363)" fill="#f07924"/>
      <path id="Trazado_773" data-name="Trazado 773" d="M1840.592,549.176c-2.685.282-4.774-2.664-4.816-4.467-.039-1.668.1-3.238,1.415-4.411a5.285,5.285,0,0,1,3.631-1.326,5.106,5.106,0,1,1-.229,10.2Z" transform="translate(18.191 13.365)" fill="#f07924"/>
      <path id="Trazado_774" data-name="Trazado 774" d="M1699.27,559.032c.12-1.951,1.184-3,2.929-2.88a2.834,2.834,0,1,1-.315,5.658A2.525,2.525,0,0,1,1699.27,559.032Z" transform="translate(2.68 15.316)" fill="#f07924"/>
      <path id="Trazado_775" data-name="Trazado 775" d="M1826.755,561.816q-2.684-.03-2.647-2.9a2.525,2.525,0,0,1,2.672-2.758,2.864,2.864,0,0,1,2.886,2.888A2.777,2.777,0,0,1,1826.755,561.816Z" transform="translate(16.866 15.318)" fill="#f07924"/>
      <path id="Trazado_776" data-name="Trazado 776" d="M1776.466,566.847c-21.5.044-34.634-5.417-45.374-16.211a55.492,55.492,0,0,1,.425-78.512c10.918-10.816,24.17-16.06,39.481-15.954a55.243,55.243,0,0,1,54.668,56.217,53.453,53.453,0,0,1-16.653,38.687C1798.241,561.572,1785.324,566.781,1776.466,566.847ZM1783.2,514.6c-.961-.586-1.9-1.206-2.887-1.751a11.528,11.528,0,0,0-10.906-.324,20.3,20.3,0,0,0-6.331,4.759c-.332.353-.549.859-1.074.969-.085-.032-.154-.038-.186-.076-.375-.422-.732-.861-1.116-1.274-4.047-4.352-8.838-7.036-14.985-6.435-5.135.5-8.975,2.909-10.846,7.914a20.028,20.028,0,0,0-1.043,8.512,3.539,3.539,0,0,0,.9,2.129,21.347,21.347,0,0,0,6.875,5.416,43.448,43.448,0,0,0,7.251,2.825,69.632,69.632,0,0,0,27.345,2.114,93.051,93.051,0,0,0,22.78-5.667,2.678,2.678,0,0,0,1.844-1.948,53.875,53.875,0,0,0,.961-25.484A70.378,70.378,0,0,0,1793.9,486a33.463,33.463,0,0,1-2.535-4.784,9.15,9.15,0,0,0-3.953-4.685,64.644,64.644,0,0,0-9.888-4.821,3.048,3.048,0,0,0-2.905.315,7.173,7.173,0,0,0-2.155,2.129,20.006,20.006,0,0,0-2.9,6.276c-.464,1.7-.065,2.485,1.581,3.185a17.332,17.332,0,0,0,3.073.8c-.635,1.924.209,3.182,2.14,3.257a6.086,6.086,0,0,0,3.4-.874c1.277-.757,1.638-.672,2.4.594a6.671,6.671,0,0,1,.52,1.063,19.206,19.206,0,0,1,.531,12.943,25.776,25.776,0,0,0-1.231,5.779,15.184,15.184,0,0,0,1.427,7.233C1783.333,514.472,1783.268,514.538,1783.2,514.6Zm-38.955-8.1c.756-6.089,4.178-9.613,10.184-10.812-1.077-.37-2.013-.609-2.878-1-2.854-1.3-4.462-3.713-5.576-6.518a28.287,28.287,0,0,1-1.586-6.476c-.912,6.633-3.514,11.916-11.077,13.6C1739.966,496.488,1742.762,500.8,1744.25,506.5Zm17.306-.941c.586-2.832,2.346-4.414,5.166-5.114-3.482-.964-4.436-3.6-5.077-6.617-.586,3-1.944,5.369-5.085,6.436C1759.353,501.031,1760.627,503.058,1761.556,505.563Z" transform="translate(4.472 3.957)" fill="#ffe500"/>
      <path id="Trazado_777" data-name="Trazado 777" d="M1781.488,512.846a15.184,15.184,0,0,1-1.427-7.233,25.768,25.768,0,0,1,1.23-5.779,19.206,19.206,0,0,0-.531-12.943,6.653,6.653,0,0,0-.52-1.064c-.76-1.265-1.12-1.351-2.4-.594a6.088,6.088,0,0,1-3.4.874c-1.931-.076-2.775-1.333-2.14-3.257a17.338,17.338,0,0,1-3.073-.8c-1.646-.7-2.046-1.488-1.581-3.185a20.006,20.006,0,0,1,2.9-6.276,7.172,7.172,0,0,1,2.155-2.129,3.048,3.048,0,0,1,2.906-.315,64.662,64.662,0,0,1,9.888,4.821,9.15,9.15,0,0,1,3.953,4.685,33.464,33.464,0,0,0,2.535,4.784,70.381,70.381,0,0,1,7.889,20.285,53.875,53.875,0,0,1-.961,25.484,2.678,2.678,0,0,1-1.844,1.948,93.051,93.051,0,0,1-22.78,5.667,69.63,69.63,0,0,1-27.345-2.114,43.448,43.448,0,0,1-7.251-2.825,21.346,21.346,0,0,1-6.875-5.416,3.54,3.54,0,0,1-.9-2.129,20.03,20.03,0,0,1,1.043-8.513c1.871-5,5.711-7.41,10.846-7.913,6.147-.6,10.938,2.082,14.985,6.435.384.413.74.852,1.116,1.274.032.038.1.043.186.076.526-.11.743-.616,1.074-.969a20.3,20.3,0,0,1,6.331-4.759,11.529,11.529,0,0,1,10.906.324c.983.545,1.926,1.165,2.887,1.751.071.129.171.293.317.155S1781.611,512.936,1781.488,512.846Z" transform="translate(6.383 5.518)" fill="#fff"/>
      <path id="Trazado_778" data-name="Trazado 778" d="M1742.385,503.9c-1.488-5.7-4.284-10.016-10.932-11.209,7.564-1.685,10.165-6.968,11.077-13.6a28.293,28.293,0,0,0,1.586,6.476c1.114,2.805,2.722,5.214,5.576,6.518.864.394,1.8.634,2.878,1C1746.563,494.287,1743.141,497.81,1742.385,503.9Z" transform="translate(6.337 6.561)" fill="#fff"/>
      <path id="Trazado_779" data-name="Trazado 779" d="M1757.319,501.72c-.929-2.5-2.2-4.531-5-5.3,3.14-1.067,4.5-3.439,5.085-6.436.641,3.02,1.595,5.653,5.077,6.617C1759.665,497.306,1757.9,498.888,1757.319,501.72Z" transform="translate(8.709 7.8)" fill="#fff"/>
      <path id="Trazado_780" data-name="Trazado 780" d="M1776.443,508.465c.123.09.26.222.123.35s-.246-.026-.317-.155C1776.313,508.6,1776.377,508.53,1776.443,508.465Z" transform="translate(11.428 9.899)" fill="#ffe500"/>
    </g>
  </g>
</svg>
