<svg xmlns="http://www.w3.org/2000/svg" width="211" height="211" viewBox="0 0 211 211">
  <g id="Grupo_1064" data-name="Grupo 1064" transform="translate(-459 -3005)">
    <g id="Rectángulo_343" data-name="Rectángulo 343" transform="translate(459 3005)" fill="#fff" stroke="rgba(255,255,255,0)" stroke-width="1">
      <rect width="211" height="211" stroke="none"/>
      <rect x="0.5" y="0.5" width="210" height="210" fill="none"/>
    </g>
    <g id="Grupo_767" data-name="Grupo 767" transform="translate(-1074.593 2778.32)">
      <path id="Trazado_806" data-name="Trazado 806" d="M1735.77,246.542s-25.545-18.862-96.548-18.862-96.56,18.862-96.56,18.862a1.045,1.045,0,0,0-1.069,1.038v94.228c0,52.622,43.7,95.277,97.618,95.277h.011c53.915,0,97.618-42.655,97.618-95.277V247.58A1.047,1.047,0,0,0,1735.77,246.542Zm-51.317,169.712a90.933,90.933,0,0,1-44.7,11.635h-.011a89.934,89.934,0,0,1-79.9-47.767s52.524-6.213,92.581,11.485c39.33-15.848,69.965-18.875,70.683-18.949A88.423,88.423,0,0,1,1684.453,416.254Z" transform="translate(0 0)" fill="#30d440"/>
      <path id="Trazado_807" data-name="Trazado 807" d="M1679.25,373.1a90.933,90.933,0,0,1-44.7,11.635h-.011a89.934,89.934,0,0,1-79.9-47.767s52.524-6.213,92.581,11.485C1659.8,354,1671.134,361.913,1679.25,373.1Z" transform="translate(5.204 43.155)" fill="#24b632" stroke="#fff" stroke-miterlimit="10" stroke-width="4"/>
      <path id="Trazado_808" data-name="Trazado 808" d="M1691.515,331.329a88.423,88.423,0,0,1-38.657,43.6c-8.115-11.186-19.451-19.1-32.025-24.647C1660.162,334.43,1690.8,331.4,1691.515,331.329Z" transform="translate(31.596 41.329)" fill="#15a923" stroke="#fff" stroke-miterlimit="10" stroke-width="4"/>
      <g id="Grupo_746" data-name="Grupo 746" transform="translate(1603.105 261.066)">
        <g id="Trazado_809" data-name="Trazado 809" transform="translate(-1585.57 -251.548)" fill="#fff" stroke-miterlimit="10">
          <path d="M 1623.264770507812 359.2246704101562 L 1621.576538085938 359.2246704101562 C 1617.702880859375 359.2246704101562 1614.551513671875 356.06640625 1614.551513671875 352.1843566894531 L 1614.551513671875 337.9918212890625 L 1592.426635742188 337.9918212890625 C 1589.270263671875 337.9918212890625 1586.349975585938 336.4161682128906 1584.614868164062 333.7769775390625 C 1582.880493164062 331.1387939453125 1582.59130859375 327.8358459472656 1583.841186523438 324.9416198730469 L 1614.219604492188 254.6874084472656 C 1614.984252929688 252.9159088134766 1616.230590820312 251.4536590576172 1617.822998046875 250.4601898193359 C 1619.303344726562 249.53662109375 1621.023193359375 249.0484619140625 1622.796630859375 249.0484619140625 C 1624.570068359375 249.0484619140625 1626.2900390625 249.5366058349609 1627.770385742188 250.4601440429688 C 1629.362915039062 251.4535980224609 1630.609130859375 252.9158172607422 1631.374633789062 254.6887359619141 L 1661.751708984375 324.9405822753906 C 1663.002197265625 327.8355712890625 1662.713134765625 331.1384582519531 1660.978881835938 333.7767028808594 C 1659.243896484375 336.4160766601562 1656.323486328125 337.9918212890625 1653.1669921875 337.9918212890625 L 1630.291015625 337.9918212890625 L 1630.291015625 352.1843566894531 C 1630.291015625 356.06640625 1627.139038085938 359.2246704101562 1623.264770507812 359.2246704101562 Z" stroke="none"/>
          <path d="M 1623.264770507812 356.7246704101562 C 1625.765625 356.7246704101562 1627.791015625 354.6853332519531 1627.791015625 352.1843566894531 L 1627.791015625 335.4918212890625 L 1653.1669921875 335.4918212890625 C 1658.091796875 335.4918212890625 1661.405517578125 330.4437561035156 1659.45703125 325.9328002929688 L 1629.079345703125 255.6796569824219 C 1626.701538085938 250.1715087890625 1618.89208984375 250.1712646484375 1616.514282226562 255.6796569824219 L 1586.136352539062 325.9328002929688 C 1584.188232421875 330.4437561035156 1587.501708984375 335.4918212890625 1592.426635742188 335.4918212890625 L 1617.051513671875 335.4918212890625 L 1617.051513671875 352.1843566894531 C 1617.051513671875 354.6853332519531 1619.076904296875 356.7246704101562 1621.576538085938 356.7246704101562 L 1623.264770507812 356.7246704101562 M 1623.264770507812 361.7246704101562 L 1621.576538085938 361.7246704101562 C 1616.324462890625 361.7246704101562 1612.051513671875 357.4449157714844 1612.051513671875 352.1843566894531 L 1612.051513671875 340.4918212890625 L 1592.426635742188 340.4918212890625 C 1588.425903320312 340.4918212890625 1584.724731445312 338.4949951171875 1582.52587890625 335.1502990722656 C 1580.327758789062 331.8066101074219 1579.96142578125 327.6197509765625 1581.546142578125 323.950439453125 L 1611.924926757812 253.6952056884766 C 1612.891479492188 251.4561004638672 1614.473876953125 249.6029968261719 1616.499755859375 248.3391265869141 C 1618.37744140625 247.1676788330078 1620.554931640625 246.5484771728516 1622.796630859375 246.5484771728516 C 1625.038452148438 246.5484771728516 1627.215942382812 247.1676483154297 1629.093627929688 248.3390808105469 C 1631.119506835938 249.6029052734375 1632.701904296875 251.4559326171875 1633.669799804688 253.6978302001953 L 1664.04638671875 323.9483642578125 C 1665.632080078125 327.6193237304688 1665.265991210938 331.8061828613281 1663.067993164062 335.1499633789062 C 1660.869140625 338.4948425292969 1657.167846679688 340.4918212890625 1653.1669921875 340.4918212890625 L 1632.791015625 340.4918212890625 L 1632.791015625 352.1843566894531 C 1632.791015625 357.4449157714844 1628.517578125 361.7246704101562 1623.264770507812 361.7246704101562 Z" stroke="none" fill="#3bb14a"/>
        </g>
      </g>
      <g id="Grupo_747" data-name="Grupo 747" transform="translate(1567.419 298.285)">
        <g id="Trazado_810" data-name="Trazado 810" transform="translate(-1560.056 -278.157)" fill="#fff" stroke-miterlimit="10">
          <path d="M 1586.322509765625 353.9620666503906 L 1585.156005859375 353.9620666503906 C 1582.0322265625 353.9620666503906 1579.490844726562 351.4205932617188 1579.490844726562 348.2967224121094 L 1579.490844726562 339.1620178222656 L 1564.839233398438 339.1620178222656 C 1562.376098632812 339.1620178222656 1560.099365234375 337.931396484375 1558.7490234375 335.8701171875 C 1557.404541015625 333.8178100585938 1557.185180664062 331.2525329589844 1558.161987304688 329.0068664550781 L 1579.322509765625 280.0450744628906 C 1579.917114257812 278.6676940917969 1580.888549804688 277.52978515625 1582.131469726562 276.7553100585938 C 1583.284423828125 276.0369567871094 1584.622680664062 275.6572265625 1586.001586914062 275.6572265625 C 1587.380615234375 275.6572265625 1588.718872070312 276.0369567871094 1589.871704101562 276.7553405761719 C 1591.11474609375 277.5298156738281 1592.086181640625 278.667724609375 1592.68115234375 280.0460815429688 L 1613.841674804688 329.0078430175781 C 1614.817260742188 331.2536010742188 1614.59716796875 333.8189697265625 1613.25244140625 335.8708801269531 C 1611.90185546875 337.9317016601562 1609.625122070312 339.1620178222656 1607.162353515625 339.1620178222656 L 1591.976684570312 339.1620178222656 L 1591.976684570312 348.2967224121094 C 1591.976684570312 351.4205932617188 1589.440185546875 353.9620666503906 1586.322509765625 353.9620666503906 Z" stroke="none"/>
          <path d="M 1586.322509765625 351.4620666503906 C 1588.065551757812 351.4620666503906 1589.476684570312 350.0395812988281 1589.476684570312 348.2967224121094 L 1589.476684570312 336.6620178222656 L 1607.162353515625 336.6620178222656 C 1610.594848632812 336.6620178222656 1612.915405273438 333.1441650390625 1611.547485351562 330.0011901855469 L 1590.385864257812 281.036865234375 C 1588.728393554688 277.197509765625 1583.274780273438 277.197265625 1581.617309570312 281.036865234375 L 1560.455688476562 330.0011901855469 C 1559.086303710938 333.1441650390625 1561.406860351562 336.6620178222656 1564.839233398438 336.6620178222656 L 1581.990844726562 336.6620178222656 L 1581.990844726562 348.2967224121094 C 1581.990844726562 350.0395812988281 1583.413208007812 351.4620666503906 1585.156005859375 351.4620666503906 L 1586.322509765625 351.4620666503906 M 1586.322509765625 356.4620666503906 L 1585.156005859375 356.4620666503906 C 1580.653686523438 356.4620666503906 1576.990844726562 352.7991027832031 1576.990844726562 348.2967224121094 L 1576.990844726562 341.6620178222656 L 1564.839233398438 341.6620178222656 C 1561.530151367188 341.6620178222656 1558.4716796875 340.0089721679688 1556.65771484375 337.2401123046875 C 1554.849975585938 334.4806213378906 1554.555419921875 331.0304870605469 1555.869384765625 328.0096435546875 L 1577.027587890625 279.0532836914062 C 1577.824462890625 277.2073669433594 1579.132446289062 275.6783752441406 1580.809448242188 274.6334838867188 C 1582.359497070312 273.667724609375 1584.154907226562 273.1572265625 1586.001586914062 273.1572265625 C 1587.848388671875 273.1572265625 1589.643798828125 273.667724609375 1591.19384765625 274.633544921875 C 1592.870849609375 275.6784362792969 1594.178833007812 277.2074584960938 1594.976440429688 279.0552978515625 L 1616.1328125 328.0075073242188 C 1617.447387695312 331.0293884277344 1617.15234375 334.4811401367188 1615.343383789062 337.2412719726562 C 1613.529174804688 340.0093994140625 1610.470825195312 341.6620178222656 1607.162353515625 341.6620178222656 L 1594.476684570312 341.6620178222656 L 1594.476684570312 348.2967224121094 C 1594.476684570312 352.7991027832031 1590.818725585938 356.4620666503906 1586.322509765625 356.4620666503906 Z" stroke="none" fill="#3bb14a"/>
        </g>
      </g>
      <g id="Grupo_748" data-name="Grupo 748" transform="translate(1660.192 300.423)">
        <g id="Trazado_811" data-name="Trazado 811" transform="translate(-1626.382 -279.686)" fill="#fff" stroke-miterlimit="10">
          <path d="M 1652.654418945312 355.4910583496094 L 1651.477905273438 355.4910583496094 C 1648.360229492188 355.4910583496094 1645.82373046875 352.9495849609375 1645.82373046875 349.8257141113281 L 1645.82373046875 340.6910095214844 L 1631.1611328125 340.6910095214844 C 1628.704956054688 340.6910095214844 1626.432861328125 339.4650268554688 1625.083251953125 337.4115295410156 C 1623.734252929688 335.3591918945312 1623.509887695312 332.7898254394531 1624.482666015625 330.5384826660156 L 1645.654296875 281.57373046875 C 1646.24853515625 280.1971435546875 1647.219116210938 279.0594787597656 1648.46044921875 278.2850646972656 C 1649.61279296875 277.5662231445312 1650.950317382812 277.1862487792969 1652.328369140625 277.1862487792969 C 1653.70654296875 277.1862487792969 1655.044067382812 277.5662231445312 1656.1962890625 278.2850646972656 C 1657.437744140625 279.0594787597656 1658.408203125 280.1971740722656 1659.003051757812 281.5751647949219 L 1680.173828125 330.5379638671875 C 1681.14697265625 332.7896728515625 1680.922485351562 335.3589782714844 1679.57373046875 337.4112854003906 C 1678.223999023438 339.4649353027344 1675.95166015625 340.6910095214844 1673.495361328125 340.6910095214844 L 1658.308349609375 340.6910095214844 L 1658.308349609375 349.8257141113281 C 1658.308349609375 352.9495849609375 1655.77197265625 355.4910583496094 1652.654418945312 355.4910583496094 Z" stroke="none"/>
          <path d="M 1652.654418945312 352.9910583496094 C 1654.39697265625 352.9910583496094 1655.808349609375 351.5685424804688 1655.808349609375 349.8257141113281 L 1655.808349609375 338.1910095214844 L 1673.495361328125 338.1910095214844 C 1676.927978515625 338.1910095214844 1679.237426757812 334.6731262207031 1677.879150390625 331.5301513671875 L 1656.707763671875 282.56591796875 C 1655.050537109375 278.7265014648438 1649.606689453125 278.7262573242188 1647.948974609375 282.56591796875 L 1626.777587890625 331.5301513671875 C 1625.41943359375 334.6731262207031 1627.728637695312 338.1910095214844 1631.1611328125 338.1910095214844 L 1648.32373046875 338.1910095214844 L 1648.32373046875 349.8257141113281 C 1648.32373046875 351.5685424804688 1649.735107421875 352.9910583496094 1651.477905273438 352.9910583496094 L 1652.654418945312 352.9910583496094 M 1652.654418945312 357.9910583496094 L 1651.477905273438 357.9910583496094 C 1646.981689453125 357.9910583496094 1643.32373046875 354.3280944824219 1643.32373046875 349.8257141113281 L 1643.32373046875 343.1910095214844 L 1631.1611328125 343.1910095214844 C 1627.860595703125 343.1910095214844 1624.807495117188 341.5437622070312 1622.994018554688 338.7846069335938 C 1621.181396484375 336.0266723632812 1620.880004882812 332.5732727050781 1622.187744140625 329.5467834472656 L 1643.359619140625 280.58154296875 C 1644.15576171875 278.7373046875 1645.46240234375 277.2087707519531 1647.137329101562 276.1639404296875 C 1648.686889648438 275.1972351074219 1650.482055664062 274.6862487792969 1652.328369140625 274.6862487792969 C 1654.1748046875 274.6862487792969 1655.969970703125 275.1972351074219 1657.51953125 276.1639709472656 C 1659.194458007812 277.2088012695312 1660.501098632812 278.7373657226562 1661.29833984375 280.5844116210938 L 1682.468505859375 329.5457763671875 C 1683.776733398438 332.572998046875 1683.475463867188 336.0263671875 1681.662841796875 338.7843322753906 C 1679.849365234375 341.5436706542969 1676.796142578125 343.1910095214844 1673.495361328125 343.1910095214844 L 1660.808349609375 343.1910095214844 L 1660.808349609375 349.8257141113281 C 1660.808349609375 354.3280944824219 1657.150512695312 357.9910583496094 1652.654418945312 357.9910583496094 Z" stroke="none" fill="#3bb14a"/>
        </g>
      </g>
      <path id="Trazado_812" data-name="Trazado 812" d="M1671.375,331.329h-.01" transform="translate(51.746 41.329)" fill="none" stroke="#fff" stroke-miterlimit="10" stroke-width="4"/>
      <path id="Trazado_813" data-name="Trazado 813" d="M1727,251.6v86.54a85.41,85.41,0,0,1-6.3,32.272h-.01c-.717.074-31.353,3.1-70.683,18.949-40.057-17.7-92.581-11.485-92.581-11.485a85.353,85.353,0,0,1-9.763-39.735V251.6a.969.969,0,0,1,.983-.962s23.472-17.312,88.69-17.312,88.679,17.312,88.679,17.312A.969.969,0,0,1,1727,251.6Z" transform="translate(2.42 2.25)" fill="none" stroke="#fff" stroke-miterlimit="10" stroke-width="4"/>
    </g>
  </g>
</svg>
