<svg xmlns="http://www.w3.org/2000/svg" width="211" height="211" viewBox="0 0 211 211">
  <g id="Grupo_1063" data-name="Grupo 1063" transform="translate(-196 -3005)">
    <g id="Trazado_2419" data-name="Trazado 2419" transform="translate(196 3005)" fill="#fff">
      <path d="M0,0H211V211H0Z" stroke="none"/>
      <path d="M 1 1 L 1 210 L 210 210 L 210 1 L 1 1 M 0 0 L 211 0 L 211 211 L 0 211 L 0 0 Z" stroke="none" fill="rgba(255,255,255,0)"/>
    </g>
    <g id="Grupo_766" data-name="Grupo 766" transform="translate(-1104 2786.394)">
      <g id="Grupo_750" data-name="Grupo 750" transform="translate(1321 219.606)">
        <path id="Trazado_814" data-name="Trazado 814" d="M1406.253,303.321c-.972-2.305-1.59-4.727-2.33-7.108-1.7-5.486-3.351-10.989-5.02-16.486a5.788,5.788,0,0,0-1.251-2.434,1.922,1.922,0,0,0-3.08.034,5.542,5.542,0,0,0-1.184,2.467c-.907,3.432-1.753,6.883-2.708,10.3-1.213,4.351-2.506,8.678-3.775,13.012a8.6,8.6,0,0,1-.41.966c-2.013-1.608-4.022-3.221-6.041-4.821-2.385-1.888-4.785-3.757-7.167-5.648-1.484-1.177-2.943-2.386-4.423-3.568-2.043-1.633-4.1-3.249-6.142-4.881-1.479-1.183-2.94-2.387-4.42-3.569q-3.064-2.448-6.142-4.879a3.082,3.082,0,0,1-1.413-2.668c.077-9.147.038-18.3.044-27.446,0-1.605-.185-1.419,1.388-1.419q43.347-.005,86.692,0c1.617,0,1.422-.092,1.422,1.405.005,9.149-.011,18.3.023,27.446a2.451,2.451,0,0,1-.986,2.123c-3.254,2.623-6.526,5.228-9.7,7.941-1.858,1.585-3.75,3.133-5.634,4.678-2.081,1.7-4.134,3.448-6.257,5.106-2.443,1.9-4.754,3.975-7.14,5.953C1409.165,301.01,1407.7,302.156,1406.253,303.321Z" transform="translate(-1314.272 -213.825)" fill="#1d8aca"/>
        <path id="Trazado_815" data-name="Trazado 815" d="M1490.595,331.614a80.341,80.341,0,0,1-1.668,13.446,101.081,101.081,0,0,1-2.863,10.618,75.562,75.562,0,0,1-3.108,7.932,88.949,88.949,0,0,1-7.611,13.624,98.064,98.064,0,0,1-8.431,10.57,90.063,90.063,0,0,1-17.176,14.422,80.842,80.842,0,0,1-11.848,6.4,109.477,109.477,0,0,1-13.447,4.755A77,77,0,0,1,1414,415.421a89.164,89.164,0,0,1-16.583.738,98.2,98.2,0,0,1-10.733-1.134,63.108,63.108,0,0,1-7.469-1.5,98.947,98.947,0,0,1-11.171-3.731c-2.692-1.1-5.3-2.364-7.885-3.69a85.293,85.293,0,0,1-9.975-6.135,78.383,78.383,0,0,1-6.976-5.487,66.045,66.045,0,0,1-6.86-6.716c-.922-1.1-1.906-2.173-2.883-3.238a1.007,1.007,0,0,0-1.339-.321,7.97,7.97,0,0,1-10.214-3.519,9.736,9.736,0,0,1-.9-5.062c.088-2.425,1.475-4.038,3.088-5.541a4.358,4.358,0,0,1,1.23-.725,8.275,8.275,0,0,1,11.9,7.8,7.248,7.248,0,0,1-1.011,3.382,1.023,1.023,0,0,0,.143,1.394,85.819,85.819,0,0,0,21.673,18.516,84.493,84.493,0,0,0,27.958,10.618,87.4,87.4,0,0,0,9.8,1.236c2.644.191,5.275.233,7.911.178a84.3,84.3,0,0,0,22.459-3.512A85.152,85.152,0,0,0,1454.54,394.2a73.469,73.469,0,0,0,10.727-10.139,90.3,90.3,0,0,0,9.818-13.548,91.7,91.7,0,0,0,5.09-10.166,90.628,90.628,0,0,0,4.42-13.659,79.229,79.229,0,0,0,2.159-14.055,84.234,84.234,0,0,0-.526-16.178c-.157-1.216-.293-2.439-.526-3.649-.484-2.542-1.169-5.042-1.8-7.55a67.046,67.046,0,0,0-3.341-10.063c-1.066-2.474-2.131-4.948-3.422-7.325-1.482-2.718-3.054-5.383-4.742-7.994l-.1-.1c-1.045-1.148-1.257-2.665-.471-3.382.71-.649,2-.423,3.02.486.013.006.027.021.04.027.088.089.178.17.26.266s.149.172.218.26a3.106,3.106,0,0,1,.239.356c.916,1.366,1.8,2.739,2.644,4.154a88.321,88.321,0,0,1,6.3,12.844,96.337,96.337,0,0,1,4.256,14.3A87.285,87.285,0,0,1,1490.595,331.614Z" transform="translate(-1321 -206.847)" fill="#ffe500"/>
        <path id="Trazado_816" data-name="Trazado 816" d="M1446.972,277.263c-.069-.088-.143-.178-.218-.26s-.172-.177-.26-.266a1.575,1.575,0,0,1,.465.5A.055.055,0,0,1,1446.972,277.263Z" transform="translate(-1292.614 -206.684)" fill="#ffe500"/>
        <path id="Trazado_817" data-name="Trazado 817" d="M1395.438,219.622q21.641,0,43.281,0c1.758,0,1.558-.186,1.571,1.528.006.836-.016,1.673.006,2.508.013.487-.141.749-.667.717-.307-.018-.615,0-.923,0q-43.214,0-86.428,0c-1.687,0-1.475.212-1.492-1.447-.009-.836.032-1.674-.011-2.506-.034-.661.25-.862.857-.8.305.029.615,0,.923,0Z" transform="translate(-1314.266 -219.606)" fill="#1d8aca"/>
        <path id="Trazado_818" data-name="Trazado 818" d="M1395.587,236.947h-43.031c-.352,0-.705-.02-1.056,0-.489.032-.757-.142-.715-.667.007-.087-.006-.177,0-.264a13.427,13.427,0,0,1,.173-3.374,15.038,15.038,0,0,1,3.142-.093q42.239-.013,84.479,0c1.951,0,1.691-.237,1.712,1.65.007.7-.01,1.408,0,2.112.007.437-.163.656-.619.638-.352-.015-.7,0-1.056,0Z" transform="translate(-1314.268 -216.687)" fill="#1d8aca"/>
        <path id="Trazado_819" data-name="Trazado 819" d="M1395.434,230.4h-42.885c-.352,0-.705-.02-1.054,0-.493.032-.73-.147-.718-.671.022-.879.028-1.76,0-2.639-.019-.537.227-.694.711-.657.262.02.527,0,.791,0q43.214,0,86.428,0c1.848,0,1.555-.18,1.582,1.641.007.527-.026,1.057.007,1.583.038.6-.249.777-.791.738-.305-.022-.615,0-.923,0Z" transform="translate(-1314.265 -218.062)" fill="#1d8aca"/>
        <path id="Trazado_820" data-name="Trazado 820" d="M1395.449,239.016q21.639,0,43.28,0c1.762,0,1.585-.188,1.568,1.522-.009.776.346,1.75-.2,2.276-.483.472-1.427.155-2.166.155q-42.752.011-85.5,0c-1.879,0-1.616.262-1.623-1.573,0-.741-.315-1.684.145-2.172.519-.553,1.5-.2,2.273-.2Q1374.336,239.007,1395.449,239.016Z" transform="translate(-1314.282 -215.239)" fill="#1d8aca"/>
        <path id="Trazado_821" data-name="Trazado 821" d="M1408.368,302.015s32.293,2.831,32.093,6.119c-.216,3.55-24.93,14.844-24.93,14.844s12.431,29.518,10.7,34.071c-1.7,4.474-10.985-1.845-13.83-4.294-2.984-2.568-15.477-12.582-15.477-12.582s-13.018,9.569-16.92,12.754c-4.975,4.06-14.462,9.423-12.207-.754,1.752-7.9,8.448-29.308,8.448-29.308s-24.494-11.3-22.774-15.657c1.439-3.641,31.088-5.182,31.088-5.182s7.959-30.549,11.412-30.777C1399.377,271.023,1408.368,302.015,1408.368,302.015Z" transform="translate(-1313.675 -207.926)" fill="#ffe500" stroke="#eabd1b" stroke-miterlimit="10" stroke-width="6"/>
      </g>
      <path id="Trazado_822" data-name="Trazado 822" d="M1404.461,306.539" transform="translate(18.878 19.664)" fill="#ffe500" stroke="#f39020" stroke-miterlimit="10" stroke-width="3"/>
      <path id="Trazado_823" data-name="Trazado 823" d="M1472.826,349.5a.315.315,0,0,1-.007.034,1.049,1.049,0,0,1-.088.354c-.67,1.708-1.251,3.451-1.955,5.139a74.051,74.051,0,0,1-6.853,12.694,75.117,75.117,0,0,1-31.654,26.885,72.933,72.933,0,0,1-21.207,6.088,74.432,74.432,0,0,1-11.964.7,75.962,75.962,0,0,1-49.747-20.149c-.616-.559-1.339-.976-1.913-1.6a118.124,118.124,0,0,1-8.192-9.8,67.669,67.669,0,0,1-7.284-12.093,75.934,75.934,0,0,1-4.127-11.055,38.228,38.228,0,0,1-1.154-4.359c-.369-2.336-.874-4.652-1.121-7.01a69.7,69.7,0,0,1-.595-9.306,83.626,83.626,0,0,1,1.729-16.91,86.536,86.536,0,0,1,3.642-12.291c.218-.614.587-1.154.813-1.783a1.184,1.184,0,0,0-.369-1.482,7.036,7.036,0,0,1-2.364-3.826c-.581-2.966-.26-5.623,2.037-7.934a7.824,7.824,0,0,1,5.848-2.384,7.975,7.975,0,0,1,7.919,6.23,7.675,7.675,0,0,1-2.125,7.475,7.226,7.226,0,0,1-5.971,2.467,1.231,1.231,0,0,0-1.4.853,71.594,71.594,0,0,0-4.051,12.025,74.026,74.026,0,0,0-1.777,11.827c-.157,2.33-.245,4.653-.178,6.983a73.484,73.484,0,0,0,2.678,17.9,69.9,69.9,0,0,0,5.474,13.747,71.618,71.618,0,0,0,8.273,12.441,76.682,76.682,0,0,0,5.623,6.1,71.849,71.849,0,0,0,12.886,9.914,70.814,70.814,0,0,0,14.888,6.785,73.22,73.22,0,0,0,15.283,3.129,68.668,68.668,0,0,0,12.77.136,72.178,72.178,0,0,0,28.615-8.6,68.866,68.866,0,0,0,9.77-6.4,65.261,65.261,0,0,0,7.161-6.354,70.784,70.784,0,0,0,10.494-13.535c1.1-1.886,2.221-3.758,3.15-5.732a55.136,55.136,0,0,0,2.9-7.1,5.614,5.614,0,0,1,.225-.614l.062-.123a3.194,3.194,0,0,1,.1-.356c.5-1.469,1.728-2.378,2.733-2.037C1472.736,346.888,1473.153,348.152,1472.826,349.5Z" transform="translate(0.893 13.528)" fill="#ffe500"/>
    </g>
  </g>
</svg>
