<svg xmlns="http://www.w3.org/2000/svg" width="211" height="211" viewBox="0 0 211 211">
  <g id="Grupo_1066" data-name="Grupo 1066" transform="translate(-985 -3005)">
    <g id="Rectángulo_341" data-name="Rectángulo 341" transform="translate(985 3005)" fill="#fff" stroke="rgba(112,112,112,0)" stroke-width="1">
      <rect width="211" height="211" stroke="none"/>
      <rect x="0.5" y="0.5" width="210" height="210" fill="none"/>
    </g>
    <g id="Grupo_765" data-name="Grupo 765" transform="translate(-417.614 2592.163)">
      <path id="Trazado_782" data-name="Trazado 782" d="M1506.072,462h46.777c1.68,0,1.709,0,1.776,1.743.2,5.175.367,10.352.556,15.528q.548,15.139,1.1,30.279c.242,6.78.455,13.562.706,20.343a2.727,2.727,0,0,1-1.163,2.562c-12.284,10.033-24.485,20.168-36.71,30.276q-5.569,4.6-11.147,9.2c-1.412,1.16-1.041,1.219-2.53.041q-14.323-11.322-28.629-22.664l-19.37-15.337a2.093,2.093,0,0,0-.488-.379c-1.912-.713-2.08-2.178-2.007-3.986.5-12.264.9-24.533,1.348-36.8q.535-14.674,1.1-29.345c.01-.259.047-.519.035-.776-.026-.566.282-.706.777-.682.413.02.828,0,1.243,0Zm38.876,65.027a7.894,7.894,0,0,0,.694,2.609c-.1-.911-.188-1.765-.279-2.618a102.792,102.792,0,0,0-2.047-13.965,24.748,24.748,0,0,0-2.458-7.166c-1.628-2.806-3.546-2.794-5.209.014a21,21,0,0,0-1.965,4.885,96.691,96.691,0,0,0-2.8,14.148c-.234,1.706-.422,3.419-.632,5.129a6.983,6.983,0,0,0,1.225-1.821,33.088,33.088,0,0,1,3.9-6.154c3.334-3.952,6.159-3.57,8.23,1.137C1544.148,524.452,1544.507,525.757,1544.948,527.027Zm-62.391-.01a102.946,102.946,0,0,0-2.047-13.965,24.769,24.769,0,0,0-2.457-7.166c-1.628-2.806-3.546-2.793-5.21.014a21.039,21.039,0,0,0-1.964,4.885,96.55,96.55,0,0,0-2.8,14.148c-.233,1.706-.422,3.419-.63,5.129a7.012,7.012,0,0,0,1.225-1.821,33.044,33.044,0,0,1,3.9-6.154c3.334-3.952,6.159-3.57,8.229,1.137.54,1.227.9,2.532,1.34,3.8a7.907,7.907,0,0,0,.694,2.61Zm10.37,2.777c.458-.16.478-.628.66-.971,1.066-2.01,2.073-4.053,3.177-6.041a44.1,44.1,0,0,1,5.148-7.558,13.929,13.929,0,0,1,4.266-3.554,5.049,5.049,0,0,1,6.028.827,13.206,13.206,0,0,1,2.856,4.028,38.43,38.43,0,0,1,2.765,7.888c.259,1.029.5,2.063.754,3.094a7.966,7.966,0,0,0,.055-2.947q-.374-3.626-.791-7.249a151.864,151.864,0,0,0-3.451-19.851,43.479,43.479,0,0,0-2.813-8.2,11.25,11.25,0,0,0-2.748-3.909,3.384,3.384,0,0,0-4.776.023,8.9,8.9,0,0,0-1.687,2.019,23.013,23.013,0,0,0-1.952,3.874,73.917,73.917,0,0,0-3.4,11.435c-1.489,6.561-2.544,13.2-3.38,19.871a42.466,42.466,0,0,0-.688,7.248l-.107.224Zm13.167-58.15a4.272,4.272,0,0,0-4.485,4.16,4.375,4.375,0,0,0,4.16,4.529,4.464,4.464,0,0,0,4.531-4.2A4.378,4.378,0,0,0,1506.094,471.645Zm31.821,24.676a2.559,2.559,0,0,0,0,5.117,2.559,2.559,0,1,0,0-5.117Zm-62.7,0a2.556,2.556,0,1,0,2.485,2.656A2.595,2.595,0,0,0,1475.213,496.322Z" transform="translate(2.744 2.474)" fill="#00e1c0"/>
      <path id="Trazado_783" data-name="Trazado 783" d="M1454.159,559.148q25.706,19.956,51.417,39.907c1.661,1.288,1.107,1.281,2.75-.084q19.895-16.532,39.77-33.09c2-1.668,3.918-3.433,5.895-5.131,1.078-.925,2.2-1.8,3.293-2.707a.715.715,0,0,1,.695-.206c.341.1.276.395.284.631.142,4.348.269,8.7.425,13.044a1.341,1.341,0,0,1-.548,1.186q-2.483,2.033-4.955,4.078c-1.342,1.108-2.677,2.224-4.022,3.327-2.241,1.841-4.5,3.663-6.729,5.514-3.274,2.714-6.525,5.457-9.8,8.169-2.363,1.957-4.756,3.876-7.125,5.825-2.9,2.383-5.775,4.783-8.669,7.166q-3.612,2.974-7.242,5.926c-1,.814-2,1.615-3.03,2.442q-7.5-6.029-15-12.057c-5.942-4.748-11.91-9.462-17.851-14.211q-7.409-5.925-14.781-11.895c-1.6-1.289-3.155-2.644-4.823-3.839a1.672,1.672,0,0,1-.807-1.646c.2-4.137.369-8.277.55-12.415Z" transform="translate(2.658 7.499)" fill="#95f1e3"/>
      <path id="Trazado_784" data-name="Trazado 784" d="M1557.406,539.315c.3,2.436.179,4.663.3,6.877.044.78-.583,1.118-1.014,1.456-2.418,1.894-4.754,3.884-7.106,5.86-5.147,4.322-10.386,8.534-15.574,12.808Q1521,577.038,1508,587.778c-1.378,1.136-.995,1.241-2.529.026q-23.951-18.95-47.891-37.917a18.027,18.027,0,0,0-2.612-1.852c-.421-.225-.789-.507-.764-1.063.1-2.047.192-4.093.293-6.261a4.692,4.692,0,0,1,1.512.988q24.746,19.2,49.483,38.4c1.408,1.094,1.407,1.1,2.76-.028q19.9-16.552,39.786-33.111c2-1.668,3.9-3.464,5.906-5.12A13.388,13.388,0,0,1,1557.406,539.315Z" transform="translate(2.706 6.529)" fill="#66ebd8"/>
      <path id="Trazado_785" data-name="Trazado 785" d="M1448.135,543.1c-8.633.58-17.275.914-25.925.651a87.774,87.774,0,0,1-9.9-.783,21.827,21.827,0,0,1-5.612-1.086c-.689-.295-1.391-.561-2.067-.884a3.218,3.218,0,0,1-1.347-4.972,13.908,13.908,0,0,1,2.811-3.07c1.92-1.574,3.846-3.134,5.914-4.53,2.213-1.492,4.487-2.874,6.78-4.233,3.468-2.052,7.085-3.815,10.721-5.529,6.627-3.125,13.409-5.883,20.313-8.339.765-.273,1.523-.568,2.293-.821.9-.294,1.008-.23.962.679-.082,1.6-.215,3.2-.341,4.8s-.3,3.194-.393,4.795a1.622,1.622,0,0,1-1.4,1.674c-3.151.905-6.27,1.926-9.394,2.923q-8.114,2.591-15.992,5.833a44.511,44.511,0,0,0-8.951,4.63,9.525,9.525,0,0,0-1.383,1.238c-1.246,1.317-1.021,2.472.622,3.3a12.156,12.156,0,0,0,3.538,1c3.219.535,6.483.658,9.732.9,6.348.469,12.7.906,19.048,1.357C1448.154,542.794,1448.144,542.948,1448.135,543.1Zm3.515-31.832a3.383,3.383,0,0,0-1.634.389c-6.5,2.381-12.929,4.954-19.189,7.907-8,3.774-15.852,7.844-22.71,13.544a32.994,32.994,0,0,0-3.528,3.494c-1.034,1.165-.793,2.29.534,3.1a7.629,7.629,0,0,0,1.7.75,48.75,48.75,0,0,0,11.566,1.806,19.871,19.871,0,0,1,2.629.125,24.438,24.438,0,0,0,5.575.045,52.443,52.443,0,0,1-7.205-.786,12.987,12.987,0,0,1-4.812-1.6,2.581,2.581,0,0,1-1.32-2.441,3.2,3.2,0,0,1,.976-2.359,22.518,22.518,0,0,1,6.707-4.4,133.179,133.179,0,0,1,13.363-5.372c5.077-1.757,10.175-3.452,15.322-5,.91-.274,1.561-.63,1.6-1.756C1451.308,516.265,1451.5,513.81,1451.65,511.271Z" transform="translate(0 4.957)" fill="#e5c01f"/>
      <path id="Trazado_786" data-name="Trazado 786" d="M1559.3,505.6c8.691-.45,17.385-.941,26.091-.656,5.159.169,10.32.419,15.343,1.808a10.773,10.773,0,0,1,3.5,1.571,2.658,2.658,0,0,1,.815,3.9,17.494,17.494,0,0,1-3.655,3.99,81.22,81.22,0,0,1-10.309,7.486,163.321,163.321,0,0,1-14.639,7.8c-5.895,2.88-11.964,5.35-18.064,7.748-.987.389-1.228.255-1.332-.743q-.508-4.865-.972-9.733c-.134-1.438-.032-1.4,1.4-1.8,2.8-.783,5.584-1.64,8.351-2.539,5.405-1.755,10.782-3.594,16.035-5.774a52.391,52.391,0,0,0,9.268-4.7,9.8,9.8,0,0,0,1.938-1.747c.886-1.022.73-1.755-.471-2.417a14.588,14.588,0,0,0-5.98-1.764c-4.593-.353-9.19-.667-13.785-1q-6.274-.453-12.547-.905c-.361-.025-.725-.007-1.087-.008Q1559.247,505.855,1559.3,505.6Zm22.33.679a55.589,55.589,0,0,1,7.079.784,11.088,11.088,0,0,1,5.211,1.8,2.5,2.5,0,0,1,1.023,1.811c.24,1.83-.877,2.878-2.15,3.84a43.135,43.135,0,0,1-10,5.241q-7.9,3.2-16.038,5.761c-2.707.854-5.43,1.662-8.135,2.52-1.4.443-1.376.469-1.128,1.842.083.455.076.924.125,1.385.229,2.136.464,4.271.716,6.573,1.909-.758,3.674-1.451,5.435-2.155,3.7-1.478,7.308-3.144,10.931-4.793,4.667-2.126,9.176-4.531,13.606-7.1a81.3,81.3,0,0,0,11.7-8.1,32.5,32.5,0,0,0,3.639-3.6c1.008-1.167.755-2.289-.589-3.089a8.135,8.135,0,0,0-1.557-.688,45.887,45.887,0,0,0-11.093-1.839,20.384,20.384,0,0,1-2.479-.074A29.061,29.061,0,0,0,1581.631,506.277Z" transform="translate(8.047 4.722)" fill="#e5c01f"/>
      <path id="Trazado_787" data-name="Trazado 787" d="M1504.664,455.231c-.29,0-.6-.228-.818-.83-.736-2.025-1.271-4.108-1.88-6.169-.724-2.445-1.48-4.88-2.161-7.337a2.012,2.012,0,0,0-1.643-1.65c-3.846-1.09-7.628-2.4-11.435-3.634-.957-.309-1.22-.656-1.225-1.474-.006-.884.619-1.12,1.286-1.261,3.526-.744,7.056-1.465,10.583-2.191.152-.031.309-.033.463-.051a2.669,2.669,0,0,0,2.619-2.636c.432-2.7,1.317-5.331,1.986-8,.28-1.111.53-2.233.725-3.363.056-.321.244-.558.308-.84a1.1,1.1,0,0,1,1.171-.961,1.283,1.283,0,0,1,1.32,1.072c.386,1.434.818,2.855,1.189,4.293q1.133,4.382,2.219,8.779a2.094,2.094,0,0,0,1.769,1.668c3.443.8,6.87,1.652,10.3,2.487a5.367,5.367,0,0,1,.595.157c.554.205,1.037.465,1.022,1.184a1.315,1.315,0,0,1-1.047,1.35c-1.478.428-2.957.843-4.435,1.269-2.166.625-4.322,1.287-6.5,1.867a1.8,1.8,0,0,0-1.427,1.559c-1,4.338-2.07,8.663-3.123,12.99C1506.186,454.934,1505.869,455.266,1504.664,455.231Zm16.517-20.531.052-.263c-.443-.125-.882-.264-1.328-.375-3.3-.816-6.6-1.661-9.917-2.413a1.823,1.823,0,0,1-1.614-1.559c-.967-4.01-2.031-8-3.067-11.991-.105-.4-.275-.787-.433-1.233a1.83,1.83,0,0,0-.458.942c-1.01,4.157-2.049,8.309-3.028,12.475a1.225,1.225,0,0,1-1.061,1.079c-1.8.463-3.629.765-5.441,1.155q-3.777.811-7.557,1.613c3.993,1.449,7.967,2.74,11.979,3.9a2.075,2.075,0,0,1,1.646,1.577q1.244,4.395,2.539,8.774a36.718,36.718,0,0,0,1.57,4.975c.262-.083.236-.241.267-.373,1.131-4.607,2.28-9.209,3.376-13.824a1.317,1.317,0,0,1,1.047-1.151c1.346-.356,2.673-.786,4.011-1.174Q1517.471,435.761,1521.181,434.7Z" transform="translate(4.347 0)" fill="#e5c01f"/>
      <path id="Trazado_788" data-name="Trazado 788" d="M1539.18,460c-.559.093-.8-.3-1.044-.717a12.21,12.21,0,0,1-1.024-3.133c-.414-1.5-.927-2.967-1.255-4.488a2.062,2.062,0,0,0-1.725-1.573c-2.018-.573-4.018-1.21-6.02-1.837a1.41,1.41,0,0,1-1.133-1.392,1.528,1.528,0,0,1,1.3-1.319c2.074-.39,4.13-.889,6.209-1.248a1.919,1.919,0,0,0,1.651-1.7c.452-2.207,1.069-4.371,1.6-6.557a1.312,1.312,0,0,1,1.322-1.2c.814-.038,1.2.488,1.383,1.2.526,2.032,1.152,4.046,1.535,6.105a2.571,2.571,0,0,0,2.528,2.469c1.558.187,3.063.786,4.607,1.123.778.169,1.467.467,1.488,1.282s-.663,1.235-1.39,1.451c-1.769.528-3.532,1.084-5.324,1.521a1.914,1.914,0,0,0-1.6,1.749c-.439,2.211-1.016,4.4-1.553,6.587C1540.459,459.475,1539.987,459.966,1539.18,460Zm9.526-12.883c-.17-.148-.267-.3-.394-.332-1.849-.454-3.69-.95-5.558-1.307a1.728,1.728,0,0,1-1.572-1.426c-.241-1.054-.464-2.114-.764-3.152a37.285,37.285,0,0,0-1.291-4.543c-.56,2.239-1.115,4.138-1.469,6.094-.456,2.51-.479,2.506-2.98,3.115-.3.073-.6.128-.9.2a47.537,47.537,0,0,0-5.047,1.155c2.464.79,4.648,1.563,6.877,2.167a1.619,1.619,0,0,1,1.306,1.294c.447,1.586.911,3.169,1.412,4.739a13.062,13.062,0,0,0,1.1,3.2c.621-2.508,1.293-4.837,1.748-7.207a2.593,2.593,0,0,1,2.355-2.4,4.59,4.59,0,0,0,.747-.19A37.7,37.7,0,0,0,1548.706,447.118Z" transform="translate(6.523 1.049)" fill="#e5c01f"/>
      <path id="Trazado_789" data-name="Trazado 789" d="M1456.266,446.589c.018-.565.323-.844,1.417-1.07,2.012-.415,4.028-.819,6.038-1.244,1.309-.278,1.254-.341,1.54-1.673.482-2.244,1.049-4.472,1.65-6.687.154-.566.46-1.144,1.281-1.1a1.362,1.362,0,0,1,1.339,1.076q.816,2.878,1.551,5.778c.648,2.584.623,2.634,3.153,3.116,1.366.26,2.69.668,4.047.942.781.158,1.446.386,1.492,1.271.049.908-.714,1.217-1.389,1.44-1.412.466-2.854.845-4.286,1.256-.2.057-.4.084-.607.121a2.422,2.422,0,0,0-2.133,2.341c-.357,2.222-1,4.4-1.55,6.587a1.493,1.493,0,0,1-1.536,1.245c-.762-.008-.987-.466-1.168-1.155-.572-2.171-1.242-4.315-1.872-6.47a6.137,6.137,0,0,0-.346-1.149,1.646,1.646,0,0,0-1.054-.93c-2.2-.685-4.43-1.26-6.575-2.116A1.392,1.392,0,0,1,1456.266,446.589Zm12.088,11.57.255.04c.631-2.546,1.295-5.084,1.872-7.642a2.032,2.032,0,0,1,1.7-1.7c1.94-.492,3.85-1.1,5.773-1.664a32.013,32.013,0,0,0-5.688-1.657,2.347,2.347,0,0,1-2.085-2.1c-.386-1.761-.839-3.508-1.281-5.256a2.2,2.2,0,0,0-.671-1.372,58.361,58.361,0,0,0-1.65,6.7,2.215,2.215,0,0,1-2.133,1.981c-2.144.353-4.264.847-6.393,1.282a28.809,28.809,0,0,0,5.719,2,3.139,3.139,0,0,1,2.688,2.71C1467.018,453.719,1467.716,455.932,1468.354,458.158Z" transform="translate(2.814 1.048)" fill="#e5c01f"/>
      <path id="Trazado_790" data-name="Trazado 790" d="M1445.866,541.448c.01-.155.019-.31.031-.464a7.828,7.828,0,0,1,2.014.023c-.012.136-.024.273-.037.409A11.233,11.233,0,0,1,1445.866,541.448Z" transform="translate(2.269 6.613)" fill="#f8ed6b"/>
      <path id="Trazado_791" data-name="Trazado 791" d="M1447.774,541.413c.013-.137.025-.274.037-.409.229-.01.579-.119.549.247S1448,541.461,1447.774,541.413Z" transform="translate(2.369 6.616)" fill="#e9e4c8"/>
      <path id="Trazado_792" data-name="Trazado 792" d="M1454.131,559.088l-.306-.065C1453.952,558.923,1454.058,558.932,1454.131,559.088Z" transform="translate(2.686 7.559)" fill="#e9e4c8"/>
      <path id="Trazado_793" data-name="Trazado 793" d="M1491.055,528.7a42.54,42.54,0,0,1,.69-7.247c.837-6.671,1.891-13.31,3.38-19.871a73.877,73.877,0,0,1,3.4-11.435,23.005,23.005,0,0,1,1.952-3.874,8.89,8.89,0,0,1,1.687-2.019,3.384,3.384,0,0,1,4.776-.023,11.255,11.255,0,0,1,2.748,3.909,43.486,43.486,0,0,1,2.813,8.2,151.859,151.859,0,0,1,3.451,19.851q.423,3.621.792,7.249a7.969,7.969,0,0,1-.055,2.947c-.25-1.031-.495-2.065-.753-3.094a38.428,38.428,0,0,0-2.765-7.888,13.205,13.205,0,0,0-2.857-4.028,5.049,5.049,0,0,0-6.028-.827,13.931,13.931,0,0,0-4.266,3.554,44.088,44.088,0,0,0-5.147,7.558c-1.1,1.988-2.111,4.031-3.177,6.041-.182.343-.2.812-.66.972Z" transform="translate(4.638 3.589)" fill="#fff"/>
      <path id="Trazado_794" data-name="Trazado 794" d="M1481.518,524.944c-.441-1.27-.8-2.575-1.34-3.8-2.07-4.707-4.895-5.089-8.229-1.137a33.056,33.056,0,0,0-3.9,6.154,7.014,7.014,0,0,1-1.225,1.821c.208-1.709.4-3.422.63-5.129a96.562,96.562,0,0,1,2.8-14.148,21.062,21.062,0,0,1,1.964-4.885c1.664-2.807,3.582-2.82,5.21-.014a24.778,24.778,0,0,1,2.458,7.166,102.922,102.922,0,0,1,2.047,13.965Z" transform="translate(3.368 4.556)" fill="#fff"/>
      <path id="Trazado_795" data-name="Trazado 795" d="M1541.885,527.551a14.677,14.677,0,0,1-.795-2.594,39.575,39.575,0,0,0-1.233-3.818c-2.076-4.707-4.9-5.084-8.231-1.135a33.131,33.131,0,0,0-3.9,6.156,6.819,6.819,0,0,1-1.223,1.818c.209-1.705.395-3.419.627-5.124a97.437,97.437,0,0,1,2.8-14.153,21.391,21.391,0,0,1,1.963-4.883c1.666-2.808,3.58-2.816,5.214-.016a24.829,24.829,0,0,1,2.454,7.168,103.436,103.436,0,0,1,2.051,13.968C1541.7,525.789,1541.788,526.642,1541.885,527.551Z" transform="translate(6.498 4.556)" fill="#fff"/>
      <path id="Trazado_796" data-name="Trazado 796" d="M1503.768,471.164a4.378,4.378,0,0,1,4.206,4.487,4.464,4.464,0,0,1-4.531,4.2,4.375,4.375,0,0,1-4.16-4.529A4.272,4.272,0,0,1,1503.768,471.164Z" transform="translate(5.07 2.954)" fill="#fff"/>
      <path id="Trazado_797" data-name="Trazado 797" d="M1533.9,494.61a2.559,2.559,0,1,1-2.5,2.635A2.6,2.6,0,0,1,1533.9,494.61Z" transform="translate(6.754 4.184)" fill="#fff"/>
      <path id="Trazado_798" data-name="Trazado 798" d="M1474.332,494.611a2.556,2.556,0,1,1-2.612,2.53A2.6,2.6,0,0,1,1474.332,494.611Z" transform="translate(3.624 4.184)" fill="#fff"/>
      <path id="Trazado_799" data-name="Trazado 799" d="M1480.786,523.786l.415-.009.279,2.62A7.907,7.907,0,0,1,1480.786,523.786Z" transform="translate(4.1 5.714)" fill="#e9e4c8"/>
      <path id="Trazado_800" data-name="Trazado 800" d="M1491.037,526.416l-.084.249.108-.225Z" transform="translate(4.633 5.852)" fill="#fff"/>
      <path id="Trazado_801" data-name="Trazado 801" d="M1451.583,511.176c-.151,2.54-.342,4.994-.426,7.452-.039,1.125-.689,1.482-1.6,1.755-5.146,1.545-10.245,3.24-15.322,5a133.15,133.15,0,0,0-13.363,5.372,22.51,22.51,0,0,0-6.707,4.4,3.2,3.2,0,0,0-.977,2.359,2.582,2.582,0,0,0,1.32,2.441,12.984,12.984,0,0,0,4.812,1.6,52.421,52.421,0,0,0,7.2.786,24.445,24.445,0,0,1-5.575-.045,19.839,19.839,0,0,0-2.629-.125,48.754,48.754,0,0,1-11.566-1.806,7.634,7.634,0,0,1-1.7-.75c-1.327-.809-1.568-1.934-.534-3.1a33,33,0,0,1,3.528-3.494c6.858-5.7,14.706-9.77,22.71-13.544,6.26-2.953,12.688-5.526,19.189-7.907A3.38,3.38,0,0,1,1451.583,511.176Z" transform="translate(0.066 5.052)" fill="#ffe500"/>
      <path id="Trazado_802" data-name="Trazado 802" d="M1581.565,506.212a29.061,29.061,0,0,1,6.3.115,20.39,20.39,0,0,0,2.479.074,45.882,45.882,0,0,1,11.093,1.839,8.123,8.123,0,0,1,1.556.688c1.344.8,1.6,1.922.589,3.089a32.479,32.479,0,0,1-3.639,3.6,81.291,81.291,0,0,1-11.7,8.1c-4.43,2.57-8.939,4.975-13.606,7.1-3.622,1.649-7.234,3.315-10.931,4.793-1.761.7-3.526,1.4-5.435,2.155-.251-2.3-.486-4.437-.716-6.573-.049-.461-.042-.93-.125-1.385-.248-1.372-.269-1.4,1.128-1.842,2.706-.858,5.429-1.666,8.136-2.52q8.132-2.567,16.038-5.761a43.136,43.136,0,0,0,10-5.241c1.273-.962,2.39-2.01,2.15-3.84a2.5,2.5,0,0,0-1.023-1.811,11.088,11.088,0,0,0-5.211-1.8A55.6,55.6,0,0,0,1581.565,506.212Z" transform="translate(8.113 4.786)" fill="#ffe500"/>
      <path id="Trazado_803" data-name="Trazado 803" d="M1521.09,434.6q-3.708,1.067-7.417,2.136c-1.338.387-2.665.818-4.011,1.174a1.318,1.318,0,0,0-1.047,1.151c-1.1,4.615-2.245,9.217-3.376,13.824-.032.132-.005.289-.268.373a36.753,36.753,0,0,1-1.57-4.975q-1.3-4.379-2.539-8.774a2.075,2.075,0,0,0-1.646-1.577c-4.012-1.163-7.986-2.453-11.979-3.9q3.779-.807,7.558-1.613c1.813-.389,3.642-.691,5.441-1.155a1.225,1.225,0,0,0,1.061-1.079c.979-4.166,2.017-8.318,3.028-12.475a1.832,1.832,0,0,1,.458-.942c.158.446.328.831.433,1.233,1.036,3.993,2.1,7.981,3.067,11.991a1.824,1.824,0,0,0,1.615,1.559c3.317.753,6.614,1.6,9.917,2.413.447.111.885.249,1.328.375Z" transform="translate(4.438 0.101)" fill="#ffe500"/>
      <path id="Trazado_804" data-name="Trazado 804" d="M1548.619,447.042a37.723,37.723,0,0,1-4.437,1.408,4.6,4.6,0,0,1-.747.19,2.593,2.593,0,0,0-2.355,2.4c-.455,2.37-1.127,4.7-1.748,7.207a13.067,13.067,0,0,1-1.1-3.2c-.5-1.57-.965-3.153-1.412-4.739a1.619,1.619,0,0,0-1.306-1.293c-2.229-.6-4.413-1.377-6.877-2.167a47.511,47.511,0,0,1,5.048-1.154c.3-.072.6-.127.9-.2,2.5-.609,2.525-.605,2.98-3.115.355-1.955.909-3.855,1.469-6.094a37.312,37.312,0,0,1,1.291,4.543c.3,1.038.523,2.1.764,3.152a1.727,1.727,0,0,0,1.572,1.426c1.868.357,3.709.854,5.558,1.307C1548.352,446.742,1548.448,446.894,1548.619,447.042Z" transform="translate(6.61 1.125)" fill="#ffe500"/>
      <path id="Trazado_805" data-name="Trazado 805" d="M1468.266,458.06c-.639-2.227-1.337-4.439-1.9-6.685a3.139,3.139,0,0,0-2.688-2.71,28.816,28.816,0,0,1-5.719-2c2.129-.435,4.25-.929,6.394-1.282a2.215,2.215,0,0,0,2.133-1.981,58.385,58.385,0,0,1,1.65-6.7,2.2,2.2,0,0,1,.671,1.372c.442,1.748.895,3.5,1.281,5.256a2.347,2.347,0,0,0,2.085,2.1,32.01,32.01,0,0,1,5.687,1.657c-1.923.562-3.833,1.172-5.773,1.664a2.032,2.032,0,0,0-1.7,1.7c-.578,2.557-1.242,5.1-1.872,7.642Z" transform="translate(2.903 1.147)" fill="#ffe500"/>
    </g>
  </g>
</svg>
