<?xml version="1.0" encoding="UTF-8"?>
<svg id="Capa_2" data-name="Capa 2" xmlns="http://www.w3.org/2000/svg" viewBox="0 0 128.72 123.73">
  <defs>
    <style>
      .cls-1 {
        fill: #008f7b;
      }

      .cls-2 {
        fill: #fff;
      }

      .cls-3 {
        fill: #d38d8c;
      }
    </style>
  </defs>
  <g id="Capa_1-2" data-name="Capa 1">
    <g>
      <g>
        <g>
          <path class="cls-2" d="m126.96,47.12c-.88,3.26-2.3,6.33-3.78,9.35-.2.05-.62,1.27-.72,1.49-.28.59-.56,1.17-.85,1.76-.55,1.13-1.1,2.26-1.65,3.39-1.1,2.26-2.19,4.52-3.29,6.78-4.33,8.94-8.67,17.87-13,26.79-1.38,2.85-2.76,5.7-4.15,8.56-1.8,3.7-3.59,7.4-5.39,11.1-.3.61-.58,1.22-.89,1.82-.03.06-.43.14-.43.14l-16.47,4.66-36.01-23.74-9.52-6.27c-3.33-2.19-6.66-4.39-9.99-6.59-3.87-2.55-8.08-4.75-11.38-8.06-3.71-3.7-5.86-8.93-7.23-13.9C-3.55,43.44,7.6,22.1,27.1,16.74c2.9-.8,5.81-1.2,8.7-1.23,2.5-1.45,5.22-2.6,8.11-3.39,3.53-.97,7.09-1.35,10.6-1.19,2.93-1.92,6.19-3.42,9.72-4.39,2.9-.8,5.82-1.2,8.7-1.23,2.5-1.45,5.21-2.6,8.1-3.39,19.51-5.36,39.99,7.3,45.75,28.27,1.53,5.56,1.67,11.34.17,16.92Z"/>
          <path class="cls-2" d="m76.22,123.73l-55.79-36.78c-.97-.64-1.99-1.27-2.97-1.88-2.95-1.84-6-3.74-8.52-6.26-3.25-3.24-5.67-7.89-7.41-14.21C-4.31,43.29,7.07,21.52,26.92,16.07c2.87-.79,5.79-1.21,8.69-1.25,2.54-1.46,5.28-2.59,8.12-3.37,3.47-.95,7.03-1.37,10.59-1.23,3-1.94,6.27-3.4,9.73-4.35,2.87-.79,5.79-1.21,8.7-1.25,2.54-1.45,5.26-2.59,8.11-3.37,19.85-5.45,40.76,7.45,46.61,28.76,1.62,5.89,1.67,11.71.17,17.29-.91,3.37-2.39,6.53-3.83,9.48l-.14.29-.09.02c-.11.21-.26.6-.33.78-.07.18-.13.33-.17.4-.28.58-.56,1.17-.85,1.76-.54,1.13-1.1,2.26-1.65,3.39l-3.29,6.78c-4.33,8.94-8.67,17.87-13,26.79-1.04,2.15-2.08,4.29-3.12,6.44l-6.67,13.76c-.21.43-.41.86-.63,1.28-.16.35-.53.45-.9.52l-16.75,4.74ZM52.97,11.59c-2.98,0-5.96.4-8.87,1.2-2.79.77-5.46,1.88-7.95,3.32l-.16.09h-.18c-2.84.03-5.71.43-8.52,1.2C8.19,22.66-2.76,43.66,2.88,64.23c1.67,6.08,3.98,10.52,7.05,13.59,2.41,2.41,5.39,4.27,8.27,6.06.99.62,2.01,1.25,3,1.9l55.25,36.43,16.22-4.58s.03,0,.06-.01c.17-.34.33-.69.5-1.03l6.68-13.76c1.04-2.15,2.08-4.29,3.12-6.44,4.34-8.93,8.67-17.86,13-26.8l3.29-6.78c.55-1.13,1.1-2.26,1.65-3.39.29-.59.57-1.17.85-1.76.03-.06.07-.17.12-.3.26-.66.44-1.09.67-1.33,1.39-2.85,2.8-5.89,3.66-9.09h0c1.44-5.34,1.39-10.91-.17-16.55C120.47,9.81,100.33-2.65,81.23,2.6c-2.79.77-5.46,1.89-7.94,3.32l-.16.09h-.18c-2.85.03-5.72.43-8.53,1.2-3.39.93-6.59,2.38-9.52,4.3l-.19.12h-.23c-.5-.03-1.01-.04-1.51-.04Z"/>
        </g>
        <g>
          <g>
            <path class="cls-1" d="m106.88,36.54c1.39,5.07,1.53,10.33.15,15.42-.8,2.97-2.1,5.76-3.44,8.52-.19.05-.56,1.16-.66,1.36-.26.54-.52,1.07-.78,1.61-.5,1.03-1,2.06-1.5,3.09-1,2.06-2,4.12-3,6.18-3.95,8.14-7.9,16.28-11.85,24.42-1.26,2.6-2.52,5.2-3.78,7.8-.26.54-.19.64-.45,1.18,2.46,1.41,9.67,6.52,9.67,6.52l-15.01,4.25-32.82-21.64-8.68-5.72c-3.03-2-6.07-4-9.1-6.01-3.53-2.33-7.36-4.33-10.37-7.34-3.38-3.37-5.34-8.14-6.59-12.67C3.41,44.41,13.56,24.96,31.35,20.07c6.21-1.7,12.52-1.41,18.34.52,4.02-4.63,9.29-8.11,15.5-9.81,17.78-4.88,36.45,6.65,41.7,25.76Z"/>
            <path d="m76.07,117.85l-50.94-33.59c-.88-.58-1.8-1.15-2.69-1.71-2.7-1.68-5.49-3.42-7.82-5.74-2.99-2.99-5.22-7.26-6.81-13.06-2.6-9.46-1.61-19.3,2.78-27.7,4.4-8.42,11.69-14.4,20.53-16.83,5.98-1.64,12.29-1.52,18.29.35,4.2-4.67,9.57-8,15.55-9.65,8.84-2.43,18.15-1.01,26.24,3.98,8.07,4.98,13.94,12.94,16.54,22.39,1.49,5.41,1.54,10.76.15,15.89-.82,3.05-2.13,5.85-3.5,8.68l-.17.36-.08.02c-.09.2-.21.49-.26.63-.06.16-.12.29-.15.35l-20.92,43.1c-.09.19-.13.29-.16.42,2.86,1.76,8.82,5.99,9.1,6.18l-.22,1.49-15.45,4.43ZM39.63,19.83c-2.71,0-5.41.36-8.05,1.08-8.36,2.3-15.27,7.96-19.44,15.95-4.18,8.01-5.12,17.39-2.64,26.42,1.51,5.5,3.59,9.52,6.36,12.28,2.18,2.18,4.89,3.87,7.5,5.5.9.56,1.83,1.14,2.73,1.73l50.27,33.14,12.85-3.64c-2.24-1.57-6.38-4.43-8.09-5.41l-.71-.41.36-.74c.1-.2.13-.31.17-.46.05-.17.12-.39.28-.72l20.92-43.1s.05-.13.09-.23c.24-.61.41-1.03.65-1.29,1.31-2.7,2.54-5.36,3.3-8.21,1.3-4.82,1.25-9.86-.15-14.96-2.48-9.03-8.08-16.62-15.77-21.37-7.67-4.74-16.49-6.08-24.85-3.78-5.83,1.6-11.04,4.9-15.07,9.54l-.38.44-.55-.18c-3.2-1.06-6.49-1.59-9.78-1.59Z"/>
          </g>
          <g>
            <path class="cls-1" d="m122.21,32.33c1.39,5.07,1.53,10.33.15,15.42-.8,2.97-2.1,5.76-3.44,8.52-.19.05-.56,1.16-.66,1.36-.26.54-.52,1.07-.78,1.61-.5,1.03-1,2.06-1.5,3.09-1,2.06-2,4.12-3,6.18-3.95,8.14-7.9,16.28-11.85,24.42-1.26,2.6-2.52,5.2-3.78,7.8-1.64,3.37-3.28,6.75-4.91,10.12-.3.61-.59,1.22-.89,1.83l-32.82-21.64-8.68-5.72c-3.03-2-6.07-4-9.1-6.01-3.53-2.33-7.36-4.33-10.37-7.34-3.38-3.37-5.34-8.14-6.59-12.67-5.25-19.11,4.91-38.56,22.69-43.45,6.21-1.7,12.52-1.41,18.34.52,4.02-4.63,9.29-8.11,15.5-9.81,17.78-4.88,36.45,6.65,41.7,25.76Z"/>
            <path d="m91.1,113.56l-50.64-33.5c-.88-.58-1.8-1.15-2.69-1.71-2.7-1.68-5.49-3.42-7.82-5.75-2.99-2.99-5.22-7.26-6.81-13.06-2.6-9.46-1.61-19.3,2.78-27.7,4.4-8.42,11.69-14.4,20.53-16.83,5.98-1.64,12.29-1.52,18.29.35,4.2-4.67,9.57-8,15.55-9.65,8.84-2.43,18.15-1.01,26.24,3.98,8.07,4.98,13.94,12.94,16.54,22.39,1.49,5.41,1.54,10.76.15,15.89-.82,3.05-2.13,5.85-3.5,8.68l-.17.36-.08.02c-.09.2-.21.49-.26.63-.06.16-.12.29-.15.35l-26.12,53.83c-.2.41-.39.82-.6,1.22l-1.23.48ZM54.95,15.63c-2.71,0-5.41.36-8.05,1.08-8.36,2.3-15.27,7.96-19.44,15.95-4.18,8.01-5.12,17.39-2.64,26.42,1.51,5.5,3.59,9.52,6.36,12.28,2.18,2.18,4.89,3.87,7.51,5.5.9.56,1.83,1.14,2.73,1.73l49.77,32.82c.05-.11.1-.21.15-.32l8.99-18.53,17.13-35.3s.05-.13.09-.23c.24-.61.41-1.03.65-1.29,1.31-2.7,2.54-5.36,3.3-8.21,1.3-4.82,1.25-9.86-.15-14.96-2.48-9.03-8.08-16.62-15.77-21.37-7.67-4.74-16.49-6.08-24.85-3.78-5.83,1.6-11.04,4.9-15.07,9.54l-.38.44-.55-.18c-3.2-1.06-6.49-1.59-9.78-1.59Z"/>
          </g>
        </g>
      </g>
      <g>
        <circle cx="55.49" cy="51.05" r="4.47"/>
        <circle cx="86.45" cy="39.47" r="4.47"/>
      </g>
      <path d="m78.42,67.07c-4.26,0-8.27-2.62-9.83-6.84-.54-1.45.21-3.06,1.66-3.6,1.45-.54,3.06.21,3.6,1.66.93,2.52,3.73,3.81,6.25,2.88,1.22-.45,2.19-1.35,2.73-2.53.54-1.18.6-2.5.15-3.72-.54-1.45.21-3.06,1.66-3.6s3.06.21,3.6,1.66c.97,2.62.86,5.46-.31,8-1.17,2.54-3.26,4.47-5.88,5.44-1.19.44-2.41.65-3.61.65Z"/>
      <g>
        <circle class="cls-3" cx="57.59" cy="67.02" r="3.84"/>
        <circle class="cls-3" cx="98.45" cy="51.86" r="3.84"/>
      </g>
    </g>
  </g>
</svg>