<?xml version="1.0" encoding="UTF-8"?>
<svg id="Capa_2" data-name="Capa 2" xmlns="http://www.w3.org/2000/svg" xmlns:xlink="http://www.w3.org/1999/xlink" viewBox="0 0 946 581.63">
  <defs>
    <style>
      .cls-1, .cls-2 {
        fill: #b32028;
      }

      .cls-3 {
        fill: #6a9d44;
      }

      .cls-4 {
        fill: #298046;
      }

      .cls-2 {
        font-family: Montserrat-Black, Montserrat;
        font-size: 112.06px;
        font-weight: 800;
      }

      .cls-5 {
        fill: #fff;
        filter: url(#drop-shadow-1);
      }

      .cls-6 {
        fill: #008f7b;
      }

      .cls-7 {
        letter-spacing: -.02em;
      }

      .cls-8 {
        fill: #f7ab16;
      }

      .cls-9 {
        fill: #038049;
      }

      .cls-10 {
        fill: url(#linear-gradient);
      }

      .cls-11 {
        fill: #f0f0f0;
        opacity: .78;
      }
    </style>
    <filter id="drop-shadow-1" filterUnits="userSpaceOnUse">
      <feOffset dx="0" dy="0"/>
      <feGaussianBlur result="blur" stdDeviation="9"/>
      <feFlood flood-color="#412b13" flood-opacity=".41"/>
      <feComposite in2="blur" operator="in"/>
      <feComposite in="SourceGraphic"/>
    </filter>
    <linearGradient id="linear-gradient" x1="119.86" y1="291.1" x2="125.7" y2="224.23" gradientUnits="userSpaceOnUse">
      <stop offset="0" stop-color="#038049"/>
      <stop offset=".8" stop-color="#6a9d44"/>
    </linearGradient>
  </defs>
  <g id="Capa_1-2" data-name="Capa 1">
    <g>
      <g>
        <path class="cls-5" d="M86.15,553.68c4.91-1.04,14.44-3.05,15.77-7.63,6.18,4.5,30.92,1.97,30.92,1.97h81.23l6.18-26.7,13.21,25.01,29.79,.56h3.37l9.56-26.42s0,21.36,3.37,23.05c3.37,1.69,49.19,0,49.19,0v-23.61s26.28-3.93,36.4-10.68l-.49,35.13s24.1,4.29,26.07-4.99l-1.41-32.46,6.46-.42,18.41,35.27c1.09,1.78,20.11,.16,40.47-.21,15.85-.29,31.92,.42,40.44,.89,6.41,.35,12.71-2.2,16.82-7.13,2.57-3.09,4.42-7.18,3.73-12.37,11.45,21.57,29.79,20.31,29.79,20.31,0,0,47.43-.63,52.49-5.06,3.16-2.77,9.29,.64,13.44,3.59,2.27,1.61,4.9,2.63,7.64,3,1.7,.23,3.32-.74,3.9-2.35l7.98-22.5,25.86,.56,7.28,19.8c1.03,2.8,3.68,4.68,6.67,4.72l26.52,.37,3.37-.17c3.65-.18,6.55-3.14,6.65-6.8l1.07-37.24c.08-2.96,3.98-3.96,5.49-1.42l25.72,43.49,38.37,2.13,4.45-16.53c1.03-3.81,4.41-6.52,8.35-6.69l14.13-.61c3.2-.14,6.12,1.82,7.22,4.83l5.82,16.05c1.16,3.2,4.11,5.39,7.51,5.58l49.36,2.74c15.19,.84,29.84-5.73,39.32-17.63l-4.43-40.92c-.29-2.72-37.86-7.69-33.84-26.9,4.02-19.2,34.9,13.22,35.89,10.57l6.13-20.51c2.09-6.98-2.56-14.18-9.79-15.14l-35.16-4.69c-8.73-1.16-17.33,2.84-22.06,10.27l-14.55,22.87c-1.73,2.72-5.84,2.26-6.92-.78l-5.77-16.14-5.17-9.81c-1.98-3.75-6.03-5.94-10.25-5.52l-19.64,1.93c-5.12,.5-9.52,3.86-11.34,8.68l-6.32,16.66c-.62,1.65-3.04,1.33-3.22-.43l-1.54-15.45c-.4-3.98-3.94-6.88-7.92-6.49l-29.04,2.85-30.78-7.59-6.82-21.08,8.42-15.55c13.88-25.63,3.89-57.98-22.37-70.63-.37-.18-.75-.35-1.12-.52-17.15-7.75-36.72,4.41-46.59,12.08-3.7,2.88-8.87,2.98-12.65,.22-8.56-6.24-25.81-15.76-50.97-15.35-7.35,.12-13.54-5.43-14.09-12.76l-1.71-22.91s5.73-10.4-1.29-17.26l-.33-4.36s22.91-12.69-1.01-41.56c-1.31-1.59-3.28-2.48-5.34-2.46l-17.07,.34s-15.48-.38-18.06,15.6l.08-12.17c.01-1.71-1.38-3.1-3.09-3.09l-7.79,.06c-2.18,.03-3.92,1.81-3.9,3.99l.12,15.23-13.15-17.27c-.81-1.06-2.07-1.68-3.4-1.66-2.47,.03-6.53,.09-9.05,.12-1.08,.01-2.97,6-2.97,6l-2.14-3.86c-.7-1.27-2.04-2.05-3.49-2.03-5.51,.07-19.4,.26-27.57,.36-1.53,.02-4.91,4.78-4.91,4.78,0,0-2.28-4.69-3.57-4.67-3.74,.05-7.51,.1-11.32,.14-1.35,.02-2.81,11.29-4.17,11.31-1.65,.02-3.3,.04-4.96,.06-1.09,.01-2.08-11.23-3.18-11.22-4.01,.05-8.05,.1-12.11,.15-2.64,.03-6.75,4.42-6.75,4.42,0,0-6.02-4.26-8.44-4.23-8.11,.1-16.26,.19-24.42,.29-4.27-.32-5.66,4.74-5.76,4.44-9.73-11.61-32.55-8.04-40.69-4-8.73-8.11-28.78-9.5-43.91,.18-12.65-11.16-39.75,1.34-39.75,1.34,0,0-24.71-15.18-52.7,6.85l-20.25-18.46-36.32-59.1-12.65,15.78c-24.56-3.92-35.68,9.25-37.37,14.14-7.59,18.27,2.79,34.01,2.79,34.01l-30.1,42.08c-4.79,6.7-3.16,16.03,3.61,20.71l41.5,28.67c6.05,4.18,8.66,11.81,6.44,18.82l-30.9,97.57c-1.29,4.07,.25,8.51,3.78,10.91l1.81,1.23c-12.69,9.1-32.07,64.14,20.2,66.16-5.05,9.6-31.31,7.32-32.24,7.35,.45,6.55-1.58,16.98-1.58,16.98l19.02,15.68c6.23,5.14,18.14,5.94,24.05,5.25Z"/>
        <g>
          <path class="cls-6" d="M107.48,455.1c-3.23-2.77-6.81-4.54-10.74-5.31-2.31-.54-4.66-.81-7.04-.81-7.93,0-14.16,2.31-18.7,6.93-3.46,3.54-5.19,7.47-5.19,11.77,0,3.16,.62,5.62,1.85,7.39,2.54,3.62,7.46,7.47,14.78,11.54,8.16,4.54,13.85,8.12,17.08,10.74,4.69,3.85,7.62,7.31,8.77,10.39,.77,2.08,1.15,4.31,1.15,6.7,0,2.93-.54,5.39-1.62,7.39-3.16,5.54-8.35,10.01-15.58,13.39-6.31,2.93-13.2,4.39-20.66,4.39-4,0-8.2-.42-12.58-1.27-4.85-.92-7.27-2.96-7.27-6.12v-10.85c5.54,10.01,12.43,15.01,20.66,15.01,3.39,0,6.43-.65,9.12-1.96,9.47-4.77,14.2-10.35,14.2-16.74,0-3.46-1.04-6.43-3.12-8.89-2.54-2.92-6.5-5.77-11.89-8.54-9-4.54-15.08-8.12-18.24-10.74-3.54-2.77-6.08-5.66-7.62-8.66-1.31-2.38-1.96-5.96-1.96-10.74,0-6.54,3.04-12.27,9.12-17.2,4.16-3.46,10.16-5.69,18.01-6.7,3.15-.46,7.12-.69,11.89-.69h5.31c4.69,.31,7.12,.5,7.27,.58,2.77,.39,4.92,1.23,6.46,2.54,1.31,1.62,1.88,6.04,1.73,13.28-.69-2.23-2.42-4.5-5.19-6.81Z"/>
          <path class="cls-6" d="M132.07,446.68v86.81c-.46,3.23-2.12,4.96-4.96,5.19h-8.43v-87.5c0-2.77,1.58-4.27,4.73-4.5h8.66Z"/>
          <path class="cls-6" d="M191.17,454.3c-1.92-.92-4.12-1.69-6.58-2.31-5.23-1-10.81-1.58-16.74-1.73,1.62,.08-2.08,.12-11.08,.12-3.62,.31-5.43,2.5-5.43,6.58v35.55h28.17c2.23,.08,3.54,.39,3.92,.92-.08,1.85-1,2.54-2.77,2.08h-25.05c-3,.31-4.5,2.5-4.5,6.58v33.02h15.24c9.85,0,17.97-1.23,24.36-3.69,5.62-2.54,8.58-5.81,8.89-9.81v12.35c0,1.77-.54,3.08-1.62,3.92-.92,.54-2.08,.81-3.46,.81h-56.45v-82.65c.46-6.23,3.89-9.35,10.27-9.35,22.01-.23,36.52-.23,43.52,0,5.16,.31,7.73,2.54,7.73,6.7v9.93c-1.08-3.77-3.89-6.77-8.43-9Z"/>
          <path class="cls-6" d="M299.1,446.56v92h-8.89c-1.77-.15-3-1.04-3.69-2.66-.31-.61-.5-1.38-.58-2.31v-70.99l-28.97,72.96c-.46,1.23-1.12,2.12-1.96,2.65-.31,.16-.65,.27-1.04,.35h-7.27c-1.23,.46-2.54-.88-3.92-4.04l-23.55-74.23-10.04,75.73c-.16,1.08-.81,1.81-1.96,2.19-.46,.23-1,.35-1.62,.35l3-92h10.39c2.38-.08,4.12,1,5.19,3.23l29.9,82.88,30.59-81.73c.69-1.85,1.69-3.12,3-3.81,.54-.31,1.11-.5,1.73-.58h9.7Z"/>
          <path class="cls-6" d="M366.17,473.69c0,5.08-1.51,10.04-4.52,14.89-2.24,3.46-4.68,6.16-7.31,8.08-3.09,2.31-6.38,3.96-9.86,4.96-5.88,1.62-14.58,2.42-26.1,2.42v31.63c-.61,1.15-1.74,2-3.4,2.54-.68,.16-1.48,.27-2.38,.35h-7.6v-88.08c0-2.46,1.58-3.81,4.73-4.04,11.39,0,19.12,.19,23.2,.58,16.78,1.31,27.2,7,31.28,17.08,1.31,3.16,1.96,6.35,1.96,9.58Zm-13.51,.35c0-5.85-1.69-10.74-5.08-14.66-3.62-4.31-8.12-7.16-13.51-8.54-2.62-.69-6.31-1.04-11.08-1.04-3.39,.31-4.93,2.12-4.62,5.43v45.48c2.08-.08,4.5-.19,7.27-.35,6.62-.38,11.93-1.92,15.93-4.62,7.39-5.08,11.08-12.31,11.08-21.7Z"/>
          <path class="cls-6" d="M433.01,476.23v.92c0,8.54-4.04,15.43-12.12,20.66-3.39,2.16-7.47,3.92-12.24,5.31l24.24,35.44-8.66-.12c-2.23,.46-4.69-1.19-7.39-4.96l-17.08-26.9c-.77-1.31-1.66-2.19-2.66-2.66-.46-.23-.89-.35-1.27-.35h-10.04v30.36c0,2.85-1.23,4.39-3.69,4.62h-10.16v-86.92c.23-2.15,1.15-3.65,2.77-4.5,.69-.31,1.5-.5,2.42-.58,10.62,0,16.78,.08,18.47,.23,8,.69,12.2,1.08,12.58,1.15,7.85,1.46,13.47,4.04,16.85,7.73,5.31,5.85,7.97,12.7,7.97,20.55Zm-18.24,15.24c3.69-5.16,5.54-10.31,5.54-15.47,0-5.54-1.73-10.75-5.19-15.64-3.46-4.89-7.81-8.1-13.04-9.64-3.23-.92-7.2-1.38-11.89-1.38-2.93,.23-4.39,1.54-4.39,3.92v47.21c4.62,.31,9.85,.16,15.7-.46,4.85-.15,9.27-3,13.28-8.54Z"/>
          <path class="cls-6" d="M491.99,454.3c-1.92-.92-4.12-1.69-6.58-2.31-5.23-1-10.81-1.58-16.74-1.73,1.62,.08-2.08,.12-11.08,.12-3.62,.31-5.43,2.5-5.43,6.58v35.55h28.17c2.23,.08,3.54,.39,3.93,.92-.08,1.85-1,2.54-2.77,2.08h-25.05c-3,.31-4.5,2.5-4.5,6.58v33.02h15.24c9.85,0,17.97-1.23,24.36-3.69,5.62-2.54,8.58-5.81,8.89-9.81v12.35c0,1.77-.54,3.08-1.62,3.92-.92,.54-2.08,.81-3.46,.81h-56.45v-82.65c.46-6.23,3.89-9.35,10.27-9.35,22.01-.23,36.52-.23,43.52,0,5.15,.31,7.73,2.54,7.73,6.7v9.93c-1.08-3.77-3.89-6.77-8.43-9Z"/>
          <path class="cls-6" d="M582.96,452.1c-3.08-1.62-6.39-2.42-9.93-2.42-7.7,0-13.93,3.46-18.7,10.39-4,5.85-6.81,12.05-8.43,18.59-.69,4.31-1.15,7.54-1.38,9.7-.31,2.77-.46,5.43-.46,7.97,0,10.93,3.04,20.74,9.12,29.44,4.92,6.93,11.12,10.39,18.59,10.39,1.08,0,2.23-.08,3.46-.23,1-.08,2.12-.61,3.35-1.62,1.23-1,2.08-1.96,2.54-2.89,.77-1.46,1.35-3.41,1.73-5.83,.38-2.42,.58-6.6,.58-12.52-.23-4.85-2-7-5.31-6.46h-9c-1.85,0-2.77-.46-2.77-1.39,0-.23,.08-.46,.23-.69,.31-.61,1.62-.92,3.92-.92h31.51c2.15,.08,3.23,.58,3.23,1.5,0,.23-.12,.5-.35,.81-2.85,.54-4.81,.81-5.89,.81-2.08,.16-2.89,1.12-2.42,2.89v22.39c-8.85,5.23-17.55,7.85-26.09,7.85-7.47,0-14.7-2-21.7-6-5.62-3.23-10.08-7.81-13.39-13.74-4.31-7.54-6.27-16.66-5.89-27.36,.23-3.77,.88-7.58,1.96-11.43,2.15-7.46,5.62-14.12,10.39-19.97,5.23-6.39,11.39-10.89,18.47-13.51,4.31-1.62,8.85-2.42,13.62-2.42,7.08,0,13.81,1.92,20.2,5.77,2.23,1.77,3.35,5.23,3.35,10.39,0,1.62-.16,3.39-.46,5.31-4-6.85-8.7-11.77-14.08-14.78Z"/>
          <path class="cls-6" d="M688.58,538.56h-13.39c-2.93,.62-5.43-2.5-7.5-9.35-1.69-4.69-2.96-8-3.81-9.93-.85-1.92-1.58-3.19-2.19-3.81-.92-.77-2.27-1.15-4.04-1.15h-30.94l-6.23,20.89c-.77,1.15-1.35,1.89-1.73,2.19-.85,.77-1.81,1.15-2.89,1.15h-4.96l31.17-91.77c.23-.77,1-1.31,2.31-1.62,.46-.15,1.04-.23,1.73-.23h4.96l37.52,93.62Zm-27.59-29.32c0-.46-.16-.96-.46-1.5l-16.97-44.67c-.77-1.69-1.54-2.54-2.31-2.54-.69,0-1.27,.85-1.73,2.54l-11.77,47.79h30.82c1.62-.08,2.42-.62,2.42-1.62Z"/>
          <path class="cls-6" d="M695.16,538.68v-92.12h8.35c2.59,0,4.73,1.33,6.41,4,.85,1.23,15.52,27.91,44.01,80.02l-1.96-77.55c-.39-4.01,.46-6.16,2.54-6.47h4.96l-3,92.12h-8.66c-1.92,0-3.73-1.27-5.43-3.81-.77-1.31-13.78-24.86-39.02-70.64l-5.43,69.15c-.23,2.85-1.15,4.62-2.77,5.31Z"/>
          <path class="cls-6" d="M842.57,538.56h-13.39c-2.93,.62-5.43-2.5-7.5-9.35-1.69-4.69-2.96-8-3.81-9.93-.85-1.92-1.58-3.19-2.19-3.81-.92-.77-2.27-1.15-4.04-1.15h-30.94l-6.23,20.89c-.77,1.15-1.35,1.89-1.73,2.19-.85,.77-1.81,1.15-2.89,1.15h-4.96l31.17-91.77c.23-.77,1-1.31,2.31-1.62,.46-.15,1.04-.23,1.73-.23h4.96l37.52,93.62Zm-27.59-29.32c0-.46-.16-.96-.46-1.5l-16.97-44.67c-.77-1.69-1.54-2.54-2.31-2.54-.69,0-1.27,.85-1.73,2.54l-11.77,47.79h30.82c1.62-.08,2.42-.62,2.42-1.62Z"/>
          <path class="cls-6" d="M904.79,455.1c-3.23-2.77-6.81-4.54-10.74-5.31-2.31-.54-4.66-.81-7.04-.81-7.93,0-14.16,2.31-18.7,6.93-3.46,3.54-5.19,7.47-5.19,11.77,0,3.16,.62,5.62,1.85,7.39,2.54,3.62,7.46,7.47,14.78,11.54,8.16,4.54,13.85,8.12,17.09,10.74,4.69,3.85,7.62,7.31,8.77,10.39,.77,2.08,1.15,4.31,1.15,6.7,0,2.93-.54,5.39-1.62,7.39-3.16,5.54-8.35,10.01-15.58,13.39-6.31,2.93-13.2,4.39-20.66,4.39-4,0-8.2-.42-12.58-1.27-4.85-.92-7.27-2.96-7.27-6.12v-10.85c5.54,10.01,12.43,15.01,20.66,15.01,3.39,0,6.42-.65,9.12-1.96,9.47-4.77,14.2-10.35,14.2-16.74,0-3.46-1.04-6.43-3.12-8.89-2.54-2.92-6.5-5.77-11.89-8.54-9-4.54-15.08-8.12-18.24-10.74-3.54-2.77-6.08-5.66-7.62-8.66-1.31-2.38-1.96-5.96-1.96-10.74,0-6.54,3.04-12.27,9.12-17.2,4.16-3.46,10.16-5.69,18.01-6.7,3.15-.46,7.12-.69,11.89-.69h5.31c4.69,.31,7.12,.5,7.27,.58,2.77,.39,4.92,1.23,6.46,2.54,1.31,1.62,1.89,6.04,1.73,13.28-.69-2.23-2.42-4.5-5.19-6.81Z"/>
        </g>
        <g>
          <path class="cls-9" d="M123.27,215.57l-18.82-23.17c-.36-.36-.96-.31-1.25,.1l-68.65,82.81c-.58,.82-1.86,.07-1.4-.81l69.47-98.33,.59-.73c.29-.35,.83-.36,1.13-.01l20.24,39.22c.42,.81-.66,1.57-1.31,.92Z"/>
          <path class="cls-8" d="M68.62,219.5c-7.17-2.97-11.72-10.34-10.64-18.25,1.3-9.49,10.21-16.15,19.9-14.88,4.3,.56,8.02,2.59,10.73,5.5"/>
          <path class="cls-10" d="M163.16,271.24l-23.16-44.95c-.65-1.25-2.47-1.25-3.11,0l-15.36,29.81-15.36-29.81c-.64-1.25-2.47-1.25-3.11,0l-23.16,44.95c-.59,1.14,.25,2.48,1.56,2.48h18.64l-.07,14.87c0,.47,.39,.85,.86,.85h7.46c.48,0,.86-.38,.86-.85v-14.87h24.72l-.08,14.87c0,.47,.39,.85,.87,.85h7.45c.48,0,.86-.38,.86-.85v-14.87h18.56c1.3,0,2.14-1.34,1.56-2.48Z"/>
          <path class="cls-3" d="M203.56,239.72c-1.71-.94-3.38-1.41-5-1.41-1.77,0-3.37,.44-4.8,1.33-1.43,.88-2.56,2.11-3.39,3.67-.83,1.57-1.24,3.32-1.24,5.27s.41,3.71,1.24,5.27c.83,1.57,1.96,2.8,3.39,3.7,1.43,.9,3.03,1.35,4.8,1.35,1.5,0,3.11-.4,4.83-1.22,1.71-.81,3.25-1.91,4.6-3.31l6.77,7.07c-2.14,2.28-4.73,4.11-7.76,5.47-3.03,1.36-6.03,2.04-9,2.04-3.95,0-7.52-.87-10.7-2.62-3.18-1.75-5.67-4.17-7.48-7.26-1.81-3.09-2.71-6.55-2.71-10.38s.92-7.15,2.77-10.19c1.84-3.04,4.38-5.42,7.62-7.15,3.24-1.73,6.87-2.6,10.89-2.6,2.97,0,5.95,.63,8.92,1.88,2.97,1.25,5.46,2.93,7.45,5.03l-6.77,7.9c-1.24-1.62-2.72-2.9-4.43-3.84Z"/>
          <path class="cls-3" d="M248.04,231.35c3.29,1.73,5.87,4.11,7.73,7.15,1.86,3.04,2.79,6.45,2.79,10.25s-.93,7.28-2.79,10.36c-1.86,3.07-4.44,5.49-7.73,7.24-3.29,1.75-6.97,2.62-11.03,2.62s-7.79-.87-11.06-2.62c-3.27-1.75-5.84-4.16-7.7-7.24-1.86-3.07-2.79-6.53-2.79-10.36s.93-7.21,2.79-10.25c1.86-3.04,4.43-5.42,7.7-7.15,3.27-1.73,6.96-2.6,11.06-2.6s7.74,.87,11.03,2.6Zm-15.69,8.34c-1.49,.92-2.67,2.18-3.56,3.78-.88,1.6-1.33,3.38-1.33,5.33s.44,3.74,1.33,5.36c.88,1.62,2.07,2.9,3.56,3.84,1.49,.94,3.09,1.41,4.83,1.41s3.26-.47,4.71-1.41c1.45-.94,2.59-2.21,3.41-3.81,.83-1.6,1.24-3.4,1.24-5.39s-.41-3.73-1.24-5.33c-.83-1.6-1.96-2.86-3.39-3.78-1.43-.92-3.01-1.38-4.74-1.38s-3.34,.46-4.83,1.38Z"/>
          <path class="cls-3" d="M292.97,231.35c3.29,1.73,5.87,4.11,7.73,7.15,1.86,3.04,2.79,6.45,2.79,10.25s-.93,7.28-2.79,10.36c-1.86,3.07-4.44,5.49-7.73,7.24-3.29,1.75-6.97,2.62-11.04,2.62s-7.79-.87-11.06-2.62c-3.27-1.75-5.84-4.16-7.7-7.24-1.86-3.07-2.79-6.53-2.79-10.36s.93-7.21,2.79-10.25c1.86-3.04,4.43-5.42,7.7-7.15,3.27-1.73,6.96-2.6,11.06-2.6s7.74,.87,11.04,2.6Zm-15.69,8.34c-1.49,.92-2.67,2.18-3.56,3.78-.88,1.6-1.33,3.38-1.33,5.33s.44,3.74,1.33,5.36c.88,1.62,2.07,2.9,3.56,3.84,1.49,.94,3.09,1.41,4.83,1.41s3.26-.47,4.71-1.41c1.45-.94,2.59-2.21,3.42-3.81,.83-1.6,1.24-3.4,1.24-5.39s-.41-3.73-1.24-5.33c-.83-1.6-1.96-2.86-3.39-3.78-1.43-.92-3.01-1.38-4.74-1.38s-3.34,.46-4.83,1.38Z"/>
          <path class="cls-3" d="M337.73,233.06c2.8,2.39,4.21,5.78,4.21,10.16,0,4.6-1.4,8.17-4.21,10.71-2.8,2.54-6.76,3.81-11.88,3.81l-6.21,.06v10.38h-11.74v-38.72h17.95c5.12,0,9.08,1.2,11.88,3.59Zm-8.35,14.47c.96-.92,1.44-2.25,1.44-3.98s-.48-2.99-1.44-3.89c-.96-.9-2.32-1.35-4.09-1.35h-5.64v10.6h5.64c1.77,0,3.13-.46,4.09-1.38Z"/>
          <path class="cls-4" d="M373.88,230.66c2.29,.79,4.06,1.92,5.31,3.4,1.24,1.47,1.86,3.2,1.86,5.19s-.6,3.68-1.81,5.19c-1.21,1.51-2.84,2.56-4.91,3.15,2.41,.48,4.34,1.61,5.79,3.4,1.45,1.79,2.17,3.91,2.17,6.38,0,2.17-.64,4.08-1.92,5.72-1.28,1.64-3.1,2.9-5.45,3.78-2.35,.88-5.09,1.33-8.21,1.33h-20.26v-38.72h19.42c3.05,0,5.72,.4,8.02,1.19Zm-5.87,13.09c.68-.61,1.02-1.43,1.02-2.46s-.34-1.78-1.02-2.35c-.68-.57-1.6-.86-2.77-.86h-7.11v6.57h7.11c1.17,0,2.09-.3,2.77-.91Zm.82,14.88c.88-.66,1.33-1.56,1.33-2.71,0-1.07-.44-1.91-1.33-2.51-.88-.61-2.08-.89-3.58-.86h-7.11v7.01h7.11c1.5,.04,2.7-.28,3.58-.94Z"/>
          <path class="cls-4" d="M400.13,257.42c1.28,1.33,2.88,1.99,4.8,1.99s3.42-.65,4.63-1.96c1.2-1.31,1.81-3.07,1.81-5.27v-22.7h11.74v22.7c0,3.39-.74,6.34-2.23,8.86-1.49,2.52-3.6,4.47-6.35,5.85-2.75,1.38-5.95,2.07-9.6,2.07s-6.92-.69-9.71-2.07c-2.79-1.38-4.94-3.33-6.46-5.85-1.52-2.52-2.29-5.48-2.29-8.86v-22.7h11.74v22.7c0,2.17,.64,3.92,1.92,5.25Z"/>
          <path class="cls-4" d="M429.14,229.47h32.34v8.84h-20.6v6.08h18.68v8.84h-18.68v6.13h21.17v8.84h-32.91v-38.72Z"/>
          <path class="cls-4" d="M494.51,229.47h10.72v38.72h-9.99l-16.76-21.54v21.54h-10.78v-38.72h10.05l16.76,21.6v-21.6Z"/>
          <path class="cls-4" d="M542.23,231.35c3.29,1.73,5.87,4.11,7.73,7.15,1.86,3.04,2.79,6.45,2.79,10.25s-.93,7.28-2.79,10.36c-1.86,3.07-4.44,5.49-7.73,7.24-3.29,1.75-6.97,2.62-11.04,2.62s-7.79-.87-11.06-2.62c-3.27-1.75-5.84-4.16-7.7-7.24-1.86-3.07-2.79-6.53-2.79-10.36s.93-7.21,2.79-10.25c1.86-3.04,4.43-5.42,7.7-7.15,3.27-1.73,6.96-2.6,11.06-2.6s7.74,.87,11.04,2.6Zm-15.69,8.34c-1.49,.92-2.67,2.18-3.56,3.78-.88,1.6-1.33,3.38-1.33,5.33s.44,3.74,1.33,5.36c.88,1.62,2.07,2.9,3.56,3.84,1.49,.94,3.09,1.41,4.83,1.41s3.26-.47,4.71-1.41c1.45-.94,2.59-2.21,3.42-3.81,.83-1.6,1.24-3.4,1.24-5.39s-.41-3.73-1.24-5.33c-.83-1.6-1.96-2.86-3.39-3.78-1.43-.92-3.01-1.38-4.74-1.38s-3.34,.46-4.83,1.38Z"/>
          <path class="cls-1" d="M357.3,287.02l-.99-2.31h-5.45l-.99,2.31h-2.22l4.89-10.92h2.22l4.83,10.92h-2.29Zm-5.67-4.1h3.92l-1.94-4.58-1.98,4.58Z"/>
          <path class="cls-1" d="M368.78,277.09c.77,.65,1.16,1.58,1.16,2.78s-.39,2.22-1.16,2.91c-.77,.69-1.86,1.04-3.26,1.04h-2.44v3.21h-2.14v-10.92h4.57c1.4,0,2.49,.33,3.26,.98Zm-1.51,4.37c.43-.34,.65-.85,.65-1.53s-.22-1.16-.65-1.5c-.43-.33-1.05-.5-1.86-.5h-2.33v4.04h2.33c.81,0,1.43-.17,1.86-.51Z"/>
          <path class="cls-1" d="M379.8,276.7c.91,.49,1.62,1.16,2.14,2.01,.52,.85,.78,1.8,.78,2.84s-.26,1.99-.78,2.85c-.52,.86-1.24,1.54-2.14,2.03-.91,.5-1.91,.75-3.02,.75s-2.11-.25-3.02-.75c-.91-.5-1.62-1.18-2.14-2.03-.52-.86-.78-1.81-.78-2.85s.26-1.99,.78-2.84c.52-.85,1.24-1.52,2.14-2.01,.91-.49,1.91-.73,3.02-.73s2.11,.24,3.02,.73Zm-4.88,1.63c-.58,.33-1.05,.77-1.39,1.34-.34,.57-.51,1.19-.51,1.88s.17,1.32,.52,1.89c.34,.57,.81,1.02,1.39,1.36,.58,.33,1.21,.5,1.89,.5s1.29-.17,1.86-.5c.57-.33,1.03-.78,1.36-1.36,.33-.57,.5-1.2,.5-1.89s-.17-1.31-.5-1.88c-.33-.57-.79-1.01-1.36-1.34-.57-.33-1.2-.49-1.86-.49s-1.31,.16-1.9,.49Z"/>
          <path class="cls-1" d="M393.51,276.11l-4.06,7.34v3.57h-2.14v-3.49l-4.16-7.42h2.17l3.04,5.13,3-5.13h2.15Z"/>
          <path class="cls-1" d="M402.32,287.02l-.99-2.31h-5.45l-.99,2.31h-2.22l4.89-10.92h2.22l4.83,10.92h-2.29Zm-5.67-4.1h3.92l-1.94-4.58-1.98,4.58Z"/>
          <path class="cls-1" d="M413.75,276.11h2.07v10.92h-2.02l-5.74-7.52v7.52h-2.09v-10.92h2.02l5.75,7.53v-7.53Z"/>
          <path class="cls-1" d="M426.19,276.8c.88,.46,1.57,1.11,2.07,1.94,.5,.83,.75,1.77,.75,2.82s-.25,1.99-.76,2.81c-.5,.83-1.2,1.47-2.1,1.94-.89,.47-1.91,.7-3.04,.7h-4.56v-10.92h4.64c1.12,0,2.11,.23,3,.69Zm-1.11,7.92c.55-.31,.97-.73,1.28-1.28,.31-.55,.46-1.17,.46-1.86s-.16-1.32-.48-1.88c-.32-.56-.76-.99-1.31-1.29-.56-.31-1.18-.46-1.87-.46h-2.47v7.24h2.55c.68,0,1.29-.15,1.84-.46Z"/>
          <path class="cls-1" d="M438.59,276.7c.91,.49,1.62,1.16,2.14,2.01,.52,.85,.78,1.8,.78,2.84s-.26,1.99-.78,2.85c-.52,.86-1.24,1.54-2.14,2.03-.91,.5-1.91,.75-3.02,.75s-2.11-.25-3.02-.75c-.91-.5-1.62-1.18-2.14-2.03-.52-.86-.78-1.81-.78-2.85s.26-1.99,.78-2.84c.52-.85,1.24-1.52,2.14-2.01,.91-.49,1.91-.73,3.02-.73s2.11,.24,3.02,.73Zm-4.88,1.63c-.58,.33-1.05,.77-1.39,1.34-.34,.57-.51,1.19-.51,1.88s.17,1.32,.52,1.89c.34,.57,.81,1.02,1.39,1.36,.58,.33,1.21,.5,1.89,.5s1.29-.17,1.86-.5c.57-.33,1.03-.78,1.36-1.36,.33-.57,.5-1.2,.5-1.89s-.17-1.31-.5-1.88c-.33-.57-.79-1.01-1.36-1.34-.57-.33-1.2-.49-1.86-.49s-1.31,.16-1.9,.49Z"/>
          <path class="cls-1" d="M446.05,276.11h9.1v1.86h-3.47v9.06h-2.15v-9.06h-3.47v-1.86Z"/>
          <path class="cls-1" d="M459.34,284.56c.5,.49,1.17,.73,2.01,.73s1.5-.24,1.98-.73c.48-.49,.73-1.16,.73-2.03v-6.42h2.14v6.42c0,.95-.2,1.77-.59,2.47-.39,.7-.95,1.24-1.68,1.61-.73,.37-1.59,.56-2.57,.56s-1.87-.19-2.61-.56c-.74-.37-1.3-.91-1.7-1.61-.39-.7-.59-1.53-.59-2.47v-6.42h2.14v6.42c0,.86,.25,1.54,.75,2.03Z"/>
          <path class="cls-1" d="M473.96,278.12c-.6-.19-1.13-.28-1.59-.28-.51,0-.91,.09-1.21,.28-.3,.19-.45,.45-.45,.78,0,.3,.1,.55,.31,.76,.21,.2,.47,.37,.78,.5,.31,.13,.74,.27,1.28,.43,.75,.22,1.37,.44,1.86,.65,.48,.22,.89,.54,1.24,.97,.34,.43,.51,.99,.51,1.68s-.18,1.25-.55,1.74c-.37,.49-.87,.87-1.51,1.13-.64,.26-1.38,.39-2.21,.39-.87,0-1.72-.16-2.55-.48-.83-.32-1.55-.74-2.17-1.27l.89-1.78c.56,.51,1.2,.91,1.9,1.2,.7,.29,1.35,.44,1.96,.44s1.06-.11,1.4-.34c.34-.22,.51-.53,.51-.91,0-.31-.1-.57-.31-.77-.21-.2-.47-.37-.79-.49-.32-.12-.75-.26-1.31-.42-.75-.22-1.37-.43-1.85-.64-.48-.21-.89-.52-1.23-.94-.34-.42-.51-.97-.51-1.66,0-.63,.17-1.19,.52-1.66,.35-.47,.83-.84,1.47-1.1,.63-.26,1.36-.39,2.19-.39,.72,0,1.44,.1,2.14,.31,.71,.21,1.34,.49,1.89,.84l-.86,1.82c-.57-.34-1.16-.61-1.76-.8Z"/>
          <path class="cls-1" d="M487.88,278.12c-.6-.19-1.13-.28-1.59-.28-.51,0-.91,.09-1.21,.28-.3,.19-.45,.45-.45,.78,0,.3,.1,.55,.31,.76,.21,.2,.47,.37,.78,.5,.31,.13,.74,.27,1.28,.43,.75,.22,1.37,.44,1.86,.65,.48,.22,.89,.54,1.24,.97,.34,.43,.51,.99,.51,1.68s-.18,1.25-.55,1.74c-.37,.49-.87,.87-1.51,1.13-.64,.26-1.38,.39-2.21,.39-.87,0-1.72-.16-2.55-.48-.83-.32-1.55-.74-2.17-1.27l.89-1.78c.56,.51,1.2,.91,1.9,1.2,.7,.29,1.35,.44,1.96,.44s1.06-.11,1.4-.34c.34-.22,.51-.53,.51-.91,0-.31-.1-.57-.31-.77-.21-.2-.47-.37-.79-.49-.32-.12-.75-.26-1.31-.42-.75-.22-1.37-.43-1.85-.64-.48-.21-.89-.52-1.23-.94-.34-.42-.51-.97-.51-1.66,0-.63,.17-1.19,.52-1.66,.35-.47,.83-.84,1.47-1.1,.63-.26,1.36-.39,2.19-.39,.72,0,1.44,.1,2.14,.31,.71,.21,1.34,.49,1.89,.84l-.86,1.82c-.57-.34-1.16-.61-1.76-.8Z"/>
          <path class="cls-1" d="M495.31,284.56c.5,.49,1.17,.73,2.01,.73s1.5-.24,1.98-.73c.48-.49,.73-1.16,.73-2.03v-6.42h2.14v6.42c0,.95-.2,1.77-.59,2.47-.39,.7-.95,1.24-1.68,1.61-.73,.37-1.59,.56-2.57,.56s-1.87-.19-2.61-.56c-.74-.37-1.3-.91-1.7-1.61-.39-.7-.59-1.53-.59-2.47v-6.42h2.14v6.42c0,.86,.25,1.54,.75,2.03Z"/>
          <path class="cls-1" d="M504.68,276.11h8.18v1.82h-6.04v2.7h5.42v1.82h-5.42v2.74h6.23v1.82h-8.37v-10.92Z"/>
          <path class="cls-1" d="M522.99,276.11h2.07v10.92h-2.02l-5.74-7.52v7.52h-2.09v-10.92h2.02l5.75,7.53v-7.53Zm-1.45-.89c-.23,0-.46-.04-.68-.12-.22-.08-.46-.2-.73-.34-.34-.19-.58-.28-.72-.28-.16,0-.27,.06-.33,.18-.06,.12-.1,.29-.1,.52h-1.32c0-1.47,.46-2.2,1.39-2.2,.23,0,.46,.04,.68,.12,.22,.08,.46,.2,.72,.34,.34,.19,.58,.28,.72,.28,.16,0,.27-.06,.33-.18,.06-.12,.1-.29,.1-.51h1.34c0,1.46-.47,2.18-1.4,2.18Z"/>
          <path class="cls-1" d="M535.89,276.7c.91,.49,1.62,1.16,2.14,2.01,.52,.85,.78,1.8,.78,2.84s-.26,1.99-.78,2.85c-.52,.86-1.24,1.54-2.14,2.03-.91,.5-1.91,.75-3.02,.75s-2.11-.25-3.02-.75c-.91-.5-1.62-1.18-2.14-2.03-.52-.86-.78-1.81-.78-2.85s.26-1.99,.78-2.84c.52-.85,1.24-1.52,2.14-2.01,.91-.49,1.91-.73,3.02-.73s2.11,.24,3.02,.73Zm-4.88,1.63c-.58,.33-1.05,.77-1.39,1.34-.34,.57-.51,1.19-.51,1.88s.17,1.32,.52,1.89c.34,.57,.81,1.02,1.39,1.36,.58,.33,1.21,.5,1.89,.5s1.29-.17,1.86-.5c.57-.33,1.03-.78,1.36-1.36,.33-.57,.5-1.2,.5-1.89s-.17-1.31-.5-1.88c-.33-.57-.79-1.01-1.36-1.34-.57-.33-1.2-.49-1.86-.49s-1.31,.16-1.9,.49Z"/>
          <path class="cls-1" d="M545.95,278.12c-.6-.19-1.13-.28-1.59-.28-.51,0-.91,.09-1.21,.28-.3,.19-.45,.45-.45,.78,0,.3,.1,.55,.31,.76s.47,.37,.78,.5c.31,.13,.74,.27,1.28,.43,.75,.22,1.37,.44,1.86,.65,.48,.22,.89,.54,1.24,.97,.34,.43,.51,.99,.51,1.68s-.18,1.25-.55,1.74c-.37,.49-.87,.87-1.51,1.13-.64,.26-1.38,.39-2.21,.39-.87,0-1.72-.16-2.55-.48-.83-.32-1.55-.74-2.17-1.27l.89-1.78c.56,.51,1.2,.91,1.9,1.2,.7,.29,1.35,.44,1.96,.44s1.06-.11,1.4-.34c.34-.22,.51-.53,.51-.91,0-.31-.1-.57-.31-.77-.21-.2-.47-.37-.79-.49-.32-.12-.75-.26-1.31-.42-.75-.22-1.37-.43-1.85-.64-.48-.21-.89-.52-1.23-.94-.34-.42-.51-.97-.51-1.66,0-.63,.17-1.19,.52-1.66,.35-.47,.83-.84,1.47-1.1,.63-.26,1.36-.39,2.19-.39,.72,0,1.44,.1,2.14,.31,.71,.21,1.34,.49,1.89,.84l-.86,1.82c-.57-.34-1.16-.61-1.76-.8Z"/>
        </g>
        <g>
          <g>
            <path class="cls-6" d="M136.67,420.54h-13.26c-2.9,.61-5.37-2.47-7.43-9.26-1.68-4.65-2.93-7.92-3.77-9.83-.84-1.9-1.56-3.16-2.17-3.77-.91-.76-2.25-1.14-4-1.14h-30.63l-6.17,20.68c-.76,1.14-1.33,1.87-1.71,2.17-.84,.76-1.79,1.14-2.86,1.14h-4.92l30.86-90.86c.23-.76,.99-1.29,2.29-1.6,.46-.15,1.03-.23,1.72-.23h4.91l37.14,92.69Zm-27.31-29.03c0-.46-.15-.95-.46-1.49l-16.8-44.23c-.76-1.68-1.53-2.51-2.29-2.51-.69,0-1.26,.84-1.72,2.51l-11.66,47.31h30.51c1.6-.07,2.4-.61,2.4-1.6Z"/>
            <path class="cls-6" d="M150.84,334.18c2.89,0,4.33,1.7,4.33,5.09v33.22c.22,3.83,1.7,5.45,4.44,4.87h37.99v-37.45c.14-4.11,1.44-6.02,3.9-5.74h8.77v86.26h-8.87c-2.16,0-3.36-1.15-3.57-3.46v-31.6c-.29-3.25-2.2-4.87-5.74-4.87h-36.91v35.82c-.15,2.74-1.48,4.11-4,4.11h-8.44v-86.26h8.12Z"/>
            <path class="cls-6" d="M276.71,347.06c5.56,8.08,8.33,17.39,8.33,27.92,0,2.02-.11,4.01-.32,5.95-1.23,11.54-5.32,21.21-12.28,29-6.96,7.79-14.92,11.69-23.86,11.69-10.1,0-18.25-4.62-24.46-13.85-5.56-8.08-8.33-17.39-8.33-27.92,0-2.02,.11-4.01,.32-5.95,1.23-11.54,5.32-21.21,12.28-29,6.96-7.79,14.92-11.69,23.86-11.69,10.03,0,18.18,4.62,24.46,13.85Zm-7.9,2.54c-4.04-8.19-9.2-12.43-15.47-12.72-6.28-.36-11.83,3.34-16.67,11.09-4.84,7.76-7.54,17.3-8.12,28.63-.58,11.26,1.15,20.98,5.2,29.17,4.04,8.19,9.2,12.47,15.48,12.82,6.28,.29,11.83-3.44,16.67-11.2,4.83-7.76,7.54-17.26,8.12-28.52,.58-11.33-1.15-21.08-5.2-29.28Z"/>
            <path class="cls-6" d="M347.92,362.11v.87c0,8.01-3.79,14.47-11.36,19.37-3.18,2.02-7,3.68-11.47,4.98l22.73,33.23-8.12-.11c-2.09,.43-4.4-1.12-6.93-4.65l-16.02-25.22c-.72-1.23-1.55-2.06-2.49-2.49-.43-.22-.83-.32-1.19-.32h-9.41v28.46c0,2.67-1.15,4.11-3.46,4.33h-9.52v-81.49c.22-2.02,1.08-3.43,2.6-4.22,.65-.29,1.41-.47,2.27-.54,9.96,0,15.73,.07,17.32,.22,7.5,.65,11.43,1.01,11.8,1.08,7.36,1.37,12.63,3.79,15.8,7.25,4.98,5.48,7.47,11.9,7.47,19.26Zm-17.1,14.29c3.46-4.83,5.2-9.67,5.2-14.5,0-5.2-1.62-10.08-4.87-14.67-3.25-4.58-7.32-7.59-12.23-9.04-3.03-.87-6.75-1.3-11.15-1.3-2.74,.22-4.11,1.45-4.11,3.68v44.26c4.33,.29,9.23,.15,14.72-.43,4.55-.14,8.69-2.81,12.45-8.01Z"/>
            <path class="cls-6" d="M410.69,362.11v.87c0,8.01-3.79,14.47-11.36,19.37-3.18,2.02-7,3.68-11.47,4.98l22.73,33.23-8.12-.11c-2.09,.43-4.4-1.12-6.93-4.65l-16.02-25.22c-.72-1.23-1.55-2.06-2.49-2.49-.43-.22-.83-.32-1.19-.32h-9.41v28.46c0,2.67-1.15,4.11-3.46,4.33h-9.52v-81.49c.22-2.02,1.08-3.43,2.6-4.22,.65-.29,1.41-.47,2.27-.54,9.96,0,15.73,.07,17.32,.22,7.5,.65,11.43,1.01,11.8,1.08,7.36,1.37,12.63,3.79,15.8,7.25,4.98,5.48,7.47,11.9,7.47,19.26Zm-17.1,14.29c3.46-4.83,5.2-9.67,5.2-14.5,0-5.2-1.62-10.08-4.87-14.67-3.25-4.58-7.32-7.59-12.23-9.04-3.03-.87-6.75-1.3-11.15-1.3-2.74,.22-4.11,1.45-4.11,3.68v44.26c4.33,.29,9.23,.15,14.72-.43,4.55-.14,8.69-2.81,12.45-8.01Z"/>
            <path class="cls-6" d="M489.37,420.55h-12.55c-2.74,.58-5.09-2.34-7.03-8.77-1.59-4.4-2.78-7.5-3.57-9.31-.8-1.8-1.48-2.99-2.06-3.57-.87-.72-2.13-1.08-3.79-1.08h-29l-5.85,19.59c-.72,1.08-1.26,1.77-1.62,2.06-.8,.72-1.7,1.08-2.7,1.08h-4.66l29.22-86.04c.22-.72,.94-1.23,2.16-1.51,.43-.14,.97-.22,1.62-.22h4.65l35.17,87.77Zm-25.87-27.49c0-.43-.15-.9-.43-1.41l-15.91-41.88c-.72-1.59-1.45-2.38-2.16-2.38-.65,0-1.19,.79-1.62,2.38l-11.04,44.81h28.9c1.52-.07,2.27-.58,2.27-1.51Z"/>
            <path class="cls-6" d="M495.53,420.66v-86.36h7.83c2.43,0,4.43,1.25,6,3.75,.8,1.15,14.55,26.16,41.26,75.02l-1.84-72.71c-.36-3.76,.43-5.78,2.38-6.07h4.65l-2.81,86.36h-8.12c-1.8,0-3.5-1.19-5.09-3.58-.72-1.23-12.92-23.3-36.58-66.23l-5.09,64.83c-.22,2.67-1.08,4.33-2.6,4.98Z"/>
            <path class="cls-6" d="M622.37,376.83c0,10.97-4.11,20.85-12.34,29.65-5.48,5.92-12.37,9.89-20.67,11.91-6.28,1.51-15.91,2.27-28.9,2.27v-78.57c.5-3.61,3.1-6.13,7.79-7.58,1.95-.65,4.26-1.05,6.93-1.19,9.38-.14,17.57,1.73,24.57,5.63,10.75,5.92,17.64,14.11,20.67,24.57,1.3,4.55,1.95,8.98,1.95,13.31Zm-13.31-1.08c0-6.42-1.23-12.34-3.68-17.75-3.1-6.93-7.9-12.3-14.39-16.12-4.33-2.45-8.66-3.97-12.99-4.55-3.54-.22-5.3,1.05-5.3,3.79v75.97l5.74-.76c2.31-.36,4.15-.79,5.52-1.3,7.86-3.17,13.13-6.56,15.8-10.17,4.33-5.84,7.18-12.52,8.55-20.02,.5-3.03,.76-6.06,.76-9.09Z"/>
            <path class="cls-6" d="M688.93,347.06c5.56,8.08,8.33,17.39,8.33,27.92,0,2.02-.11,4.01-.32,5.95-1.23,11.54-5.32,21.21-12.28,29-6.96,7.79-14.92,11.69-23.86,11.69-10.1,0-18.25-4.62-24.46-13.85-5.56-8.08-8.33-17.39-8.33-27.92,0-2.02,.11-4.01,.32-5.95,1.23-11.54,5.32-21.21,12.28-29,6.96-7.79,14.92-11.69,23.86-11.69,10.03,0,18.18,4.62,24.46,13.85Zm-7.9,2.54c-4.04-8.19-9.2-12.43-15.47-12.72-6.28-.36-11.83,3.34-16.67,11.09-4.84,7.76-7.54,17.3-8.12,28.63-.58,11.26,1.15,20.98,5.2,29.17,4.04,8.19,9.2,12.47,15.48,12.82,6.28,.29,11.83-3.44,16.67-11.2,4.83-7.76,7.54-17.26,8.12-28.52,.58-11.33-1.15-21.08-5.2-29.28Z"/>
          </g>
          <path class="cls-6" d="M249.51,409.31c-.21,0-.43,0-.65-.03-4.33-.33-8.12-3.96-10.67-10.23-2.51-6.16-3.54-14.16-2.89-22.53,1.3-16.98,9.19-30.34,17.77-30.34,.21,0,.42,0,.63,.02,8.81,.67,14.9,15.37,13.57,32.76-.64,8.37-2.87,16.12-6.29,21.83-3.3,5.52-7.35,8.51-11.46,8.51Zm3.53-62.19c-8.07,0-15.54,12.99-16.81,29.47-.63,8.23,.38,16.08,2.83,22.1,2.41,5.92,5.91,9.34,9.87,9.65,3.99,.31,7.94-2.55,11.22-8.03,3.34-5.58,5.53-13.19,6.16-21.41,1.29-16.87-4.41-31.11-12.7-31.75-.19-.01-.38-.02-.57-.02Z"/>
          <path class="cls-6" d="M254.84,386.93c-.06,0-.11,0-.17,0-2.2-.17-3.67-3.54-3.36-7.67,.15-1.92,.66-3.7,1.45-5.01,.85-1.42,1.9-2.17,3.04-2.06,2.2,.17,3.67,3.54,3.35,7.67h0c-.31,4.03-2.18,7.08-4.31,7.08Zm.79-13.82c-.7,0-1.44,.58-2.05,1.61-.71,1.19-1.18,2.82-1.32,4.6-.26,3.48,.87,6.53,2.48,6.66,.03,0,.06,0,.09,0,1.42,0,3.09-2.44,3.37-6.21h0c.29-3.85-1.05-6.55-2.48-6.66-.03,0-.06,0-.09,0Z"/>
          <polygon class="cls-6" points="261.48 348.78 262.61 350.84 264.67 351.97 262.61 353.1 261.48 355.17 260.35 353.1 258.28 351.97 260.35 350.84 261.48 348.78"/>
          <g>
            <polygon class="cls-6" points="663.85 365.5 666.06 369.54 670.11 371.76 666.06 373.97 663.85 378.01 661.64 373.97 657.59 371.76 661.64 369.54 663.85 365.5"/>
            <path class="cls-6" d="M663.85,343.4c-1.24,0-2.25-1.01-2.25-2.25s1.01-2.25,2.25-2.25,2.25,1.01,2.25,2.25-1.01,2.25-2.25,2.25Zm0-4.03c-.98,0-1.78,.8-1.78,1.78s.8,1.78,1.78,1.78,1.78-.8,1.78-1.78-.8-1.78-1.78-1.78Z"/>
            <path class="cls-6" d="M663.85,350.99c-1.24,0-2.25-1.01-2.25-2.25s1.01-2.25,2.25-2.25,2.25,1.01,2.25,2.25-1.01,2.25-2.25,2.25Zm0-4.03c-.98,0-1.78,.8-1.78,1.78s.8,1.78,1.78,1.78,1.78-.8,1.78-1.78-.8-1.78-1.78-1.78Z"/>
            <path class="cls-6" d="M663.85,356.1c-.76,0-1.39-.62-1.39-1.39s.62-1.38,1.39-1.38,1.38,.62,1.38,1.38-.62,1.39-1.38,1.39Zm0-2.3c-.51,0-.92,.41-.92,.92s.41,.92,.92,.92,.92-.41,.92-.92-.41-.92-.92-.92Z"/>
            <path class="cls-6" d="M663.85,362.93c-1.24,0-2.25-1.01-2.25-2.25s1.01-2.25,2.25-2.25,2.25,1.01,2.25,2.25-1.01,2.25-2.25,2.25Zm0-4.03c-.98,0-1.78,.8-1.78,1.78s.8,1.78,1.78,1.78,1.78-.8,1.78-1.78-.8-1.78-1.78-1.78Z"/>
          </g>
        </g>
      </g>
      <g>
        <rect class="cls-11" x="147.19" y="27.64" width="750.6" height="140.69" rx="15.12" ry="15.12" transform="translate(9.12 -40.04) rotate(4.43)"/>
        <rect class="cls-11" x="271.47" y="136.47" width="141.58" height="79.32" rx="6.66" ry="6.66" transform="translate(14.62 -25.9) rotate(4.43)"/>
        <g>
          <path class="cls-1" d="M242.77,78.58l19.84,1.48-2.46,32.89c-9.68,5.89-22.53,8.46-34.09,7.6-25.29-1.89-42.49-20.4-40.68-44.55,1.81-24.15,21.57-39.89,47.31-37.97,14.86,1.11,26.49,7.11,33.62,17.11l-15.26,11.86c-4.99-6.42-11.02-9.72-18.61-10.29-13.61-1.02-23.35,7.26-24.38,20.98-1,13.38,7.38,23.36,20.75,24.36,4.2,.31,8.22-.18,12.33-1.7l1.63-21.77Z"/>
          <path class="cls-1" d="M310.09,104.03l-12.25-.92-1.58,21.09-22.45-1.68,5.94-79.38,36.29,2.72c21.66,1.62,34.43,13.87,33.07,32.01-.87,11.68-7.19,19.87-17.41,23.9l15.26,26.23-24.04-1.8-12.82-22.17Zm3.27-40.58l-12.48-.93-1.74,23.25,12.48,.93c9.3,.7,14.27-3.27,14.81-10.52,.55-7.37-3.77-12.03-13.07-12.72Z"/>
          <path class="cls-1" d="M412.06,117.36l-33.57-2.51-7.39,14.95-22.9-1.71,40.98-76.76,22.11,1.65,29.21,82.01-23.36-1.75-5.08-15.89Zm-5.34-17.05l-8.3-26.17-12.11,24.64,20.41,1.53Z"/>
          <path class="cls-1" d="M528.32,61.75l-5.94,79.38-18.48-1.38-31.88-44.92-3.17,42.3-22-1.65,5.94-79.38,18.49,1.38,31.87,44.92,3.17-42.3,22,1.65Z"/>
          <path class="cls-1" d="M607.54,126.29l-12.25-.92-1.58,21.09-22.45-1.68,5.94-79.38,36.29,2.72c21.66,1.62,34.43,13.87,33.07,32.01-.87,11.68-7.19,19.87-17.41,23.9l15.26,26.23-24.04-1.8-12.82-22.17Zm3.27-40.58l-12.48-.93-1.74,23.25,12.47,.93c9.3,.7,14.27-3.27,14.81-10.52,.55-7.37-3.78-12.03-13.07-12.73Z"/>
          <path class="cls-1" d="M661.11,71.69l22.45,1.68-5.94,79.38-22.45-1.68,5.94-79.38Z"/>
          <path class="cls-1" d="M720.71,93.59l-1.31,17.46,35.04,2.62-1.3,17.35-35.04-2.62-2.04,27.22-22.45-1.68,5.94-79.38,62.26,4.66-1.3,17.35-39.8-2.98Z"/>
          <path class="cls-1" d="M817.7,147.72l-33.57-2.51-7.39,14.96-22.91-1.71,40.98-76.76,22.11,1.65,29.21,82.01-23.36-1.75-5.08-15.89Zm-5.34-17.05l-8.3-26.17-12.11,24.64,20.41,1.53Z"/>
        </g>
        <g>
          <path class="cls-1" d="M337.36,185.29l-.47,8.81-32.37-1.72,2.14-40.31,31.62,1.68-.47,8.81-20.33-1.08-.36,6.8,17.91,.95-.45,8.52-17.91-.95-.39,7.37,21.08,1.12Z"/>
          <path class="cls-1" d="M383.72,156.15l-2.14,40.31-9.39-.5-16.66-22.42-1.14,21.48-11.17-.59,2.14-40.31,9.38,.5,16.66,22.42,1.14-21.48,11.17,.59Z"/>
        </g>
      </g>
      <text class="cls-2" transform="translate(178.67 115.97) rotate(4.1)"><tspan x="0" y="0">GRAN RI</tspan><tspan class="cls-7" x="506.37" y="0">F</tspan><tspan x="575.74" y="0">A</tspan></text>
    </g>
  </g>
</svg>